<?xml version="1.0" encoding="UTF-8" standalone="no"?>
<svg width="799.89484" height="801.20862" viewBox="0 0 23.996845 24.036259" fill="none" version="1.1" id="svg1" xmlns="http://www.w3.org/2000/svg" xmlns:svg="http://www.w3.org/2000/svg">
  <path fill-rule="evenodd" clip-rule="evenodd" d="m 22.747372,1.0470306 c -1.393775,-1.39603485 -3.653369,-1.39604676 -5.047146,0 l -1.99835,2.0016381 -9.4052675,9.4206763 c -0.1524636,0.152762 -0.2606134,0.344132 -0.3129099,0.553614 l -1.1896352,4.766374 c -0.1013563,0.406094 0.017427,0.835663 0.3129097,1.131536 0.2954818,0.295992 0.7243334,0.415032 1.1297372,0.313508 l 4.7584947,-1.191593 c 0.209256,-0.05243 0.400193,-0.160747 0.552703,-0.313509 L 20.88476,8.3771398 22.951514,6.306973 c 1.393775,-1.3960348 1.393775,-3.6594661 0,-5.0555009 z m -3.364765,1.6851629 c 0.464553,-0.465341 1.217831,-0.465341 1.682384,0 l 0.204141,0.2044416 c 0.464552,0.465353 0.464552,1.219834 0,1.685175 L 20.059868,5.8330884 18.209509,3.9072474 Z M 16.52677,5.5927202 18.377129,7.5185611 10.098576,15.810811 7.5831751,16.440687 8.2120044,13.921183 Z M 2.3792705,7.3540021 c 0,-0.6580931 0.5326235,-1.1915932 1.1896353,-1.1915932 h 5.948176 c 0.6570352,0 1.1896352,-0.5334881 1.1896352,-1.1915931 0,-0.6580932 -0.5326,-1.1915933 -1.1896352,-1.1915933 H 3.5689058 C 1.5978585,3.7792225 0,5.379711 0,7.3540021 V 20.461481 c 0,1.97435 1.5978585,3.574778 3.5689058,3.574778 H 16.654893 c 1.971107,0 3.568906,-1.600428 3.568906,-3.574778 v -5.957968 c 0,-0.657997 -0.532599,-1.191592 -1.189635,-1.191592 -0.657035,0 -1.189635,0.533595 -1.189635,1.191592 v 5.957968 c 0,0.658116 -0.5326,1.191591 -1.189636,1.191591 H 3.5689058 c -0.6570118,0 -1.1896353,-0.533475 -1.1896353,-1.191591 z" fill="#000000" id="path1" style="stroke-width:1.19061" />
</svg>
