<svg viewBox="-225.28 -225.28 962.56 962.56" fill="#1d2021" height="800px" width="800px" version="1.1" xmlns="http://www.w3.org/2000/svg">
    <path transform="translate(-225.28, -225.28), scale(30.08)"
          d="M16,26.200683444346254C18.658095627918296,26.675678601697225,21.0324853740837,30.09850368759772,23.47437134708621,28.945990927790348C25.82650693158822,27.835838240929913,24.4370514793346,23.874382271165086,25.721169690614758,21.612519937714463C26.99116218854287,19.37553881744457,30.259339475472963,18.50957305855766,30.824147886351536,16C31.39103756062668,13.481179411754063,30.447397949487556,10.539712876319914,28.624789003299817,8.711074670482628C26.8302959374156,6.910645353349253,23.913201586905124,7.158427977873073,21.437380457395005,6.582180787709758C19.62171373587619,6.159584488616343,17.826717656014925,6.144591254340723,16,5.77265593625213C13.643148319136264,5.292780802444082,11.29105658703596,3.0506397351677075,9.113958863051318,4.073026887795516C6.99097904660041,5.069999722646021,7.590004521126891,8.44824139583768,6.2313936245726875,10.360092479539539C4.671126765114962,12.555715887009638,0.9391042819522432,13.323297291531528,0.6383428638310811,15.999999999999996C0.346989200797573,18.59297600016577,3.1497788513480014,20.465782335162693,4.876038240473896,22.422422316317487C6.3352703422846846,24.076398474346252,7.835175386569649,25.81515542222339,9.923669157549734,26.52451374272165C11.877517549482574,27.188139669247295,13.968704126719434,25.8376958630037,16,26.200683444346254"
          fill="#a89984"/>
    <path stroke-linecap="round" stroke-linejoin="round" stroke="#282828" stroke-width="10.24"
          d="M256,0C114.511,0,0,114.497,0,256c0,141.49,114.495,256,256,256c141.49,0,256-114.497,256-256C512,114.51,397.503,0,256,0 z M348.238,284.418l-120.294,69.507c-10.148,5.864-22.661,5.874-32.826,0.009c-10.158-5.862-16.415-16.699-16.415-28.426V186.493 c0-11.728,6.258-22.564,16.415-28.426c5.076-2.93,10.741-4.395,16.406-4.395c5.67,0,11.341,1.468,16.42,4.402l120.295,69.507 c10.149,5.864,16.4,16.696,16.4,28.418C364.639,267.722,358.387,278.553,348.238,284.418z"/>
    <path d="M256,0C114.511,0,0,114.497,0,256c0,141.49,114.495,256,256,256c141.49,0,256-114.497,256-256C512,114.51,397.503,0,256,0 z M348.238,284.418l-120.294,69.507c-10.148,5.864-22.661,5.874-32.826,0.009c-10.158-5.862-16.415-16.699-16.415-28.426V186.493 c0-11.728,6.258-22.564,16.415-28.426c5.076-2.93,10.741-4.395,16.406-4.395c5.67,0,11.341,1.468,16.42,4.402l120.295,69.507 c10.149,5.864,16.4,16.696,16.4,28.418C364.639,267.722,358.387,278.553,348.238,284.418z"/>
</svg>