<?xml version="1.0" encoding="UTF-8" standalone="no"?>
<svg viewBox="0 0 24 24" version="1.1" xmlns="http://www.w3.org/2000/svg"
  <path fill-rule="evenodd" clip-rule="evenodd" d="M 7.5000004,2.6666667 C 7.5000004,1.1939067 8.8431444,0 10.5,0 h 2.999999 C 15.156901,0 16.5,1.1939067 16.5,2.6666667 v 1.3333332 h 3 3 c 0.828451,0 1.5,0.5969602 1.5,1.3333336 0,0.7363733 -0.671549,1.3333331 -1.5,1.3333331 H 21 V 20 c 0,2.209201 -2.014649,4 -4.5,4 H 7.5000004 C 5.0147249,24 2.9999999,22.209201 2.9999999,20 V 6.6666666 H 1.5 C 0.67158002,6.6666666 0,6.0697068 0,5.3333335 0,4.5969601 0.67158002,3.9999999 1.5,3.9999999 H 4.4999999 7.5000004 Z M 9.0000005,6.6666666 H 5.9999999 V 20 c 0,0.736401 0.67158,1.333334 1.5000005,1.333334 H 16.5 C 17.32845,21.333334 18,20.736401 18,20 V 6.6666666 H 15 Z M 13.499999,3.9999999 H 10.5 V 2.6666667 h 2.999999 z M 9.0000005,7.9999994 C 9.8284493,7.9999994 10.5,8.5969606 10.5,9.3333339 V 18.666667 C 10.5,19.403068 9.8284493,20 9.0000005,20 8.1715801,20 7.5000004,19.403068 7.5000004,18.666667 V 9.3333339 c 0,-0.7363733 0.6715797,-1.3333345 1.5000001,-1.3333345 z m 5.9999995,0 c 0.82845,0 1.5,0.5969612 1.5,1.3333345 V 18.666667 C 16.5,19.403068 15.82845,20 15,20 14.171549,20 13.499999,19.403068 13.499999,18.666667 V 9.3333339 c 0,-0.7363733 0.67155,-1.3333345 1.500001,-1.3333345 z" style="stroke-width:1.41422" />
</svg>
