<?xml version="1.0" encoding="utf-8"?>
<svg version="1.1" xmlns="http://www.w3.org/2000/svg">
    <symbol id="playlist" viewBox="0 0 1 1">
        <path d="m 0.8525641,0.572784 c 0.08481,0.048753 0.1272205,0.073127 0.1334462,0.1082947 0.00156,0.0088 0.00156,0.017803 0,0.0266 -0.00623,0.035167 -0.048636,0.059541 -0.1334462,0.1082946 -0.08481,0.048748 -0.1272205,0.073122 -0.1609231,0.06091 -0.00844,-0.00306 -0.016262,-0.00756 -0.023138,-0.0133 C 0.641026,0.8406293 0.641026,0.7918803 0.641026,0.694379 c 0,-0.097501 0,-0.1462496 0.027477,-0.1692043 0.00688,-0.00574 0.014702,-0.010247 0.023138,-0.0133 0.033703,-0.012213 0.076113,0.012161 0.1609231,0.0609093 z M 0,0.1582919 C 0,0.1371441 0.01722,0.12 0.0384615,0.12 h 0.923077 C 0.9827795,0.12 1,0.1371441 1,0.1582919 1,0.1794402 0.982779,0.1965843 0.961539,0.1965843 H 0.0384615 C 0.01722,0.1965839 0,0.1794398 0,0.1582919 Z M 0,0.3625154 C 0,0.3413681 0.01722,0.324224 0.038461,0.324224 h 0.923077 c 0.021241,0 0.038461,0.017144 0.038461,0.038291 0,0.021147 -0.017221,0.038292 -0.038461,0.038292 H 0.0384615 C 0.01722,0.4008074 0,0.3836628 0,0.3625154 Z M 0,0.566739 C 0,0.545592 0.01722,0.528448 0.038461,0.528448 h 0.4102564 c 0.021241,0 0.038462,0.017144 0.038462,0.038291 0,0.021147 -0.017221,0.038292 -0.038462,0.038292 H 0.0384615 C 0.01722,0.6050309 0,0.5878864 0,0.566739 Z m 0,0.2042236 c 0,-0.021147 0.01722,-0.038292 0.038461,-0.038292 h 0.4102564 c 0.021241,0 0.038462,0.017145 0.038462,0.038292 0,0.021147 -0.017221,0.038292 -0.038462,0.038292 H 0.0384615 C 0.01722,0.8092545 0,0.7921099 0,0.7709626 Z"/>
    </symbol>

    <symbol id="play" viewBox="0 0 1 1">
        <path d="M 0,0.90015848 Q 0,0.9540412 0.0460251,0.98573693 0.07141827,1 0.09998557,1 0.12220459,1 0.1444236,0.9889065 L 0.94589525,0.58954041 q 0.0238061,-0.0126783 0.0396768,-0.0364501 0.0158706,-0.0237718 0.0142836,-0.0538827 -0.001587,-0.0301109 -0.0142836,-0.0522979 -0.0126966,-0.022187 -0.0396768,-0.0364501 L 0.1444236,0.0110935 Q 0.12220459,0 0.09998557,0 0.07300534,0 0.0460251,0.01426307 0,0.04437401 0,0.09984152 Z"/>
    </symbol>

    <symbol id="edit" viewBox="0 0 1 1">
        <path d="m 0.94793177,0.04356046 c -0.0580816,-0.05808037 -0.15224372,-0.05808087 -0.2103254,0 L 0.65433084,0.12683624 0.26239318,0.51877228 c -0.006353,0.006355 -0.0108603,0.0143172 -0.0130396,0.0230324 l -0.0495746,0.19829933 c -0.004224,0.0168951 7.2622e-4,0.0347668 0.0130396,0.0470762 0.0123134,0.0123144 0.0301845,0.0172669 0.0470786,0.0130431 l 0.19829668,-0.0495748 c 0.00872,-0.002181 0.0166769,-0.006688 0.0230323,-0.0130432 l 0.38908657,-0.38908447 0.0861261,-0.0861268 c 0.0580816,-0.0580804 0.0580816,-0.15224774 0,-0.21032811 z M 0.8077148,0.11366966 c 0.0193589,-0.01935996 0.0507496,-0.01935996 0.0701086,0 l 0.008507,0.008506 c 0.0193589,0.0193605 0.0193589,0.0507497 0,0.0701097 L 0.8359377,0.24267916 0.7588293,0.16255686 Z M 0.68870595,0.23267848 0.76581437,0.3128008 0.42082932,0.65779 0.31600717,0.68399525 0.34221183,0.57917428 Z m -0.58955665,0.073276 c 0,-0.0273792 0.02219557,-0.0495748 0.04957466,-0.0495748 h 0.24787325 c 0.0273801,0 0.0495746,-0.0221951 0.0495746,-0.0495748 0,-0.0273792 -0.0221946,-0.0495748 -0.0495746,-0.0495748 H 0.14872396 C 0.06658619,0.15723006 0,0.22381648 0,0.30595452 V 0.8512756 C 0,0.93341609 0.06658619,1 0.14872396,1 H 0.69404511 C 0.77618541,1 0.84276907,0.93341609 0.84276907,0.8512756 V 0.60340142 c 0,-0.0273752 -0.0221945,-0.0495748 -0.0495746,-0.0495748 -0.0273801,0 -0.0495746,0.0221996 -0.0495746,0.0495748 V 0.8512756 c 0,0.0273801 -0.0221946,0.0495747 -0.0495747,0.0495747 H 0.14872396 c -0.0273791,0 -0.04957466,-0.0221946 -0.04957466,-0.0495747 z"/>
    </symbol>

    <svg id="edit2" viewBox="0 0 1 1">
        <path d="M 0.580474,0.15285933 0.84714,0.419526 0.9447733,0.32189533 C 0.98013333,0.28653267 1,0.23857133 1,0.188562 1,0.084422 0.91558,0 0.81144,0 0.76142667,0 0.71346667,0.01986633 0.67810667,0.05522853 Z M 0.48619267,0.24714067 0,0.73333333 V 1 H 0.26666667 L 0.75286,0.51380733 Z"/>
    </svg>

    <symbol id="delete" viewBox="0 0 1 1">
        <path d="M 0.31250002,0.11111111 C 0.31250002,0.04974611 0.36846435,0 0.43750002,0 h 0.12499996 c 0.0690375,0 0.12500004,0.04974611 0.12500004,0.11111111 v 0.0555555 h 0.125 0.12499996 c 0.0345188,0 0.0625,0.0248733 0.0625,0.0555556 0,0.0306822 -0.0279812,0.0555555 -0.0625,0.0555555 H 0.875 V 0.83333333 C 0.875,0.92538337 0.7910563,1 0.68750002,1 h -0.375 C 0.20894687,1 0.125,0.92538337 0.125,0.83333333 V 0.27777778 H 0.0625 C 0.0279825,0.27777778 0,0.25290445 0,0.22222223 0,0.19154 0.0279825,0.16666666 0.0625,0.16666666 h 0.125 0.12500002 z m 0.0625,0.16666667 H 0.25 v 0.55555555 c 0,0.0306834 0.0279825,0.0555556 0.0625,0.0555556 h 0.375 c 0.0345188,0 0.0625,-0.0248722 0.0625,-0.0555556 V 0.27777778 H 0.625 Z M 0.56249998,0.16666666 H 0.43750002 V 0.11111111 H 0.56249998 Z M 0.37500002,0.33333331 c 0.0345187,0 0.0625,0.0248734 0.0625,0.0555556 v 0.38888888 c 0,0.0306834 -0.0279813,0.0555555 -0.0625,0.0555555 -0.0345175,0 -0.0625,-0.0248722 -0.0625,-0.0555555 V 0.38888891 c 0,-0.0306822 0.0279825,-0.0555556 0.0625,-0.0555556 z m 0.24999998,0 c 0.0345187,0 0.0625,0.0248734 0.0625,0.0555556 v 0.38888888 c 2e-8,0.0306834 -0.0279813,0.0555555 -0.0625,0.0555555 -0.0345188,0 -0.0625,-0.0248722 -0.0625,-0.0555555 V 0.38888891 c 0,-0.0306822 0.0279812,-0.0555556 0.0625,-0.0555556 z"/>
    </symbol>

    <symbol id="user" viewBox="0 0 1 1">
        <path d="m 0.93,0.78571429 c 0,-0.11835 -0.0962555,-0.21428572 -0.215,-0.21428572 h -0.43 c -0.11874091,0 -0.215,0.0959357 -0.215,0.21428572 V 1 H 0.93 Z M 0.5,0.42857143 c 0.11874092,0 0.215,-0.0959393 0.215,-0.21428572 C 0.715,0.09593929 0.61874092,0 0.5,0 0.38125908,0 0.285,0.09593929 0.285,0.21428571 c 0,0.11834643 0.0962591,0.21428572 0.215,0.21428572 z" />/>
    </symbol>

    <symbol id="settings" viewBox="0 0 1 1">
        <path d="M 0.34807056,0.03915 A 0.05105156,0.05 0 0 1 0.39789688,0 h 0.20420625 a 0.05105156,0.05 0 0 1 0.0498263,0.03915 l 0.0224627,0.09905 c 0.0204206,0.0095 0.0398713,0.0205 0.0581988,0.033 l 0.0989379,-0.0305 a 0.05105156,0.05 0 0 1 0.0595261,0.0227 l 0.10210312,0.1732 a 0.05105156,0.05 0 0 1 -0.0097,0.06185 L 0.90703385,0.4671 a 0.4135176,0.405 0 0 1 0,0.0658 l 0.0764242,0.06865 a 0.05105156,0.05 0 0 1 0.0097,0.06185 L 0.89105493,0.8366 A 0.05105156,0.05 0 0 1 0.83152883,0.8593 L 0.73264193,0.8288 c -0.0183786,0.0125 -0.0378292,0.0235 -0.0581988,0.033 l -0.0224627,0.099 A 0.05105156,0.05 0 0 1 0.60210313,1 H 0.39789688 A 0.05105156,0.05 0 0 1 0.34807058,0.96085 L 0.32560788,0.8618 C 0.30518728,0.8523 0.28573658,0.8413 0.26740908,0.8288 L 0.16847118,0.8593 A 0.05105156,0.05 0 0 1 0.10894508,0.8366 L 0.00684197,0.6634 A 0.05105156,0.05 0 0 1 0.01654176,0.60155 L 0.09296593,0.5329 a 0.41336445,0.40485 0 0 1 0,-0.0658 L 0.01654175,0.3985 A 0.05105156,0.05 0 0 1 0.00684196,0.33665 l 0.10210311,-0.1732 a 0.05105156,0.05 0 0 1 0.0595261,-0.0227 l 0.0988869,0.0305 c 0.0183786,-0.0125 0.0378292,-0.0235 0.0581988,-0.033 l 0.0224627,-0.099 z m 0.15192943,0.61084999 a 0.15315467,0.15 0 1 0 0,-0.29999999 0.15315467,0.15 0 0 0 0,0.29999999 z"/>
    </symbol>

    <symbol id="upload" viewBox="0 0 1 1">
        <path d="m 0.44045909,0.0220329 c 0.0341727,-0.02937732 0.0849091,-0.02937723 0.11908182,4.5e-7 l 0.21905454,0.18833734 c 0.0635955,0.0546763 0.0246182,0.15833647 -0.0595364,0.15833647 h -0.0826955 v 0.36073857 c 0,0.049809 -0.0407,0.0901848 -0.0909091,0.0901848 h -0.0909091 c -0.0502077,0 -0.0909091,-0.0403757 -0.0909091,-0.0901848 V 0.36870716 h -0.0826941 c -0.084155,0 -0.12313409,-0.10366016 -0.0595395,-0.15833647 z m 0.0893091,0.0937466 c -0.0170818,-0.0146888 -0.0424545,-0.0146888 -0.0595364,0 L 0.28094224,0.27852241 h 0.10542137 c 0.0376545,0 0.0681818,0.0302827 0.0681818,0.0676386 v 0.38328476 h 0.0909091 v -0.3832848 c 0,-0.0373559 0.0305273,-0.0676386 0.0681818,-0.0676386 H 0.71905904 Z M 1,0.95490762 C 1,0.97981214 0.97965,1 0.9545455,1 H 0.04545455 C 0.02035091,1 0,0.97981214 0,0.95490762 0,0.9300031 0.02035091,0.90981524 0.04545455,0.90981524 h 0.9090909 c 0.0251046,0 0.0454545,0.0201879 0.0454545,0.0450924 z" />/>
    </symbol>

    <symbol id="dropdown" viewBox="0 0 1 1">
        <path d="M 0.50002845,0.92999913 A 0.13554332,0.13384134 0 0 1 0.38487146,0.86655029 l 0.0412888,-0.0249718 -0.0414178,0.024717 L 0.01862708,0.26920126 0.01823999,0.26856423 A 0.13322083,0.13154801 0 0 1 0.0666898,0.08815552 C 0.08694711,0.07649778 0.10991399,0.07025475 0.13339698,0.07 h 0.73326291 a 0.13554332,0.13384134 0 0 1 0.11554407,0.06657029 0.13315632,0.13148432 0 0 1 -3.8708e-4,0.13199394 l -0.3664379,0.59773126 -1.9354e-4,2.548e-4 a 0.13444659,0.13275838 0 0 1 -0.11515699,0.0634488 z"/>
    </symbol>

    <svg id="dropdown2" viewBox="0 0 1 1">
        <path d="m 0.57504433,0.837718 c -0.0325609,0.0430427 -0.11752741,0.0430427 -0.15008841,0 L 0.02472035,0.29761935 C -0.00784222,0.25457324 -0.00843502,0.18434312 0.02412752,0.1412971 0.05669091,0.09825218 0.14224526,0.10026049 0.17480867,0.14330538 L 0.50000125,0.58052816 0.82519156,0.14330538 c 0.0325609,-0.0430449 0.1181216,-0.0450532 0.15068243,-0.002008 0.0325609,0.043046 0.0319669,0.11327614 -5.9166e-4,0.15632222 z"/>
    </svg>

    <symbol id="tv" viewBox="0 0 1 1">
        <path d="m 0.82786885,0.84886794 h -0.6557377 c -0.022623,0 -0.0409836,0.0181735 -0.0409836,0.040566 0,0.0223925 0.0183607,0.040566 0.0409836,0.040566 v 0 h 0.6557377 c 0.022623,0 0.0409836,-0.0181736 0.0409836,-0.040566 0,-0.0223925 -0.0183607,-0.040566 -0.0409836,-0.040566 z M 0.89344262,0.07 H 0.10655738 C 0.0477377,0.07006491 6.557377e-5,0.11725132 0,0.1754717 v 0.51924529 c 6.557377e-5,0.0582204 0.0477377,0.10540679 0.10655738,0.1054717 H 0.89344262 C 0.9522623,0.80015623 0.99996721,0.75293736 1,0.69471699 V 0.1754717 C 0.99993443,0.11725132 0.9522623,0.07006491 0.89344262,0.07 Z m 0.0245902,0.62471699 c 0,0.0134355 -0.0110164,0.0243397 -0.0245902,0.0243397 H 0.10655738 c -0.01357377,0 -0.02459017,-0.0109042 -0.02459017,-0.0243397 V 0.1754717 C 0.082,0.16203623 0.09298361,0.15116453 0.10655738,0.15113207 h 0.78688524 c 0.0135738,0 0.0245902,0.0109042 0.0245902,0.0243396 v 0 z"/>
    </symbol>

    <symbol id="chat" viewBox="0 0 1 1">
        <path d="M 0.1,0.05 C 0.04536348,0.05 0,0.09536348 0,0.15 V 0.7 A 0.050005,0.050005 0 0 0 0.0819336,0.7384765 L 0.24863281,0.6 H 0.25 v 0.1 c 0,0.0546359 0.0453647,0.1 0.1,0.1 H 0.7513672 L 0.9180664,0.93847655 A 0.050005,0.050005 0 0 0 1,0.9 V 0.35 C 1,0.29536468 0.95463655,0.25 0.9,0.25 H 0.75 v -0.1 c 0,-0.05463532 -0.0453634,-0.1 -0.1,-0.1 z m 0,0.1 H 0.65 V 0.3 0.5 H 0.3 0.24863281 c -0.0233381,0 -0.0459805,0.008112 -0.0639648,0.0230469 L 0.1,0.59345705 Z m 0.65,0.2 H 0.9 V 0.79345705 L 0.815332,0.72304685 v 10e-5 C 0.79735105,0.7081988 0.77471955,0.7 0.7513672,0.7 H 0.35 V 0.6 h 0.3 c 0.0546353,0 0.1,-0.0453647 0.1,-0.1 z"/>
    </symbol>

    <symbol id="history" viewBox="0 0 1 1">
        <path d="m 0.17201179,0.17201179 -0.0271964,-0.0271964 v 0 z m -0.0649426,0.0649426 -0.03846102,1.9333e-4 c 1.0564e-4,0.0210903 0.01717692,0.0381615 0.03826769,0.0382677 z m 0.13034769,0.0391169 c 0.0212415,1.0667e-4 0.0385477,-0.0170261 0.0386544,-0.0382677 1.0667e-4,-0.0212415 -0.0170261,-0.0385477 -0.0382677,-0.0386544 z M 0.14487436,0.10622 C 0.14476718,0.08497846 0.12746154,0.06784513 0.10622,0.06795179 0.08497846,0.06805897 0.06784513,0.08536513 0.06795231,0.10660615 Z M 0.07692308,0.5 c 0,-0.021241 -0.01722,-0.0384615 -0.03846154,-0.0384615 C 0.01722,0.46153846 0,0.47875897 0,0.5 Z m 0.67310256,0.43308718 c 0.0183897,-0.0106359 0.0246718,-0.0341641 0.0140359,-0.0525539 -0.0106359,-0.0183846 -0.0341641,-0.0246718 -0.0525487,-0.0140308 z M 0.86650256,0.71151282 c -0.010641,0.0183846 -0.004354,0.0419128 0.0140308,0.0525487 0.0183897,0.0106359 0.0419179,0.004354 0.0525539,-0.0140359 z M 0.14822205,0.14468 c -0.0150949,0.0149451 -0.0152164,0.0392974 -2.7077e-4,0.0543923 0.0149451,0.0150949 0.0392969,0.0152159 0.0543918,2.7077e-4 z M 0.85191282,0.148095 C 0.65600513,-0.04781231 0.33942667,-0.0497959 0.14481538,0.14481538 l 0.0543928,0.0543928 c 0.16405644,-0.16405693 0.43193028,-0.16310359 0.5983149,0.00328 z M 0.14481538,0.144815 0.07987282,0.2097576 0.13426564,0.2641504 0.19920824,0.1992078 Z m -0.0379395,0.1306 0.13054102,6.559e-4 3.8667e-4,-0.076922 L 0.10726254,0.198493 Z M 0.1455303,0.23676103 0.1448744,0.10622 0.06795235,0.10660615 0.06860825,0.23714769 Z M 0.5,0.07692308 c 0.23365641,0 0.42307692,0.18941795 0.42307692,0.42307692 H 1 C 1,0.22385744 0.77614359,0 0.5,0 Z m 0,0.84615384 C 0.26634103,0.92307692 0.07692308,0.73365641 0.07692308,0.5 H 0 C 0,0.77614359 0.22385744,1 0.5,1 Z M 0.71151282,0.86650256 C 0.64932308,0.90247692 0.57712308,0.92307692 0.5,0.92307692 V 1 C 0.5910103,1 0.67644615,0.97565128 0.75002564,0.93308718 Z M 0.92307692,0.5 c 0,0.0771231 -0.0206,0.14932308 -0.0565744,0.21151282 l 0.0665846,0.0385128 C 0.97565128,0.67644615 1,0.59101026 1,0.5 Z M 0.20234308,0.19934308 C 0.2788241,0.12362 0.38392103,0.07692308 0.5,0.07692308 V 0 C 0.36284205,0 0.23851949,0.05527744 0.14822205,0.14468 Z M 0.5,0.25641026 A 0.03846154,0.03846154 0 0 0 0.4615385,0.29487179 V 0.5 a 0.03846538,0.03846538 0 0 0 0.011218,0.0272436 l 0.12820513,0.12820513 a 0.03846154,0.03846154 0 0 0 0.0544872,0 0.03846154,0.03846154 0 0 0 0,-0.0544872 L 0.53846154,0.48407451 V 0.29487179 A 0.03846154,0.03846154 0 0 0 0.5,0.25641026 Z"/>
    </symbol>

    <symbol id="next" viewBox="0 0 1 1">
        <path d="M 0.97402187,0.56069988 0.60080225,0.83467308 C 0.5477829,0.87221203 0.5001822,0.83651065 0.5001822,0.7740332 V 0.5998139 L 0.14838711,0.83467308 C 0.09545112,0.87221203 -4e-7,0.83651065 -4e-7,0.7740332 V 0.2259993 c 0,-0.0624774 0.09545152,-0.0981788 0.14838751,-0.0607274 L 0.5001822,0.4002186 V 0.2259993 c 0,-0.0624774 0.0476007,-0.0981788 0.10062005,-0.0607274 L 0.9600167,0.43933265 c 0.042849,0.0303637 0.0568541,0.0910036 0.0140052,0.12136723"/>
    </symbol>

    <symbol id="shuffle" viewBox="0 0 1 1">
        <path d="m 0.76464849,0.06464145 a 0.05,0.05000088 0 0 0 0,0.07070436 l 0.0646484,0.0646496 h -0.0792968 c -0.046465,0 -0.0718874,-5.5431e-4 -0.0987305,0.004785 -0.0990291,0.0196994 -0.17678709,0.0974553 -0.19648439,0.19648784 -0.005326,0.026818 -0.004785,0.0523121 -0.004785,0.0987321 0,0.0464658 -5.825e-4,0.0675047 -0.002929,0.0792983 -0.0118626,0.0596411 -0.0581311,0.10591251 -0.11777343,0.11777546 -0.0117934,0.002347 -0.0328316,0.00293 -0.0792971,0.00293 h -0.2 A 0.05,0.05000088 0 0 0 4.62796e-8,0.75000486 0.05,0.05000088 0 0 0 0.05000004,0.80000574 h 0.2 c 0.0464655,0 0.0718846,5.5751e-4 0.0987305,-0.004785 0.0990022,-0.0196918 0.17675843,-0.0974005 0.19648438,-0.19639015 v -1e-4 c 0.005326,-0.0268156 0.004785,-0.0523098 0.004785,-0.0987298 0,-0.0464658 5.825e-4,-0.0675047 0.00293,-0.0792983 0.0118626,-0.0596423 0.0581325,-0.10591141 0.11777345,-0.11777553 0.011797,-0.002347 0.0328321,-0.00293 0.079297,-0.00293 h 0.0792968 l -0.0646484,0.0646495 a 0.05,0.05000088 0 0 0 0,0.0707043 0.05,0.05000088 0 0 0 0.0707031,0 l 0.15,-0.15000263 A 0.05,0.05000088 0 0 0 0.99833989,0.25400023 0.05,0.05000088 0 0 0 1,0.24999626 0.05,0.05000088 0 0 0 0.99834,0.24169512 0.05,0.05000088 0 0 0 0.996973,0.23456599 0.05,0.05000088 0 0 0 0.9853519,0.21464374 l -0.15,-0.15000262 a 0.05,0.05000088 0 0 0 -0.0707034,3.3e-7 z M 0.05000004,0.19999538 A 0.05,0.05000088 0 0 0 4.12796e-8,0.24999626 0.05,0.05000088 0 0 0 0.05000004,0.29999714 h 0.2 c 0.0464655,0 0.0675002,5.8311e-4 0.0792969,0.00293 0.002785,5.5411e-4 0.005489,0.001155 0.008203,0.001855 a 0.05,0.05000088 0 0 0 0.0609375,-0.0359381 0.05,0.05000088 0 0 0 -0.0359375,-0.0609386 c -0.004527,-0.001168 -0.009156,-0.002207 -0.0137695,-0.003125 -0.0268424,-0.005339 -0.052265,-0.004785 -0.0987305,-0.004785 z m 0.71464845,0.36465488 a 0.05,0.05000088 0 0 0 0,0.0707043 l 0.0646484,0.0646496 h -0.0792968 c -0.046465,0 -0.0675035,-5.8252e-4 -0.0792968,-0.00293 -0.002793,-5.5551e-4 -0.005516,-0.001162 -0.008203,-0.001856 a 0.05,0.05000088 0 0 0 -0.0609375,0.0359381 0.05,0.05000088 0 0 0 0.0359375,0.0609386 c 0.004553,0.001176 0.009173,0.002211 0.0137695,0.003125 0.0268175,0.005326 0.0523113,0.004785 0.0987305,0.004785 h 0.0792968 l -0.0646484,0.0646495 a 0.05,0.05000088 0 0 0 0,0.0707043 0.05,0.05000088 0 0 0 0.0707031,0 l 0.15,-0.15000264 A 0.05,0.05000088 0 0 0 1,0.75000506 0.05,0.05000088 0 0 0 0.996191,0.73086406 0.05,0.05000088 0 0 0 0.9853512,0.71465286 l -0.15,-0.15000263 a 0.05,0.05000088 0 0 0 -0.0707027,3e-8 z"/>
    </symbol>

    <symbol id="loop" viewBox="0 0 1 1">
        <path d="M 1,0.37307692 V 0.72846154 C 1,0.78446 0.9552,0.83 0.9,0.83 H 0.1 C 0.0448,0.83 0,0.78446 0,0.72846154 V 0.37307692 A 0.1,0.10153846 0 0 1 0.1,0.27153846 H 0.45 V 0.17 l 0.2,0.17769231 -0.2,0.17769231 V 0.42384615 h -0.3 v 0.25384616 h 0.7 V 0.42384615 H 0.7 V 0.27153846 H 0.9 A 0.1,0.10153846 0 0 1 1,0.37307692 Z"/>
    </symbol>

    <symbol id="autoplay" viewBox="0 0 1 1">
        <path d="m 0.32708189,0.03085278 c 0.10292437,-0.03793597 0.21546812,-0.04097247 0.32028687,-0.0086416 0.06525,0.02012612 0.12525525,0.0532621 0.17662138,0.0969586 l 0.0167974,0.0149533 0.0525188,-0.05252059 C 0.93096933,0.04394157 0.99419901,0.06781728 0.99962608,0.11869481 L 1,0.12579678 V 0.37500099 H 0.75079376 c -0.0532603,0 -0.0810855,-0.0615944 -0.0489507,-0.10140802 l 0.004757,-0.005286 0.045725,-0.0457212 c -0.0405125,-0.0368456 -0.0888501,-0.0645968 -0.14179692,-0.0809274 -0.0786156,-0.0242481 -0.16302313,-0.0219706 -0.24021688,0.006481 -0.0771931,0.0284525 -0.14288812,0.0815 -0.18696062,0.15096865 -0.0440731,0.0694687 -0.0640781,0.15150302 -0.0569331,0.23346172 0.007146,0.0819587 0.041045,0.15929239 0.0964744,0.2200861 0.05543,0.0607937 0.12931312,0.10167493 0.21026562,0.11633742 0.0809525,0.0146625 0.16448063,0.0023 0.23771125,-0.0351875 0.0732375,-0.0374812 0.13210625,-0.0980124 0.16755,-0.17225614 0.0148687,-0.03115 0.052175,-0.04435 0.0833312,-0.0294812 0.03115,0.0148687 0.0443438,0.0521812 0.029475,0.0833312 -0.0472562,0.0989874 -0.12575,0.17969362 -0.22339375,0.22968109 -0.09765,0.0499812 -0.20901812,0.0664625 -0.316955,0.0469125 C 0.30294001,0.97243683 0.20442876,0.91793687 0.13052251,0.83687442 0.05661632,0.75581823 0.0114172,0.6527058 0.00188997,0.5434265 -0.00763718,0.43414782 0.01903632,0.32476852 0.07780001,0.23214358 0.13656439,0.13951864 0.22415751,0.06878869 0.32708189,0.03085278 Z m 0.0479181,0.3104451 c 0,-0.0228777 0.0234369,-0.0374007 0.0434437,-0.0287936 l 0.004544,0.002404 0.250225,0.15870176 c 0.0175909,0.0111568 0.0191901,0.0355058 0.004798,0.0490612 l -0.004798,0.003719 -0.250225,0.15870361 c -0.0193201,0.0122513 -0.044137,2.375e-4 -0.0475837,-0.0212693 l -4.0398e-4,-0.005124 z"/>
    </symbol>

    <symbol id="search" viewBox="0 0 1 1">
        <path d="M 0.97978987,0.85662296 0.7097816,0.61558252 0.61601217,0.70929324 0.85718409,0.97915197 c 0.0245231,0.031707 0.0686835,0.0270468 0.10836252,-0.0126094 0.0396615,-0.0396367 0.0459896,-0.0854139 0.0142433,-0.10991961 z M 0.21330395,0.23284515 c -0.0529197,0.0679451 -0.0573092,0.16141758 -0.0132035,0.23362053 0.004186,0.006815 0.0131117,0.00899 0.0199499,0.004805 0.006821,-0.004183 0.008978,-0.0131035 0.004812,-0.0199179 v 1.562e-5 c -0.0378889,-0.0619139 -0.0341033,-0.14250356 0.0113,-0.20072413 0.004937,-0.006305 0.003803,-0.0154257 -0.002525,-0.0203223 -0.006307,-0.004932 -0.0154315,-0.003799 -0.0203334,0.002523 z M 0.65048094,0.57015294 C 0.7524977,0.42973335 0.74026546,0.23160296 0.61367282,0.10507006 c -0.14019682,-0.14009342 -0.36833131,-0.14009342 -0.50851054,0 -0.14021637,0.14012663 -0.14021637,0.36808116 0,0.50820973 0.12659263,0.12651337 0.32484715,0.13873795 0.46533713,0.0368046 l 0.0277947,0.0277402 0.0799639,-0.0799138 z M 0.54394965,0.5436198 c -0.10190732,0.10182398 -0.26715688,0.10184351 -0.36908179,0 -0.10192295,-0.10186109 -0.10192295,-0.26702476 0,-0.36886827 0.10192686,-0.1018435 0.26717447,-0.1018435 0.36908179,0 0.10192295,0.10184351 0.10192295,0.26700718 0,0.36886827 z"/>
    </symbol>

    <symbol id="arrow_down" viewBox="0 0 1 1">
        <path d="M 0.06558434,0.54409291 C 0.07693509,0.5173992 0.10367452,0.49999923 0.13333493,0.49999923 H 0.31142877 V 0.0624999 C 0.31142877,0.02798246 0.33957118,0 0.37428594,0 H 0.6257146 c 0.034716,0 0.0628572,0.02798183 0.0628572,0.0624999 V 0.49999923 H 0.866665 c 0.0296623,0 0.0564017,0.0174 0.0677537,0.0440937 0.0113457,0.0266937 0.005073,0.0574124 -0.0158966,0.0778436 l -0.36666468,0.3571432 c -0.028644,0.0278937 -0.0750703,0.0278937 -0.10371432,0 L 0.08148092,0.62193654 C 0.060508,0.60150532 0.05423359,0.57078662 0.06558434,0.54409291 Z"/>
    </symbol>

    <symbol id="arrow_up" viewBox="0 0 1 1">
        <path d="M 0.07545742,0.45590625 C 0.0865502,0.4826 0.11268192,0.5 0.14166822,0.5 h 0.17404624 v 0.4375 c 0,0.0345188 0.0275028,0.0625 0.0614286,0.0625 H 0.62285741 C 0.65678447,1 0.684286,0.9720188 0.684286,0.9375 V 0.5 h 0.17404562 c 0.0289882,0 0.0551199,-0.0174 0.0662139,-0.0440937 0.0110878,-0.0266938 0.004958,-0.0574125 -0.0155353,-0.0778437 L 0.55067882,0.02092125 c -0.0279931,-0.027895 -0.0733642,-0.027895 -0.10135717,0 L 0.09099271,0.3780625 c -0.02049626,0.0204312 -0.02662806,0.05115 -0.01553529,0.0778437 z"/>
    </symbol>

    <symbol id="thumbnail_play" viewBox="0 0 1 1">
        <path d="M 0.5,0 C 0.2236543,0 0,0.22362695 0,0.5 0,0.77634766 0.22362305,1 0.5,1 0.77634766,1 1,0.77637305 1,0.5 1,0.22365234 0.77637305,0 0.5,0 Z M 0.68015234,0.55550391 0.44520313,0.69125977 c -0.0198203,0.0114531 -0.0442598,0.0114726 -0.0641133,1.757e-5 C 0.36125,0.67982812 0.3490293,0.65866211 0.3490293,0.63575781 V 0.36424414 c 0,-0.0229063 0.0122227,-0.0440703 0.0320605,-0.0555195 0.009914,-0.005723 0.0209785,-0.008584 0.032043,-0.008584 0.0110742,0 0.0221504,0.002867 0.0320703,0.008598 L 0.68015427,0.4444945 c 0.0198223,0.0114531 0.0320312,0.0326094 0.0320312,0.0555039 0,0.0228965 -0.0122109,0.0440508 -0.0320331,0.0555055 z"/>
    </symbol>

    <symbol id="clear" viewBox="0 0 1 1">
        <path d="M 0.50000014,1.412796e-7 C 0.22444986,1.412796e-7 1.412796e-7,0.22444986 1.412796e-7,0.50000014 1.412796e-7,0.77555044 0.22444986,1.0000001 0.50000014,1.0000001 c 0.2755503,0 0.49999996,-0.22444966 0.49999996,-0.49999996 C 1.0000001,0.22444986 0.77555044,1.412796e-7 0.50000014,1.412796e-7 Z m 0,0.0999999887204 c 0.221506,0 0.4,0.17849401 0.4,0.4 0,0.22150601 -0.178494,0.40000001 -0.4,0.40000001 -0.22150599,0 -0.40000001,-0.178494 -0.40000001,-0.4 0,-0.22150599 0.17849402,-0.40000001 0.40000001,-0.40000001 z m 0.15,0.20000001 a 0.05000025,0.05000025 0 0 0 -0.0353515,0.0146484 L 0.31464858,0.61464859 a 0.05000025,0.05000025 0 0 0 0,0.0707031 0.05000025,0.05000025 0 0 0 0.0707031,0 L 0.68535169,0.38535171 a 0.05000025,0.05000025 0 0 0 0,-0.0707031 0.05000025,0.05000025 0 0 0 -0.0353516,-0.0146485 z m -0.3,0 a 0.05,0.05 0 0 0 -0.0353516,0.0146484 0.05,0.05 0 0 0 0,0.0707031 l 0.30000001,0.29999999 a 0.05,0.05 0 0 0 0.0707031,0 0.05,0.05 0 0 0 0,-0.0707031 L 0.38535171,0.31464858 a 0.05,0.05 0 0 0 -0.0353516,-0.0146484 z"/>
    </symbol>

    <symbol id="video" viewBox="0 0 1 1">
        <path d="m 0.20989344,0.15012171 c -0.0559546,0 -0.0908268,-0.002604 -0.12791207,0.016303 -0.02819405,0.014373 -0.05120101,0.0373924 -0.06556592,0.0656021 -0.01889617,0.0371056 -0.0162939212,0.0719966 -0.0162939212,0.12798285 v 0.27998038 c 0,0.0559857 -0.002603859,0.090876 0.0162939212,0.1279828 0.01436438,0.0282067 0.03736597,0.0512293 0.06556592,0.065602 0.03708524,0.0189067 0.071957,0.0163033 0.12791207,0.0163033 h 0.32978094 c 0.0559547,0 0.0908255,0.002607 0.12791214,-0.0163033 0.0281967,-0.0143733 0.0512017,-0.03739 0.0655661,-0.065602 0.0122833,-0.0241167 0.009887,-0.054508 0.0106333,-0.0831743 l 0.0587362,0.0353393 c 0.0396213,0.0237867 0.0620658,0.045102 0.10605681,0.0410013 0.0284033,-0.002647 0.054344,-0.0173133 0.0712248,-0.040318 0.0261533,-0.035636 0.0194167,-0.065939 0.0194167,-0.11216781 V 0.39134619 c 0,-0.0462313 0.00674,-0.076532 -0.0194167,-0.1121678 -0.0168833,-0.0230067 -0.0428263,-0.0376693 -0.0712248,-0.040318 -0.043997,-0.004103 -0.0664363,0.0172133 -0.10605681,0.0410013 L 0.743786,0.31520104 C 0.74303867,0.28653434 0.745433,0.25614304 0.7331527,0.23202674 0.7187894,0.20381004 0.6957775,0.18079694 0.6675866,0.16642464 0.6305003,0.14751634 0.5956291,0.15012164 0.53967446,0.15012164 Z m 0,0.0999651 h 0.32978094 c 0.0559547,0 0.0768878,0.002583 0.0825428,0.005467 0.009407,0.004793 0.0170667,0.0124633 0.0218567,0.0218667 0.002883,0.00566 0.005463,0.0266033 0.005463,0.0825882 v 0.27998037 c 0,0.0559857 -0.002582,0.0769306 -0.005463,0.0825887 -0.004787,0.009403 -0.0124567,0.0170767 -0.0218567,0.0218667 -0.005653,0.002883 -0.0265867,0.005467 -0.0825428,0.005467 H 0.20989344 c -0.0559551,0 -0.0768845,-0.002582 -0.0825428,-0.005467 -0.009399,-0.00479 -0.017063,-0.0124567 -0.0218553,-0.0218667 -0.002882,-0.005657 -0.005464,-0.0266033 -0.005464,-0.0825887 v -0.2799807 c 0,-0.055986 0.002581,-0.076927 0.005464,-0.0825881 0.004792,-0.00941 0.0124503,-0.0170733 0.0218553,-0.0218667 0.005658,-0.002885 0.0265884,-0.005467 0.0825428,-0.005467 z m 0.68941785,0.0882507 c -0.006777,-0.00923 0,0.006777 0,0.053009 v 0.2173071 c 0,0.046229 -0.00677,0.062234 0,0.053009 0.01139,-0.001062 -0.005753,-0.003453 -0.0453693,-0.0272367 L 0.74944649,0.57165484 V 0.42834532 l 0.10449581,-0.062771 c 0.0396183,-0.0237867 0.0567657,-0.0261733 0.045369,-0.0272368 z"/>
    </symbol>

    <symbol id="audio" viewBox="0 0 1 1">
        <path d="M 0.94140625,0 0.34179688,0.1015625 A 0.05000495,0.05000495 0 0 0 0.30078128,0.1503906 V 0.35742186 0.7285156 c -0.0311,-0.0141823 -0.0635728,-0.0292969 -0.1015625,-0.0292969 -0.0504283,0 -0.095901,0.0144551 -0.1328125,0.0390625 C 0.02949477,0.76288864 0,0.80172838 0,0.84960938 0,0.89749038 0.02949476,0.93828321 0.06640625,0.96289063 0.10331774,0.98749804 0.1487905,1 0.19921875,1 0.24964705,1 0.29707285,0.987498 0.33398438,0.9628906 0.37089588,0.9382832 0.40039068,0.8974904 0.40039068,0.84960935 V 0.390625 l 0.5,-0.0820313 v 0.31835937 c -0.0309753,-0.0140248 -0.0618355,-0.0273438 -0.0996094,-0.0273438 -0.0504292,0 -0.0978542,0.0125017 -0.13476563,0.0371094 -0.0369114,0.0246076 -0.0664063,0.065401 -0.0664063,0.11328125 10e-9,0.0478802 0.0294949,0.0886736 0.0664063,0.11328125 0.0369114,0.0246076 0.0843364,0.0371094 0.13476563,0.0371094 0.0504292,0 0.0959011,-0.0125018 0.1328125,-0.0371094 C 0.97050513,0.83867364 1,0.79788023 1,0.75 V 0.2421875 0.05078125 A 0.05000495,0.05000495 0 0 0 0.94140625,0 Z m -0.0410156,0.109375 v 0.0976563 l -0.5,0.0839844 V 0.1914063 Z m -0.0996094,0.58984375 c 0.0324157,0 0.0607477,0.009899 0.078125,0.0214844 0.0173773,0.0115849 0.0214844,0.021947 0.0214844,0.0292969 0,0.00735 -0.004107,0.017712 -0.0214844,0.0292969 -0.0173773,0.0115849 -0.0457093,0.0214844 -0.078125,0.0214844 -0.0324157,0 -0.0627008,-0.009899 -0.0800781,-0.0214844 C 0.7033258,0.76771198 0.69921875,0.75734983 0.69921875,0.75 c 0,-0.00735 0.004107,-0.017712 0.0214844,-0.0292969 0.0173773,-0.0115849 0.0476625,-0.0214844 0.0800781,-0.0214844 z m -0.6015625,0.1015625 c 0.0324142,0 0.0627003,0.007946 0.0800781,0.0195313 0.0173779,0.0115851 0.0214844,0.0219478 0.0214844,0.0292969 0,0.007349 -0.004107,0.0177117 -0.0214844,0.0292969 -0.0173779,0.0115851 -0.047664,0.0214844 -0.0800781,0.0214844 -0.0324142,0 -0.0607471,-0.009899 -0.078125,-0.0214844 -0.0173779,-0.0115851 -0.02148438,-0.0219478 -0.02148438,-0.0292969 0,-0.007349 0.0041065,-0.0177117 0.02148438,-0.0292969 0.0173779,-0.0115851 0.0457109,-0.0195313 0.078125,-0.0195313 z"/>
    </symbol>

    <symbol id="subtitles" viewBox="0 0 1 1">
        <path d="m 0.2109375,0.09960937 c -0.0559921,0 -0.091797,-0.001329 -0.12890625,0.01757813 C 0.05381833,0.13156081 0.02999983,0.15342893 0.015625,0.18164062 -0.00328442,0.21874903 0,0.25455801 0,0.31054688 v 0.37890624 c 0,0.0559884 -0.00328591,0.0917965 0.015625,0.12890626 0.01437441,0.0282098 0.03818827,0.0500803 0.06640625,0.0644531 0.03710928,0.0189084 0.07291354,0.0175782 0.12890625,0.0175781 h 0.578125 c 0.0559919,0 0.0917953,0.001332 0.12890625,-0.0175781 0.0282199,-0.0143721 0.0520325,-0.0362378 0.0664063,-0.0644531 C 1.0032854,0.78125001 1,0.74544189 1,0.68945312 V 0.31054688 C 1,0.25455848 1.0032845,0.21874925 0.984375,0.18164062 0.97000022,0.15342294 0.9461779,0.13156031 0.91796875,0.1171875 0.88085831,0.09827858 0.8450547,0.09960937 0.7890625,0.09960937 Z m 0,0.09960938 h 0.578125 c 0.0559922,0 0.078325,0.002976 0.0839844,0.005859 0.009412,0.004796 0.0166937,0.0120802 0.0214844,0.0214844 0.002885,0.005661 0.005859,0.027996 0.005859,0.0839844 v 0.37890624 c 0,0.0559888 -0.002976,0.0783257 -0.005859,0.0839844 -0.004791,0.009405 -0.0120833,0.0166965 -0.0214844,0.0214844 -0.005659,0.002884 -0.0279925,0.005859 -0.0839844,0.005859 h -0.578125 c -0.0559927,1.1e-7 -0.0783213,-0.002974 -0.0839844,-0.005859 -0.009406,-0.004791 -0.0166894,-0.0120742 -0.0214844,-0.0214844 -0.002883,-0.005658 -0.0058594,-0.027996 -0.0058594,-0.0839844 V 0.31054688 c 0,-0.0559889 0.0029748,-0.0783236 0.0058594,-0.0839844 0.004795,-0.00941 0.012073,-0.0166897 0.0214844,-0.0214844 0.005663,-0.002885 0.0279923,-0.005859 0.0839844,-0.005859 z m 0.13476563,0.125 c -0.0967608,0 -0.16992188,0.0869193 -0.16992188,0.18554687 0,0.0986277 0.0731612,0.18554688 0.16992188,0.18554688 0.0444331,0 0.085649,-0.0195448 0.11523437,-0.0488281 a 0.04998695,0.04998695 0 0 0 0,-0.0703125 0.04998695,0.04998695 0 0 0 -0.0703125,0 C 0.3777799,0.5888858 0.3623128,0.5957032 0.3457031,0.5957032 c -0.0361726,0 -0.0703125,-0.0354894 -0.0703125,-0.0859375 0,-0.050448 0.0341399,-0.0839844 0.0703125,-0.0839844 0.0166101,0 0.0320767,0.004864 0.0449219,0.0175781 a 0.04998695,0.04998695 0 0 0 0.0703125,0 0.04998695,0.04998695 0 0 0 0,-0.0703125 C 0.43135202,0.34376331 0.39013599,0.32421875 0.34570313,0.32421875 Z m 0.34960937,0 c -0.0967598,0 -0.16992187,0.0869191 -0.16992188,0.18554687 0,0.0986279 0.0731622,0.18554688 0.16992188,0.18554688 0.044434,0 0.0856491,-0.0195449 0.11523438,-0.0488281 a 0.04998695,0.04998695 0 0 0 0,-0.0703125 0.04998695,0.04998695 0 0 0 -0.0703125,0 c -0.0128451,0.012714 -0.0283099,0.0195313 -0.0449219,0.0195313 -0.0361698,0 -0.0703125,-0.0354896 -0.0703125,-0.0859375 0,-0.0504478 0.0341427,-0.0839844 0.0703125,-0.0839844 0.0166119,0 0.0320776,0.004865 0.0449219,0.0175781 a 0.04998695,0.04998695 0 0 0 0.0703125,0 0.04998695,0.04998695 0 0 0 0,-0.0703125 C 0.78096119,0.3437627 0.73974602,0.32421875 0.6953125,0.32421875 Z"/>
    </symbol>

    <symbol id="image" viewBox="0 0 1 1">
        <path d="m 0.23448541,2.0813055e-4 c -0.0621863,0 -0.10130406,-0.003429601 -0.14251881,0.0175708195 C 0.06063316,0.03374334 0.03374336,0.06063122 0.01777874,0.0919668 -0.0032219,0.13318188 2.0792361e-4,0.17229988 2.0792361e-4,0.23448559 v 0.53102889 c 0,0.0365031 7.4382136e-4,0.0641464 0.003904626,0.0898064 0.00222297,0.0180573 0.00499662,0.0356952 0.01366619,0.0527125 0.01596408,0.0313301 0.04284779,0.0582232 0.07418786,0.0741879 0.04121508,0.0210016 0.08033249,0.0175707 0.14251881,0.0175707 h 0.53102897 c 0.0363253,0 0.0642521,-7.9433e-4 0.0898064,-0.003904 0.0181797,-0.002209 0.0355616,-0.004923 0.0527125,-0.0136662 0.0313367,-0.0159639 0.0582239,-0.0428511 0.0741879,-0.0741879 0.021002,-0.0412164 0.0175707,-0.0803331 0.0175707,-0.14251896 V 0.74989598 0.23448559 c 0,-0.0621857 0.003429,-0.10130371 -0.0175708,-0.14251879 C 0.96625647,0.06062635 0.93936331,0.03374293 0.90803318,0.01777895 0.86681685,-0.0032232 0.82770009,2.0813055e-4 0.76551438,2.0813055e-4 Z m 0,0.11128178945 h 0.53102897 c 0.0621857,0 0.087426,0.002654 0.093711,0.005857 0.0104527,0.005326 0.0181068,0.012982 0.0234277,0.0234277 0.003204,0.006288 0.005857,0.0315253 0.005857,0.093711 v 0.3904628 c -0.0196932,-0.0183465 -0.0393109,-0.0421982 -0.0644263,-0.0507602 -0.0335938,-0.0114537 -0.0696127,-0.0126366 -0.10347256,-0.001952 -0.0360518,0.0113755 -0.06227,0.0389668 -0.093711,0.0702832 L 0.5722354,0.58785405 c -0.0446881,-0.0443217 -0.0706521,-0.073784 -0.11518643,-0.087854 -0.0338176,-0.0106816 -0.0698876,-0.0114165 -0.10347255,0 -0.0442177,0.0150319 -0.0695158,0.0464892 -0.11323412,0.0917587 v -0.001952 L 0.11148972,0.71670667 V 0.23448559 c 0,-0.0621857 0.002653,-0.0874227 0.005857,-0.093711 0.005325,-0.0104505 0.012975,-0.0181021 0.0234277,-0.0234277 0.006288,-0.003205 0.0315247,-0.005857 0.093711,-0.005857 z m 0.43146103,0.0546647 c -0.0913284,0 -0.16594655,0.0765722 -0.16594655,0.16789885 0,0.0913277 0.0746191,0.16594652 0.16594655,0.16594652 0.0913275,0 0.16789887,-0.0746188 0.16789887,-0.16594652 0,-0.0913266 -0.0765703,-0.16789885 -0.16789887,-0.16789885 z m 0,0.11128179 c 0.0313221,0 0.056617,0.0252967 0.056617,0.056617 0,0.0313239 -0.0252939,0.0546647 -0.056617,0.0546647 -0.031323,0 -0.0546648,-0.023341 -0.0546648,-0.0546647 0,-0.0313206 0.0233428,-0.056617 0.0546648,-0.056617 z M 0.38871809,0.60542489 c 0.0111984,-0.003806 0.0238564,-0.003565 0.0351417,0 0.006742,0.00213 0.0255986,0.0162033 0.0702833,0.0605217 l 0.0917586,0.0917587 0.13080492,0.13080492 h -0.4822212 c -0.0621863,0 -0.0874227,-0.002653 -0.093711,-0.005857 -0.007835,-0.003991 -0.0124477,-0.0105253 -0.0175708,-0.0175708 L 0.31843485,0.66985118 a 0.05552345,0.05552344 0 0 0 0.001952,-0.001952 c 0.043718,-0.045269 0.0616276,-0.0601951 0.0683312,-0.0624743 z m 0.36508241,0.0722355 c 0.0112876,-0.003562 0.0239216,-0.003825 0.0351417,0 0.006688,0.00228 0.0246219,0.0190406 0.068331,0.0644263 a 0.05552345,0.05552344 0 0 0 0.001952,0 l 0.0292847,0.0292847 c -3.2348e-4,0.0538595 -0.002854,0.0819604 -0.005857,0.087854 -0.004434,0.008705 -0.0113901,0.014237 -0.0195232,0.0195232 L 0.7069453,0.7206113 C 0.7268338,0.7024297 0.7492346,0.6791012 0.7538005,0.67766039 Z"/>
    </symbol>

    <symbol id="copy" viewBox="0 0 1 1">
        <path d="m 0.00170145,0.28152018 c 0,-0.0514094 0.0403008,-0.0912161 0.10099417,-0.0912161 0.0606934,0 0.18521601,-0.001378 0.18521601,-0.001378 0,0 -0.001901,-0.0428207 -0.001901,-0.09728083 C 0.28601146,0.03719705 0.33540323,0 0.3946187,0 c 0.0592279,0 0.35262266,0.00245652 0.38141072,0.00245652 0.028788,0 0.0521427,0.01053059 0.0844143,0.03473441 0.0322655,0.02421606 0.0810487,0.06469052 0.10520434,0.09165716 C 0.9898037,0.15581469 1,0.17155859 1,0.19380819 c 0,0.0222557 0,0.47081961 -3.7258e-4,0.52279256 -3.6637e-4,0.0519791 -0.0489136,0.0904013 -0.10639659,0.091161 -0.057483,7.5962e-4 -0.18091891,7.5962e-4 -0.18091891,7.5962e-4 0,0 0.002894,0.0384406 0.002894,0.0928089 0,0.0543682 -0.0503356,0.0968581 -0.10753295,0.098359 C 0.55048157,1.00119 0.16092376,0.99668742 0.10540926,0.99818829 0.04989474,0.99968916 0,0.95656827 0,0.90371317 0,0.85085807 0.00170145,0.33292342 0.00170145,0.28152018 Z m 0.10391272,0.0241732 -0.0071535,0.56881718 a 0.02459032,0.02425895 0 0 0 0.0245779,0.0245775 l 0.45897578,0.001348 a 0.0240004,0.02367698 0 0 0 0.0242798,-0.0243692 l -0.001353,-0.0544724 a 0.01234483,0.01217848 0 0 0 -0.012705,-0.0119641 c 0,0 -0.13578078,0.003921 -0.19726278,0.001795 -0.0614882,-0.002132 -0.10352772,-0.0416997 -0.10354635,-0.095051 -1.862e-5,-0.0533513 1.863e-5,-0.42356367 1.863e-5,-0.42356367 a 0.01235105,0.01218461 0 0 0 -0.0124629,-0.0122091 l -0.14823117,5.0233e-4 a 0.02531685,0.02497569 0 0 0 -0.0251374,0.0245895 z M 0.76699434,0.08970297 c -0.0103453,-0.0088827 -0.0187284,-0.0051458 -0.0187284,0.0084049 v 0.10570407 c 0,0.006775 0.005552,0.0122949 0.0124007,0.0123316 l 0.12958351,6.1873e-4 c 0.0136861,6.739e-5 0.0163998,-0.007082 0.006061,-0.0159644 z m -0.35771459,0.0051887 a 0.01243178,0.01226425 0 0 0 -0.0125435,0.01217848 l -0.003887,0.58987836 a 0.01843032,0.01818196 0 0 0 0.0184924,0.0183596 l 0.46696763,-0.001139 a 0.01275468,0.0125828 0 0 0 0.0126925,-0.0123255 l 0.007874,-0.38239085 a 0.01211508,0.01195182 0 0 0 -0.012171,-0.0122765 c 0,0 -0.16251964,2.5729e-4 -0.19115246,2.5729e-4 -0.0286328,0 -0.0467899,-0.013612 -0.0467899,-0.0397087 0,-0.0260968 -5.4645e-4,-0.15906151 -5.4645e-4,-0.15906151 A 0.01262427,0.01245415 0 0 0 0.63570316,0.09630067 l -0.22642963,-0.001409 z"/>
    </symbol>

    <symbol id="accept" viewBox="0 0 1 1">
        <path d="m 0.46360887,1.1055036e-4 c -0.0509024,0 -0.082626,-0.00236741 -0.11636277,0.0148227196 C 0.3215976,0.02800116 0.3006681,0.04893067 0.2876002,0.07457916 0.2704101,0.10831594 0.2727775,0.14003953 0.2727775,0.19094191 V 0.2727775 H 0.1909419 c -0.0509024,0 -0.082626,-0.002367 -0.11636274,0.0148227 C 0.04893067,0.3006681 0.02800115,0.3215976 0.01493326,0.3472461 -0.00225687,0.3809829 1.105445e-4,0.4127065 1.105445e-4,0.46360887 v 0.34544911 c 0,0.0509024 -0.002368745,0.082625 0.0148227155,0.11636276 0.01306742,0.0256455 0.03399217,0.0465781 0.0596459,0.0596459 0.03373677,0.017191 0.06545991,0.0148227 0.11636274,0.0148227 h 0.34544913 c 0.0509024,0 0.0826247,0.002369 0.11636275,-0.0148227 0.0256507,-0.0130673 0.0465786,-0.0339952 0.0596459,-0.0596459 0.0171924,-0.0337381 0.0148227,-0.0654604 0.0148227,-0.11636276 v -0.0818356 h 0.0818356 c 0.0509024,0 0.0826247,0.002369 0.11636275,-0.0148227 0.0256507,-0.0130673 0.0465786,-0.0339952 0.0596459,-0.0596459 0.0171924,-0.0337381 0.0148227,-0.0654604 0.0148227,-0.11636275 V 0.19094191 c 0,-0.0509024 0.002369,-0.0826257 -0.0148227,-0.11636275 C 0.97199879,0.04892544 0.95106624,0.02800069 0.92542073,0.01493327 0.89168292,-0.0022582 0.85996035,1.1055036e-4 0.80905798,1.1055036e-4 Z m 0,0.0908889796 h 0.34544911 c 0.0509024,0 0.0699454,0.0023491 0.0750899,0.0049705 0.008556,0.0043596 0.0155264,0.01133143 0.019882,0.01988196 0.002623,0.005147 0.00497,0.0241875 0.00497,0.0750899 v 0.34544914 c 0,0.0509024 -0.002349,0.0699457 -0.00497,0.0750899 -0.004356,0.008551 -0.0113312,0.0155259 -0.019882,0.019882 -0.005144,0.002621 -0.0241876,0.00497 -0.0750899,0.00497 H 0.7272224 V 0.46360888 c 0,-0.0509024 0.002369,-0.0826257 -0.0148227,-0.11636277 C 0.69933185,0.32159238 0.6783993,0.30066764 0.65275379,0.28760021 0.61901598,0.27040875 0.58729341,0.2727775 0.53639104,0.2727775 H 0.36366648 V 0.1909419 c 0,-0.0509024 0.002348,-0.0699426 0.00497,-0.0750899 0.004359,-0.008556 0.0113262,-0.0155228 0.019882,-0.01988196 0.005147,-0.0026227 0.0241876,-0.0049705 0.0750904,-0.0049705 z M 0.19094191,0.36366648 h 0.12728008 0.21816905 c 0.0509024,0 0.0699454,0.002349 0.0750899,0.00497 0.008556,0.00436 0.0155264,0.0113314 0.019882,0.019882 0.002623,0.005147 0.00497,0.0241876 0.00497,0.0750899 v 0.21816904 0.12728007 c 0,0.0509024 -0.002349,0.0699457 -0.00497,0.0750899 -0.004356,0.008551 -0.0113312,0.0155259 -0.019882,0.019882 -0.005144,0.002621 -0.0241876,0.00497 -0.0750899,0.00497 H 0.19094191 c -0.0509028,0 -0.0699426,-0.002348 -0.0750899,-0.00497 -0.008551,-0.004355 -0.0155223,-0.011326 -0.01988196,-0.019882 -0.0026214,-0.005144 -0.0049705,-0.0241876 -0.0049705,-0.0750899 V 0.46360888 c 0,-0.0509024 0.0023477,-0.0699426 0.0049705,-0.0750899 0.0043592,-0.008556 0.0113262,-0.0155228 0.01988196,-0.019882 0.005147,-0.002623 0.0241875,-0.00497 0.0750899,-0.00497 z M 0.5227222,0.47727772 A 0.04544449,0.04544449 0 0 0 0.4905915,0.49059154 L 0.31822195,0.66296109 0.25946365,0.60420277 a 0.04544449,0.04544449 0 0 0 -0.0642613,0 0.04544449,0.04544449 0 0 0 0,0.0642613 l 0.090889,0.090889 a 0.04544903,0.04544904 0 0 0 0.0642614,0 l 0.2045002,-0.20450021 a 0.04544449,0.04544449 0 0 0 0,-0.0642613 0.04544449,0.04544449 0 0 0 -0.0321307,-0.0133138 z"/>
    </symbol>

    <symbol id="link" viewBox="0 0 1 1">
        <path d="M 0.35669438,0.73169375 0.73169375,0.35669438 0.64330625,0.26830563 0.26830563,0.64330625 Z m 0.11427624,0.08395 L 0.59911187,0.6875 0.6875,0.7758875 0.55935937,0.90403125 C 0.49791,0.96548125 0.4145675,1 0.327665,1 0.14670062,1 0,0.8533 0,0.6723375 0,0.58543313 0.03452169,0.50209 0.09597063,0.44064063 L 0.22411187,0.3125 0.3125,0.40088813 0.18435937,0.52902937 C 0.14635187,0.56703625 0.125,0.618585 0.125,0.6723375 0.125,0.7842625 0.21573625,0.875 0.327665,0.875 c 0.05375,0 0.10529875,-0.02135 0.14330562,-0.0593563 z m -0.03033,-0.71967312 C 0.50209,0.03452175 0.5854325,0 0.6723375,0 0.8533,0 1,0.14670062 1,0.327665 1,0.4145675 0.96548125,0.49791 0.90403125,0.55935937 L 0.7758875,0.6875 0.6875,0.59911187 0.81564375,0.47097062 C 0.85365,0.43296375 0.875,0.381415 0.875,0.327665 0.875,0.21573625 0.7842625,0.125 0.6723375,0.125 0.618585,0.125 0.56703625,0.14635187 0.52902937,0.18435937 L 0.40088813,0.3125 0.3125,0.22411187 Z"/>
    </symbol>

    <symbol id="title" viewBox="0 0 1 1">
        <path d="M 0.4974509,8.4882799e-7 C 0.4563667,8.4882799e-7 0.4028107,-6.9136016e-5 0.35905352,0.00106184 0.32168128,0.00202781 0.28336599,0.00397777 0.24875579,0.00863181 0.21747139,0.0128381 0.18604499,0.01960033 0.15677759,0.03163636 0.12982319,0.04271963 0.10430959,0.05840688 0.0813591,0.08135833 0.0598375,0.10287982 0.04356471,0.1277704 0.03163611,0.15677693 0.02036492,0.18418453 0.01322321,0.21461775 0.00863248,0.24875508 0.00432629,0.2807725 0.00214617,0.31712063 0.00106097,0.35905293 6.0002559e-6,0.3998742 0,0.4452181 0,0.4974501 c 0,0.001667 0,0.003373 0,0.005102 0,0.050853 -4.0110533e-6,0.0971711 0.00106097,0.13839719 0.00105999,0.0409811 0.00318972,0.0777184 0.00757154,0.11029784 0.00447458,0.0332784 0.01149696,0.0639946 0.02300363,0.0919781 0.01159357,0.0281924 0.02762161,0.053319 0.04972299,0.0754196 0.02224059,0.0222406 0.04742705,0.0382113 0.07541849,0.049722 0.0281525,0.0115769 0.0589569,0.0185637 0.0919771,0.0230047 0.0327854,0.004407 0.0696676,0.006518 0.11029774,0.007568 0.0413822,0.00107 0.0881294,0.001061 0.13839737,0.001061 0.001764,0 0.003471,0 0.005101,0 0.0496241,0 0.0968261,1.29e-5 0.13839738,-0.001061 0.0402993,-0.001042 0.0773215,-0.003135 0.11029774,-0.007568 0.0327934,-0.00441 0.0636768,-0.0113674 0.0919792,-0.0230056 0.0278285,-0.0114425 0.053066,-0.0273664 0.0754196,-0.049721 0.0219966,-0.0219956 0.0380673,-0.0470779 0.049722,-0.0754205 0.011458,-0.0278643 0.0185053,-0.0585208 0.0230054,-0.0919761 0.004362,-0.0324555 0.006503,-0.0691016 0.007567,-0.11029762 C 1.000002,0.59983529 1,0.55376736 1,0.50255335 1,0.50084226 1,0.49913679 1,0.49745157 1,0.44568349 0.99999699,0.40001953 0.998939,0.35905439 0.997864,0.31746116 0.995702,0.280975 0.991372,0.24875654 0.986826,0.2149512 0.9797291,0.18440986 0.9683666,0.15677738 0.9565798,0.12811588 0.9404131,0.10312743 0.9186455,0.08135878 0.8960219,0.05873537 0.8706633,0.04291943 0.8432249,0.03163579 0.8145253,0.01983366 0.7834262,0.01295948 0.7512467,0.00863214 0.71768226,0.00412098 0.68021793,0.00207802 0.64094874,0.00106218 0.59876847,-2.8805576e-5 0.54989554,1.1863212e-6 0.50255136,1.1863212e-6 c -0.002047,0 -0.00378,0 -0.0051,-3.3749321e-7 z m 0,0.044443131172 c 0.001322,0 0.003054,0 0.005101,0 0.047523,0 0.0957551,-2.599e-5 0.13719733,0.001046 0.0386752,9.9997e-4 0.0742985,0.0029913 0.10549796,0.0071886 0.0299465,0.0040274 0.0570098,0.01019792 0.0809975,0.02006049 0.0226475,0.0093126 0.0428911,0.02203954 0.0608959,0.04004514 0.0173216,0.0173209 0.0303285,0.0372671 0.0400452,0.0608948 0.009479,0.0230484 0.0158418,0.049622 0.0200611,0.0809984 0.004024,0.0299405 0.006129,0.0646258 0.007185,0.1054979 0.001041,0.0402633 0.001046,0.0853112 0.001046,0.13719721 0,0.001685 0,0.003391 0,0.005102 0,0.051362 -1.99e-6,0.0968111 -0.001046,0.1371972 -0.001048,0.0405253 -0.003132,0.0753635 -0.007188,0.10549791 -0.004179,0.0310684 -0.0105006,0.0577438 -0.0200611,0.0809963 -0.00961,0.0233715 -0.0225425,0.0433931 -0.0400442,0.0608958 -0.0177902,0.0177892 -0.0379362,0.0306024 -0.0608969,0.0400441 -0.0236375,0.00972 -0.050512,0.0159614 -0.0809983,0.0200617 -0.0306653,0.004122 -0.0658648,0.00616 -0.10549796,0.007186 -0.0408642,0.001056 -0.0874384,0.001047 -0.13719732,0.001047 -0.001631,0 -0.003338,0 -0.005101,0 -0.050423,0 -0.0965452,6e-6 -0.13719732,-0.001046 -0.0399812,-0.001034 -0.0750465,-0.00309 -0.10549795,-0.007186 -0.0306864,-0.004128 -0.0574909,-0.0103948 -0.0809965,-0.0200617 -0.0230895,-0.009495 -0.0431951,-0.0223444 -0.0608938,-0.0400441 C 0.09527486,0.8694769 0.08237812,0.84941833 0.0728163,0.82616673 0.0632118,0.80281017 0.0569129,0.77608375 0.05275515,0.74516937 0.04868395,0.71488194 0.04661055,0.67995555 0.04556645,0.63967146 c -0.001048,-0.0405233 -0.001046,-0.0862194 -0.001046,-0.1371972 0,-0.001729 0,-0.003436 0,-0.005102 0,-0.0523729 8e-6,-0.0971021 0.001046,-0.13719721 0.001066,-0.0412281 0.0031898,-0.0757805 0.0071887,-0.1054979 0.0042588,-0.0316695 0.01066442,-0.0581478 0.02006115,-0.0809974 0.0098305,-0.0239034 0.02292161,-0.0437721 0.04004524,-0.0608958 0.0182669,-0.01826738 0.0386352,-0.03089131 0.0608949,-0.04004514 0.0245386,-0.01009105 0.0518411,-0.01613926 0.0809975,-0.02005947 0.0322332,-0.0043334 0.0686706,-0.0062357 0.10549796,-0.0071886 0.0430342,-0.001113 0.0959142,-0.001047 0.137199,-0.0010468 z M 0.15995748,0.15994165 c 0.004756,-0.004756 0.0104237,-0.009599 0.0173811,-0.0141772 0.005946,-0.003914 0.0130344,-0.007771 0.0217457,-0.0113576 0.015034,-0.006188 0.0351192,-0.0116875 0.0645088,-0.0156394 0.0263765,-0.003547 0.0579559,-0.005604 0.099322,-0.006641 0.0382792,-9.5997e-4 0.0814675,-9.9898e-4 0.13709743,-9.9898e-4 0.050923,0 0.0974651,5e-6 0.13709744,9.9898e-4 0.0382253,9.5898e-4 0.0711036,0.002847 0.099322,0.006641 0.0268615,0.003612 0.0477581,0.008743 0.0645077,0.0156394 0.008165,0.003361 0.0153301,0.007135 0.0217467,0.0113576 0.006345,0.004175 0.0120684,0.008864 0.0173832,0.0141792 0.005271,0.005272 0.00997,0.0109877 0.0141791,0.0173801 0.004189,0.006363 0.007971,0.0135173 0.0113593,0.0217466 0.006776,0.0164613 0.0119655,0.0372054 0.0156341,0.0645068 0.003732,0.0277624 0.005662,0.0602956 0.006643,0.099323 9.8297e-4,0.0391881 9.9998e-4,0.0845633 9.9998e-4,0.13709722 0,0.053593 -2.401e-5,0.098222 -9.9998e-4,0.13709722 -9.9498e-4,0.0396811 -0.002959,0.0719386 -0.006643,0.099321 -0.00373,0.0277535 -0.008982,0.048344 -0.0156363,0.0645088 -0.00342,0.008307 -0.007214,0.0154477 -0.0113573,0.0217456 -0.004252,0.00646 -0.008967,0.0121717 -0.0141791,0.0173821 -0.005212,0.005212 -0.010922,0.009927 -0.0173832,0.0141792 -0.006297,0.004146 -0.0134392,0.007939 -0.0217457,0.0113596 -0.0161644,0.006653 -0.0367553,0.0119048 -0.0645067,0.0156354 -0.0273844,0.003681 -0.0596418,0.005647 -0.0993241,0.006641 -0.0388852,9.7498e-4 -0.0835143,9.9899e-4 -0.13709744,9.9899e-4 -0.052545,0 -0.0979211,-1.601e-5 -0.13709723,-9.9899e-4 -0.0390281,-9.7899e-4 -0.0715605,-0.002908 -0.0993218,-0.006641 -0.0273034,-0.00367 -0.048046,-0.008858 -0.0645088,-0.0156354 -0.008229,-0.003388 -0.0153834,-0.007171 -0.0217457,-0.0113596 -0.006392,-0.004209 -0.0121115,-0.008908 -0.0173811,-0.0141772 -0.005315,-0.005313 -0.0100023,-0.0110394 -0.0141791,-0.0173842 -0.004224,-0.006416 -0.007997,-0.0135805 -0.0113593,-0.0217466 -0.006895,-0.0167479 -0.0120272,-0.0376451 -0.0156383,-0.0645078 -0.003794,-0.0282185 -0.005682,-0.0610957 -0.006641,-0.099322 -9.9498e-4,-0.0396423 -0.001,-0.0861842 -0.001,-0.13709723 0,-0.0556408 3.902e-5,-0.098829 0.001,-0.13709721 0.001038,-0.0413652 0.003095,-0.0729446 0.006641,-0.0993211 0.00395,-0.0293894 0.00945,-0.049475 0.0156383,-0.0645088 0.003586,-0.008714 0.007444,-0.0157994 0.0113593,-0.0217456 0.004579,-0.006957 0.009421,-0.0126261 0.014179,-0.0173819 z m -0.0314265,-0.0314264 c -0.006618,0.006619 -0.0134413,0.0146001 -0.0198742,0.0243725 -0.005499,0.008354 -0.01068136,0.017965 -0.0153321,0.0292634 -0.0080034,0.0194411 -0.01427358,0.0434192 -0.01858759,0.0755045 -0.003852,0.0286415 -0.0059661,0.0620147 -0.0070249,0.10409787 -9.7599e-4,0.0389431 -0.001013,0.0827162 -0.001013,0.13819722 0,0.050754 2e-6,0.0979061 0.001013,0.13819722 9.7398e-4,0.0388252 0.0029141,0.0735585 0.0070249,0.10409787 0.0039153,0.0291195 0.0097559,0.0540489 0.01858759,0.0755035 0.0043491,0.0105613 0.0094147,0.0202744 0.0153321,0.0292643 0.005863,0.00891 0.0124712,0.0169692 0.0198742,0.0243725 0.007344,0.007345 0.0153937,0.0139658 0.0243717,0.0198755 0.008918,0.00587 0.0186184,0.0109505 0.0292646,0.0153331 0.0211196,0.008694 0.045871,0.014602 0.0755055,0.0185855 0.0300905,0.004047 0.0644627,0.006029 0.10409796,0.007024 0.0398582,9.9997e-4 0.0858353,0.001014 0.13819741,0.001014 0.053444,0 0.098669,-2.102e-5 0.1381972,-0.001014 0.0403492,-0.001012 0.0744335,-0.003031 0.10409795,-0.007024 0.0301614,-0.004052 0.0547341,-0.0100359 0.0755035,-0.0185855 0.0107526,-0.004426 0.0204352,-0.00952 0.0292656,-0.0153331 0.009072,-0.005974 0.0171119,-0.0126143 0.0243724,-0.0198755 0.007261,-0.007262 0.0139036,-0.0152995 0.0198762,-0.0243725 0.005812,-0.00883 0.0109073,-0.0185124 0.0153321,-0.0292643 0.00855,-0.0207697 0.0145326,-0.0453422 0.0185855,-0.0755046 0.003993,-0.0296945 0.006011,-0.0637787 0.007025,-0.10409787 9.9199e-4,-0.0395543 0.001014,-0.0847783 0.001014,-0.13819722 0,-0.0523878 -1.4e-5,-0.0983661 -0.001014,-0.13819721 C 0.93122863,0.32208746 0.9292446,0.28771513 0.9251986,0.25765472 0.9212176,0.22802225 0.9153096,0.20327073 0.9066131,0.18215119 0.9022291,0.1715044 0.8971511,0.16180462 0.891279,0.15288693 0.885368,0.14390848 0.8787483,0.13585848 0.8714028,0.1285144 0.8639998,0.12111093 0.8559392,0.11450517 0.8470301,0.10864078 0.8380401,0.1027234 0.8283275,0.09765425 0.8177666,0.09330767 0.796313,0.08447548 0.7713826,0.07863448 0.7422631,0.07472023 0.7116927,0.07061069 0.6769584,0.06867236 0.63816515,0.06769812 c -0.0403161,-0.001012 -0.0874682,-0.001014 -0.1381972,-0.001014 -0.0555071,0 -0.0992801,3.701e-5 -0.1381974,0.001014 -0.0421151,0.001056 -0.0754876,0.0031713 -0.10409795,0.0070221 -0.0320853,0.0043132 -0.056064,0.01058492 -0.0755045,0.01858744 -0.0112997,0.0046518 -0.0209085,0.0098346 -0.0292643,0.01533311 -0.009773,0.006434 -0.0177531,0.0132545 -0.0243728,0.0198745 z m 0.28049455,0.0937211 c -0.008338,-2.01e-6 -0.0187438,-1.601e-5 -0.0281685,2.7898e-4 -0.00846,2.64e-4 -0.0177922,8.11e-4 -0.0266755,0.00214 -0.009098,0.001359 -0.0197652,0.0038 -0.0305215,0.008706 -0.0100893,0.004602 -0.0204044,0.0114406 -0.0296665,0.0217296 -0.008455,0.009396 -0.014327,0.0197827 -0.0183306,0.0306053 -0.003767,0.0101799 -0.005755,0.0203836 -0.006918,0.0300003 -0.002029,0.0167716 -0.002031,0.0365602 -0.002029,0.0589638 0,0.00819 0,0.016651 0,0.0253514 0,0.007581 0.001532,0.0149083 0.004375,0.0216306 0.002801,0.006623 0.006852,0.0126083 0.0118978,0.0176509 0.004984,0.004985 0.0109503,0.009064 0.0176524,0.011897 0.006641,0.002808 0.0139612,0.004375 0.0216305,0.004375 0.007592,0 0.014919,-0.001536 0.0216315,-0.004375 0.006631,-0.002806 0.012613,-0.006858 0.0176524,-0.011897 0.00499,-0.004992 0.009066,-0.0109584 0.0118978,-0.0176509 0.002811,-0.006647 0.004375,-0.0139698 0.004375,-0.0216306 0,-0.0077 0,-0.0155267 0,-0.0234565 0,-0.0120274 1.499e-5,-0.0216365 1.8899e-4,-0.0295315 1.74e-4,-0.00785 4.98e-4,-0.013539 0.001036,-0.0179788 2.4101e-4,-0.001991 4.82e-4,-0.003307 6.5599e-4,-0.004101 1.6999e-4,-7.6899e-4 2.6501e-4,-9.6997e-4 1.5501e-4,-6.7098e-4 -7.3e-5,1.96e-4 -3.7101e-4,9.6698e-4 -9.9798e-4,0.002037 -3.26e-4,5.5499e-4 -7.2798e-4,0.00117 -0.001216,0.001816 -2.43e-4,3.1998e-4 -4.7799e-4,6.1096e-4 -6.9899e-4,8.7197e-4 -2.13e-4,2.5099e-4 -4.0201e-4,4.5999e-4 -3.86e-4,4.4199e-4 a 0.02015278,0.02541599 2.4354379 0 0 6.3699e-4,-7.3698e-4 c 1.101e-5,-1.401e-5 -6.7899e-4,8.4597e-4 -0.001692,0.001816 -0.00109,0.001044 -0.002148,0.001839 -0.003047,0.002432 -8.1799e-4,5.3998e-4 -0.001496,9.0497e-4 -0.001852,0.00109 -3.7399e-4,1.94e-4 -6.5298e-4,3.2298e-4 -7.5598e-4,3.7e-4 -9.3698e-4,4.2898e-4 -0.001421,5.4797e-4 -0.001327,5.2298e-4 9.401e-5,-2.6e-5 7.5698e-4,-1.94e-4 0.002076,-3.9099e-4 0.003218,-4.8098e-4 0.007637,-8.1099e-4 0.0143928,-9.9397e-4 0.006733,-1.82e-4 0.0151347,-2.05e-4 0.0261665,-2.05e-4 0.011139,0 0.0222535,0 0.0333333,0 0,0.0970741 0,0.21569564 0,0.33329325 -0.0186534,0 -0.0371792,0 -0.0555549,0 -0.007652,0 -0.0149745,0.00156 -0.0216305,0.004375 -0.006684,0.002827 -0.0126541,0.006898 -0.0176524,0.011897 -0.005032,0.005031 -0.009088,0.0110113 -0.0118977,0.0176509 -0.002834,0.006703 -0.004375,0.014029 -0.004375,0.0216306 0,0.007659 0.001562,0.0149814 0.004375,0.0216315 0.002831,0.00669 0.006904,0.0126577 0.0118977,0.0176509 0.005035,0.005037 0.0110158,0.009091 0.0176524,0.011897 0.006708,0.002837 0.0140352,0.004375 0.0216305,0.004375 0.0831634,0 0.1646968,0 0.24439524,0 0.007586,0 0.0149128,-0.001534 0.0216305,-0.004375 0.006626,-0.002803 0.012611,-0.006857 0.0176525,-0.011897 0.004988,-0.004987 0.009063,-0.010955 0.0118977,-0.0176509 0.002809,-0.006643 0.004375,-0.0139658 0.004375,-0.0216305 0,-0.007596 -0.001537,-0.0149221 -0.004375,-0.0216315 C 0.681712,0.6939272 0.677658,0.687944 0.6726203,0.6829093 0.6676263,0.6779163 0.6616576,0.6738423 0.6549678,0.6710123 0.6483168,0.6681983 0.6409942,0.6666373 0.6333373,0.6666373 c -0.0256465,0 -0.051586,0 -0.0777766,0 0,-0.0951161 0,-0.21369568 0,-0.33329326 0.0110633,0 0.0221766,0 0.0333322,0 0.0110158,0 0.0194302,2.3e-5 0.0261685,2.05e-4 0.006749,1.8199e-4 0.0111718,5.1199e-4 0.0143907,9.9298e-4 0.002785,4.1598e-4 0.002502,6.7198e-4 7.4898e-4,-1.3e-4 -1.1999e-4,-5.599e-5 -3.9999e-4,-1.85e-4 -7.6998e-4,-3.7799e-4 -3.5599e-4,-1.8501e-4 -0.001021,-5.45e-4 -0.001826,-0.001075 -8.8598e-4,-5.8399e-4 -0.001908,-0.001352 -0.002962,-0.002348 -9.7297e-4,-9.1999e-4 -0.001623,-0.00171 -0.001586,-0.001668 a 0.00309915,1.3677367e-4 51.185215 0 0 5.7897e-4,6.5797e-4 c -3.9e-5,-4.198e-5 -2.5799e-4,-2.7799e-4 -4.8698e-4,-5.4899e-4 -2.3999e-4,-2.7998e-4 -4.8499e-4,-5.8297e-4 -7.3199e-4,-9.0898e-4 -4.96e-4,-6.5497e-4 -9.0098e-4,-0.001273 -0.001225,-0.001826 -6.2399e-4,-0.001064 -9.1998e-4,-0.001828 -9.9198e-4,-0.002022 -2.36e-4,-6.36e-4 3.2399e-4,7.9598e-4 7.9897e-4,0.004741 5.37e-4,0.00444 8.6199e-4,0.0101248 0.001036,0.0179848 1.7299e-4,0.007888 1.91e-4,0.0174829 1.91e-4,0.0295315 0,0.007905 0,0.0157302 0,0.0234564 0,0.007654 0.00156,0.0149775 0.004375,0.0216306 0.002828,0.006687 0.006902,0.0126558 0.0118978,0.0176509 0.005033,0.005033 0.0110136,0.009089 0.0176504,0.011897 0.006704,0.002835 0.0140311,0.004375 0.0216295,0.004375 0.007662,0 0.0149826,-0.001564 0.0216316,-0.004375 0.006692,-0.002832 0.0126602,-0.006906 0.0176524,-0.011897 0.005037,-0.005039 0.009093,-0.0110214 0.0118978,-0.0176509 0.002841,-0.006713 0.004375,-0.0140389 0.004375,-0.0216306 0,-0.008647 0,-0.0171075 0,-0.0253545 0,-0.0221155 1.1e-5,-0.0421122 -0.002028,-0.0589597 -0.001156,-0.009545 -0.003132,-0.0197716 -0.006918,-0.0300013 -0.003971,-0.0107278 -0.009816,-0.0211425 -0.0183306,-0.0306054 -0.009181,-0.0102002 -0.0194528,-0.01707 -0.0296666,-0.0217295 -0.0106384,-0.004854 -0.0212466,-0.00732 -0.0305223,-0.008706 -0.008744,-0.001306 -0.0179772,-0.001867 -0.0266745,-0.00214 -0.009279,-2.8999e-4 -0.0193213,-2.8098e-4 -0.0281713,-2.7899e-4 -0.0685907,0 -0.12959747,0 -0.18198854,1.01e-6 z m -3e-6,0.0444431 c 0.052412,0 0.11339789,0 0.18199655,0 0.009037,-10e-7 0.0183348,-6e-6 0.0267774,2.5801e-4 0.007956,2.4799e-4 0.0152293,7.3598e-4 0.0214975,0.001672 0.006614,9.8699e-4 0.0129295,0.002578 0.0186431,0.005185 0.005316,0.002427 0.0104282,0.00586 0.0150792,0.0110282 0.004324,0.004804 0.007429,0.0102035 0.009685,0.0162973 0.002206,0.005959 0.003584,0.0125451 0.004478,0.0199186 0.001647,0.013614 0.001705,0.0306384 0.001705,0.0536199 0,0.008247 0,0.0167084 0,0.0253534 0,0.001567 -3.1099e-4,0.003012 -8.6398e-4,0.004318 -5.5199e-4,0.001306 -0.001368,0.002515 -0.00239,0.003539 -0.001017,0.001017 -0.002219,0.001833 -0.003539,0.002391 -0.001292,5.47e-4 -0.002736,8.64e-4 -0.004316,8.64e-4 -0.00157,0 -0.003012,-3.13e-4 -0.004318,-8.64e-4 -0.001308,-5.5298e-4 -0.002518,-0.001369 -0.003539,-0.002391 -0.001018,-0.001018 -0.001833,-0.002221 -0.00239,-0.003539 -5.4697e-4,-0.001294 -8.6297e-4,-0.002738 -8.6297e-4,-0.004318 0,-0.007727 0,-0.0155525 0,-0.0234565 0,-0.0119405 -1.301e-5,-0.0220445 -1.9999e-4,-0.0305143 -1.8701e-4,-0.008386 -5.51e-4,-0.0157579 -0.001347,-0.0223375 -7.4299e-4,-0.006144 -0.001809,-0.0109719 -0.003258,-0.0148786 -6.0999e-4,-0.001639 -0.001363,-0.003336 -0.002345,-0.005007 -5.03e-4,-8.5499e-4 -0.00106,-0.001696 -0.001681,-0.002518 -3.1097e-4,-4.0799e-4 -6.1098e-4,-7.7897e-4 -8.9696e-4,-0.001114 -2.8501e-4,-3.3499e-4 -5.19e-4,-5.89e-4 -6.07e-4,-6.8398e-4 l 5.2499e-4,5.8798e-4 c 6e-6,5.99e-6 -6.7299e-4,-8.1797e-4 -0.001685,-0.001774 -0.001091,-0.001032 -0.002162,-0.001839 -0.003115,-0.002468 -8.7298e-4,-5.76e-4 -0.001629,-9.88e-4 -0.002108,-0.001236 -4.94e-4,-2.57e-4 -9.2599e-4,-4.61e-4 -0.001231,-6.0099e-4 -0.003255,-0.001491 -0.007339,-0.002622 -0.0126993,-0.003422 -0.005872,-8.7698e-4 -0.0123869,-0.001266 -0.0197612,-0.001465 -0.007442,-2.0099e-4 -0.0164645,-2.2098e-4 -0.0273686,-2.2098e-4 -0.0186492,0 -0.0371813,0 -0.0555549,0 a 0.0222218,0.02222176 0 0 0 -0.0222216,0.0222216 c 0,0.12709749 0,0.25319489 0,0.37779236 a 0.02222177,0.02222179 0 0 0 0.0222216,0.0222216 c 0.0337564,0 0.0671187,0 0.099998,0 0.00158,0 0.003024,3.16e-4 0.004318,8.6398e-4 0.001319,5.58e-4 0.002522,0.001372 0.003539,0.002391 0.001022,0.001022 0.001838,0.002233 0.00239,0.003539 5.5199e-4,0.001305 8.6398e-4,0.002751 8.6398e-4,0.004318 0,0.001582 -3.1498e-4,0.003025 -8.6398e-4,0.004318 -5.5798e-4,0.00132 -0.001374,0.002523 -0.00239,0.003539 -0.001024,0.001024 -0.002232,0.001838 -0.003539,0.002391 -0.001307,5.52e-4 -0.002751,8.6299e-4 -0.004318,8.6299e-4 -0.0797094,0 -0.16129682,0 -0.24439524,0 -0.001568,0 -0.003012,-3.1099e-4 -0.004318,-8.6399e-4 -0.001307,-5.5298e-4 -0.002515,-0.001368 -0.003539,-0.002391 -0.001017,-0.001017 -0.001833,-0.002221 -0.00239,-0.003539 -5.4698e-4,-0.001293 -8.6398e-4,-0.002737 -8.6398e-4,-0.004318 0,-0.001569 3.13e-4,-0.003014 8.6398e-4,-0.004318 5.5299e-4,-0.001308 0.001369,-0.002518 0.00239,-0.003539 0.001018,-0.001018 0.002221,-0.001833 0.003539,-0.002391 0.001294,-5.4698e-4 0.00274,-8.6398e-4 0.004318,-8.6398e-4 0.0256535,0 0.0516,0 0.0777766,0 a 0.0222218,0.02222176 0 0 0 0.0222216,-0.0222216 c 0,-0.12489753 0,-0.25099492 0,-0.37779236 a 0.0222218,0.02222176 0 0 0 -0.0222242,-0.022222 c -0.018419,0 -0.0369503,0 -0.0555548,0 -0.0109198,0 -0.0199296,2.1e-5 -0.0273665,2.2101e-4 -0.007382,2e-4 -0.0138955,5.8898e-4 -0.019759,0.001465 -0.002748,4.1001e-4 -0.005103,9e-4 -0.007148,0.001455 -0.002041,5.5399e-4 -0.003872,0.0012 -0.005527,0.001956 -3.13e-4,1.4401e-4 -7.4798e-4,3.48e-4 -0.001245,6.0701e-4 -4.7899e-4,2.4898e-4 -0.001247,6.6597e-4 -0.002133,0.001252 -9.6898e-4,6.39e-4 -0.002073,0.001473 -0.003202,0.002553 -7.4299e-4,7.1098e-4 -0.00132,0.001367 -0.001601,0.001696 -3.999e-5,4.7e-5 -8.198e-5,9.598e-5 -1.2497e-4,1.4699e-4 -2.6801e-4,3.16e-4 -5.5901e-4,6.7498e-4 -8.6199e-4,0.001077 -6.1199e-4,8.0899e-4 -0.001165,0.001645 -0.001668,0.002503 -9.8399e-4,0.001678 -0.001736,0.003378 -0.002339,0.005005 -7.3598e-4,0.001988 -0.001356,0.004166 -0.001882,0.006559 -5.3299e-4,0.002421 -9.9198e-4,0.005167 -0.001371,0.008305 -7.9699e-4,0.006586 -0.00116,0.0139638 -0.001347,0.0223355 -1.88e-4,0.008477 -2.01e-4,0.0185973 -2.01e-4,0.0305143 0,0.007929 0,0.015756 0,0.0234565 0,0.001581 -3.1699e-4,0.003025 -8.6398e-4,0.004318 -5.5798e-4,0.001318 -0.001374,0.002521 -0.00239,0.003539 -0.001023,0.001023 -0.002232,0.001838 -0.003539,0.002391 -0.001305,5.5199e-4 -0.00275,8.6398e-4 -0.004318,8.6398e-4 -0.001583,0 -0.003027,-3.1798e-4 -0.004318,-8.6398e-4 -0.001321,-5.5899e-4 -0.002524,-0.001375 -0.003539,-0.002391 -0.001024,-0.001024 -0.001838,-0.002234 -0.00239,-0.003539 -5.5198e-4,-0.001307 -8.6398e-4,-0.002753 -8.6398e-4,-0.004318 0,-0.008699 0,-0.0171628 0,-0.0253534 -9.9e-7,-0.0232366 6.902e-5,-0.0400771 0.001708,-0.0536228 8.9798e-4,-0.007419 0.002284,-0.0139894 0.004477,-0.0199157 0.002273,-0.006143 0.005393,-0.0115275 0.009685,-0.0162973 0.00469,-0.005212 0.009821,-0.008629 0.0150772,-0.011027 0.005785,-0.00264 0.0121115,-0.004209 0.0186431,-0.005185 0.006382,-9.5297e-4 0.0137352,-0.00143 0.0214965,-0.001673 0.008583,-2.68e-4 0.0182259,-2.5799e-4 0.0267813,-2.5404e-4 z m 0.0884704,-0.24439506 c -0.10259806,0 -0.18299642,-9.9e-7 -0.24569522,0.0084328 -0.0642097,0.0086331 -0.11489779,0.02664745 -0.15459695,0.06641675 -0.03976817,0.03976829 -0.05778277,0.09043413 -0.06641577,0.15459693 -0.008435,0.0627309 -0.008435,0.1430971 -0.0084328,0.24569504 v 0.005102 c -1e-6,0.10259794 -1e-6,0.1829964 0.0084328,0.24569503 0.0086317,0.0642076 0.0266476,0.11489759 0.06641577,0.15459693 0.03976919,0.0397672 0.09043512,0.0577808 0.15459695,0.0664157 0.0627308,0.008432 0.14309729,0.008432 0.24569522,0.008432 h 0.005101 c 0.10259807,0 0.18299643,0 0.24569523,-0.008432 0.0642076,-0.008636 0.11489779,-0.0266484 0.15459695,-0.0664157 0.0397682,-0.0397683 0.057781,-0.0904381 0.0664167,-0.15459693 0.008432,-0.0627325 0.008432,-0.14309674 0.008432,-0.24569467 v -0.005102 c 0,-0.10259794 0,-0.18299638 -0.008431,-0.24569504 C 0.96066674,0.18752148 0.94265444,0.13683368 0.90288622,0.09713434 0.86311801,0.05736506 0.812448,0.03935043 0.74828927,0.03071764 0.68555748,0.02228443 0.60519198,0.02228443 0.50259405,0.02228443 Z M 0.14429983,0.1442819 c 0.0253174,-0.0253174 0.0595708,-0.0398461 0.11639772,-0.04748508 0.0577758,-0.0077668 0.13369746,-0.0078388 0.23939532,-0.0078388 0.10569795,0 0.1815964,7e-5 0.23939535,0.0078388 0.0568168,0.0076386 0.0910692,0.02216757 0.11639772,0.04748508 0.0253195,0.0253174 0.0398482,0.0595707 0.0474831,0.11639771 0.007768,0.0577758 0.007841,0.13369726 0.007841,0.23939514 0,0.10569793 -7.098e-5,0.18159626 -0.007841,0.23939517 -0.007635,0.056816 -0.0221635,0.0910692 -0.0474831,0.11639771 -0.0253195,0.0253196 -0.0595719,0.0398472 -0.11639772,0.047483 -0.0577768,0.007769 -0.13369746,0.00784 -0.23939535,0.00784 -0.10569796,0 -0.18159639,-7.098e-5 -0.23939532,-0.00784 -0.0568168,-0.007635 -0.0910703,-0.0221635 -0.11639772,-0.047483 C 0.1189824,0.83054821 0.10445346,0.7962949 0.09681481,0.73946992 0.08904644,0.68169311 0.08897638,0.60577266 0.08897638,0.50007475 c 0,-0.10569793 7.101e-5,-0.18159626 0.0078384,-0.23939514 0.0076395,-0.0568169 0.02216759,-0.0910702 0.04748505,-0.11639771 z m 0.26479485,0.10019791 c -0.0191054,-3.01e-6 -0.0369652,-6.01e-6 -0.051557,0.002173 -0.0164829,0.002461 -0.0334183,0.008283 -0.0469552,0.0233235 -0.0130836,0.0145387 -0.0177017,0.0318624 -0.0197056,0.0484099 -0.001872,0.0154674 -0.00187,0.0346404 -0.001868,0.056292 v 0.0253534 c 0,0.0184096 0.0149231,0.0333323 0.0333322,0.0333323 0.0184087,0 0.0333325,-0.0149241 0.0333325,-0.0333323 v -0.0234566 c 0,-0.0241295 5.8e-5,-0.0392041 0.001386,-0.050181 6.2298e-4,-0.005149 0.001402,-0.008117 0.002032,-0.009819 5.3099e-4,-0.001435 9.1098e-4,-0.001856 0.001037,-0.001996 l 3.599e-5,-4.199e-5 c 6.1e-5,-7.301e-5 1.05e-4,-1.26e-4 5.0599e-4,-3.1e-4 7.3899e-4,-3.3699e-4 0.002635,-0.001032 0.006716,-0.001642 0.009072,-0.001354 0.0218466,-0.001442 0.0438421,-0.001442 h 0.0555538 V 0.6889369 h -0.0777768 c -0.0184087,0 -0.0333322,0.0149241 -0.0333322,0.0333323 0,0.0184077 0.0149231,0.0333323 0.0333322,0.0333323 H 0.6334009 c 0.0184087,0 0.0333322,-0.0149241 0.0333322,-0.0333323 0,-0.0184096 -0.0149231,-0.0333323 -0.0333322,-0.0333323 H 0.53340412 V 0.31114456 h 0.0555538 c 0.0219955,0 0.0347734,8.799e-5 0.0438441,0.001442 0.004079,6.0999e-4 0.005979,0.001304 0.006716,0.001642 3.9999e-4,1.84e-4 4.4397e-4,2.3699e-4 5.0699e-4,3.1e-4 l 2.6e-5,3.5e-5 c 1.2898e-4,1.3999e-4 5.1099e-4,5.6798e-4 0.001044,0.002001 6.3098e-4,0.001701 0.001409,0.004668 0.002031,0.009819 0.001329,0.0109764 0.001386,0.0260525 0.001386,0.050181 v 0.0234565 c 0,0.0184077 0.0149251,0.0333323 0.0333332,0.0333323 0.0184067,0 0.0333322,-0.0149241 0.0333322,-0.0333323 v -0.0253534 c 0,-0.0216505 4e-6,-0.0408252 -0.001867,-0.056292 -0.002003,-0.0165483 -0.006621,-0.0338714 -0.0197057,-0.048409 -0.0135379,-0.0150407 -0.0304703,-0.0208616 -0.0469542,-0.0233245 -0.0145922,-0.002179 -0.0324535,-0.002178 -0.0515589,-0.002173 z"/>
    </symbol>
</svg>
