<?xml version="1.0" encoding="utf-8"?>
<svg version="1.1" xmlns="http://www.w3.org/2000/svg">
    <symbol id="playlist" viewBox="0 0 24 24">
        <path fill-rule="evenodd" clip-rule="evenodd" d="M2.25 6C2.25 5.58579 2.58579 5.25 3 5.25H21C21.4142 5.25 21.75 5.58579 21.75 6C21.75 6.41421 21.4142 6.75 21 6.75H3C2.58579 6.75 2.25 6.41421 2.25 6ZM2.25 10C2.25 9.58579 2.58579 9.25 3 9.25H21C21.4142 9.25 21.75 9.58579 21.75 10C21.75 10.4142 21.4142 10.75 21 10.75H3C2.58579 10.75 2.25 10.4142 2.25 10ZM2.25 14C2.25 13.5858 2.58579 13.25 3 13.25H11C11.4142 13.25 11.75 13.5858 11.75 14C11.75 14.4142 11.4142 14.75 11 14.75H3C2.58579 14.75 2.25 14.4142 2.25 14ZM2.25 18C2.25 17.5858 2.58579 17.25 3 17.25H11C11.4142 17.25 11.75 17.5858 11.75 18C11.75 18.4142 11.4142 18.75 11 18.75H3C2.58579 18.75 2.25 18.4142 2.25 18Z"/>
        <path d="M18.875 14.1184C20.5288 15.0733 21.3558 15.5507 21.4772 16.2395C21.5076 16.4118 21.5076 16.5882 21.4772 16.7605C21.3558 17.4493 20.5288 17.9267 18.875 18.8816C17.2212 19.8364 16.3942 20.3138 15.737 20.0746C15.5725 20.0148 15.4199 19.9266 15.2858 19.8141C14.75 19.3645 14.75 18.4097 14.75 16.5C14.75 14.5903 14.75 13.6355 15.2858 13.1859C15.4199 13.0734 15.5725 12.9852 15.737 12.9254C16.3942 12.6862 17.2212 13.1636 18.875 14.1184Z"/>
    </symbol>

    <symbol id="play" viewBox="0 0 32 32">
        <path d="M5.92 24.096q0 1.088 0.928 1.728 0.512 0.288 1.088 0.288 0.448 0 0.896-0.224l16.16-8.064q0.48-0.256 0.8-0.736t0.288-1.088-0.288-1.056-0.8-0.736l-16.16-8.064q-0.448-0.224-0.896-0.224-0.544 0-1.088 0.288-0.928 0.608-0.928 1.728v16.16z"/>
    </symbol>

    <symbol id="edit" viewBox="0 0 24 24">
        <path fill-rule="evenodd" clip-rule="evenodd" d="m 22.747372,1.0470306 c -1.393775,-1.39603485 -3.653369,-1.39604676 -5.047146,0 l -1.99835,2.0016381 -9.4052675,9.4206763 c -0.1524636,0.152762 -0.2606134,0.344132 -0.3129099,0.553614 l -1.1896352,4.766374 c -0.1013563,0.406094 0.017427,0.835663 0.3129097,1.131536 0.2954818,0.295992 0.7243334,0.415032 1.1297372,0.313508 l 4.7584947,-1.191593 c 0.209256,-0.05243 0.400193,-0.160747 0.552703,-0.313509 L 20.88476,8.3771398 22.951514,6.306973 c 1.393775,-1.3960348 1.393775,-3.6594661 0,-5.0555009 z m -3.364765,1.6851629 c 0.464553,-0.465341 1.217831,-0.465341 1.682384,0 l 0.204141,0.2044416 c 0.464552,0.465353 0.464552,1.219834 0,1.685175 L 20.059868,5.8330884 18.209509,3.9072474 Z M 16.52677,5.5927202 18.377129,7.5185611 10.098576,15.810811 7.5831751,16.440687 8.2120044,13.921183 Z M 2.3792705,7.3540021 c 0,-0.6580931 0.5326235,-1.1915932 1.1896353,-1.1915932 h 5.948176 c 0.6570352,0 1.1896352,-0.5334881 1.1896352,-1.1915931 0,-0.6580932 -0.5326,-1.1915933 -1.1896352,-1.1915933 H 3.5689058 C 1.5978585,3.7792225 0,5.379711 0,7.3540021 V 20.461481 c 0,1.97435 1.5978585,3.574778 3.5689058,3.574778 H 16.654893 c 1.971107,0 3.568906,-1.600428 3.568906,-3.574778 v -5.957968 c 0,-0.657997 -0.532599,-1.191592 -1.189635,-1.191592 -0.657035,0 -1.189635,0.533595 -1.189635,1.191592 v 5.957968 c 0,0.658116 -0.5326,1.191591 -1.189636,1.191591 H 3.5689058 c -0.6570118,0 -1.1896353,-0.533475 -1.1896353,-1.191591 z" style="stroke-width:1.19061" />
    </symbol>

    <symbol id="edit2" viewBox="0 0 16 16">
        <path d="M8.29289 3.70711L1 11V15H5L12.2929 7.70711L8.29289 3.70711Z"/>
        <path d="M9.70711 2.29289L13.7071 6.29289L15.1716 4.82843C15.702 4.29799 16 3.57857 16 2.82843C16 1.26633 14.7337 0 13.1716 0C12.4214 0 11.702 0.297995 11.1716 0.828428L9.70711 2.29289Z"/>
    </symbol>

    <symbol id="delete" viewBox="0 0 24 24">
        <path fill-rule="evenodd" clip-rule="evenodd" d="M 7.5000004,2.6666667 C 7.5000004,1.1939067 8.8431444,0 10.5,0 h 2.999999 C 15.156901,0 16.5,1.1939067 16.5,2.6666667 v 1.3333332 h 3 3 c 0.828451,0 1.5,0.5969602 1.5,1.3333336 0,0.7363733 -0.671549,1.3333331 -1.5,1.3333331 H 21 V 20 c 0,2.209201 -2.014649,4 -4.5,4 H 7.5000004 C 5.0147249,24 2.9999999,22.209201 2.9999999,20 V 6.6666666 H 1.5 C 0.67158002,6.6666666 0,6.0697068 0,5.3333335 0,4.5969601 0.67158002,3.9999999 1.5,3.9999999 H 4.4999999 7.5000004 Z M 9.0000005,6.6666666 H 5.9999999 V 20 c 0,0.736401 0.67158,1.333334 1.5000005,1.333334 H 16.5 C 17.32845,21.333334 18,20.736401 18,20 V 6.6666666 H 15 Z M 13.499999,3.9999999 H 10.5 V 2.6666667 h 2.999999 z M 9.0000005,7.9999994 C 9.8284493,7.9999994 10.5,8.5969606 10.5,9.3333339 V 18.666667 C 10.5,19.403068 9.8284493,20 9.0000005,20 8.1715801,20 7.5000004,19.403068 7.5000004,18.666667 V 9.3333339 c 0,-0.7363733 0.6715797,-1.3333345 1.5000001,-1.3333345 z m 5.9999995,0 c 0.82845,0 1.5,0.5969612 1.5,1.3333345 V 18.666667 C 16.5,19.403068 15.82845,20 15,20 14.171549,20 13.499999,19.403068 13.499999,18.666667 V 9.3333339 c 0,-0.7363733 0.67155,-1.3333345 1.500001,-1.3333345 z" style="stroke-width:1.41422" />
    </symbol>

    <symbol id="user" viewBox="0 0 16 16">
        <path d="M8 7C9.65685 7 11 5.65685 11 4C11 2.34315 9.65685 1 8 1C6.34315 1 5 2.34315 5 4C5 5.65685 6.34315 7 8 7Z"/>
        <path d="M14 12C14 10.3431 12.6569 9 11 9H5C3.34315 9 2 10.3431 2 12V15H14V12Z"/>
    </symbol>

    <symbol id="settings" viewBox="0 0 24 24">
        <path fill-rule="evenodd" d="M9.024 2.783A1 1 0 0 1 10 2h4a1 1 0 0 1 .976.783l.44 1.981c.4.19.781.41 1.14.66l1.938-.61a1 1 0 0 1 1.166.454l2 3.464a1 1 0 0 1-.19 1.237l-1.497 1.373a8.1 8.1 0 0 1 0 1.316l1.497 1.373a1 1 0 0 1 .19 1.237l-2 3.464a1 1 0 0 1-1.166.454l-1.937-.61c-.36.25-.741.47-1.14.66l-.44 1.98A1 1 0 0 1 14 22h-4a1 1 0 0 1-.976-.783l-.44-1.981c-.4-.19-.781-.41-1.14-.66l-1.938.61a1 1 0 0 1-1.166-.454l-2-3.464a1 1 0 0 1 .19-1.237l1.497-1.373a8.097 8.097 0 0 1 0-1.316L2.53 9.97a1 1 0 0 1-.19-1.237l2-3.464a1 1 0 0 1 1.166-.454l1.937.61c.36-.25.741-.47 1.14-.66l.44-1.98zM12 15a3 3 0 1 0 0-6 3 3 0 0 0 0 6z" clip-rule="evenodd"/>
    </symbol>

    <symbol id="upload" viewBox="0 0 24 24">
        <path fill-rule="evenodd" clip-rule="evenodd" d="M23 22C23 22.5523 22.5523 23 22 23H2C1.44772 23 1 22.5523 1 22C1 21.4477 1.44772 21 2 21H22C22.5523 21 23 21.4477 23 22Z"/>
        <path fill-rule="evenodd" clip-rule="evenodd" d="M10.6901 1.31192C11.4419 0.660428 12.5581 0.66043 13.3099 1.31193L18.1291 5.48863C19.5282 6.70117 18.6707 9.00001 16.8193 9.00001H15V17C15 18.1046 14.1046 19 13 19H11C9.89543 19 9 18.1046 9 17V9.00001H7.18073C5.32932 9.00001 4.47178 6.70117 5.87086 5.48863L10.6901 1.31192ZM12.6549 3.39091C12.2791 3.06516 11.7209 3.06516 11.3451 3.39091L7.18073 7.00001L9.5 7.00001C10.3284 7.00001 11 7.67158 11 8.50001V17H13V8.50001C13 7.67158 13.6716 7.00001 14.5 7.00001H16.8193L12.6549 3.39091Z"/>
    </symbol>

    <symbol id="dropdown" viewBox="0 0 16 16">
        <path d="M8 1.25a2.101 2.101 0 00-1.785.996l.64.392-.642-.388-5.675 9.373-.006.01a2.065 2.065 0 00.751 2.832c.314.183.67.281 1.034.285h11.366a2.101 2.101 0 001.791-1.045 2.064 2.064 0 00-.006-2.072L9.788 2.25l-.003-.004A2.084 2.084 0 008 1.25z"/>
    </symbol>

    <symbol id="tv" viewBox="0 0 32 32">
        <path d="M26 26.75h-20c-0.69 0-1.25 0.56-1.25 1.25s0.56 1.25 1.25 1.25v0h20c0.69 0 1.25-0.56 1.25-1.25s-0.56-1.25-1.25-1.25v0zM28 2.75h-24c-1.794 0.002-3.248 1.456-3.25 3.25v16c0.002 1.794 1.456 3.248 3.25 3.25h24c1.794-0.001 3.249-1.456 3.25-3.25v-16c-0.002-1.794-1.456-3.248-3.25-3.25h-0zM28.75 22c-0 0.414-0.336 0.75-0.75 0.75h-24c-0.414-0-0.75-0.336-0.75-0.75v-16c0.001-0.414 0.336-0.749 0.75-0.75h24c0.414 0 0.75 0.336 0.75 0.75v0z"></path>
    </symbol>

    <symbol id="chat" viewBox="0 0 24 24">
        <path d="M 4,3 C 2.9072695,3 2,3.9072695 2,5 v 11 a 1.0001,1.0001 0 0 0 1.6386719,0.769531 L 6.9726562,14 H 7 v 2 c 0,1.092719 0.9072934,2 2,2 h 8.027344 l 3.333984,2.769531 A 1.0001,1.0001 0 0 0 22,20 V 9 C 22,7.9072936 21.092731,7 20,7 H 17 V 5 C 17,3.9072936 16.092731,3 15,3 Z m 0,2 h 11 v 3 4 H 8 6.9726562 C 6.5058943,12 6.0530467,12.162233 5.6933594,12.460938 L 4,13.869141 Z m 13,4 h 3 v 8.869141 l -1.693359,-1.408204 v 0.002 C 17.947021,16.163976 17.494391,16 17.027344,16 H 9 v -2 h 6 c 1.092707,0 2,-0.907293 2,-2 z"/>
    </symbol>

    <symbol id="history" viewBox="0 0 19.5 19.5">
        <path d="M 9.75,5 A 0.75,0.75 0 0 0 9,5.75 v 4 a 0.750075,0.750075 0 0 0 0.21875,0.53125 l 2.5,2.5 a 0.75,0.75 0 0 0 1.0625,0 0.75,0.75 0 0 0 0,-1.0625 L 10.5,9.439453 V 5.75 A 0.75,0.75 0 0 0 9.75,5 Z"/>
        <path d="M 3.35423,3.35423 2.8239,2.8239 v 0 z M 2.08785,4.62061 1.33786,4.62438 C 1.33992,5.03564 1.67281,5.36853 2.08408,5.3706 Z M 4.62963,5.38339 C 5.04384,5.38547 5.38131,5.05138 5.38339,4.63717 5.38547,4.22296 5.05138,3.88549 4.63717,3.88341 Z M 2.82505,2.07129 C 2.82296,1.65708 2.4855,1.32298 2.07129,1.32506 1.65708,1.32715 1.32298,1.66462 1.32507,2.07882 Z M 1.5,9.75 C 1.5,9.3358 1.16421,9 0.75,9 0.33579,9 0,9.3358 0,9.75 Z m 13.1255,8.4452 c 0.3586,-0.2074 0.4811,-0.6662 0.2737,-1.0248 -0.2074,-0.3585 -0.6662,-0.4811 -1.0247,-0.2736 z m 2.2713,-4.3207 c -0.2075,0.3585 -0.0849,0.8173 0.2736,1.0247 0.3586,0.2074 0.8174,0.0849 1.0248,-0.2737 z M 2.89033,2.82126 C 2.59598,3.11269 2.59361,3.58756 2.88505,3.88191 3.17648,4.17626 3.65134,4.17862 3.94569,3.88719 Z M 16.6123,2.88786 C 12.7921,-0.93234 6.61882,-0.97102 2.8239,2.8239 L 3.88456,3.88456 C 7.08366,0.68545 12.3072,0.70404 15.5517,3.94852 Z M 2.8239,2.8239 1.55752,4.09028 2.61818,5.15094 3.88456,3.88456 Z M 2.08408,5.3706 4.62963,5.38339 4.63717,3.88341 2.09162,3.87062 Z M 2.83784,4.61684 2.82505,2.07129 1.32507,2.07882 1.33786,4.62438 Z M 9.75,1.5 C 14.3063,1.5 18,5.19365 18,9.75 h 1.5 C 19.5,4.36522 15.1348,0 9.75,0 Z m 0,16.5 C 5.19365,18 1.5,14.3063 1.5,9.75 H 0 c 0,5.3848 4.36522,9.75 9.75,9.75 z m 4.1245,-1.1032 C 12.6618,17.5983 11.2539,18 9.75,18 v 1.5 c 1.7747,0 3.4407,-0.4748 4.8755,-1.3048 z M 18,9.75 c 0,1.5039 -0.4017,2.9118 -1.1032,4.1245 l 1.2984,0.751 C 19.0252,13.1907 19.5,11.5247 19.5,9.75 Z M 3.94569,3.88719 C 5.43707,2.41059 7.48646,1.5 9.75,1.5 V 0 C 7.07542,0 4.65113,1.07791 2.89033,2.82126 Z"/>
    </symbol>
</svg>
