<?xml version="1.0" encoding="utf-8"?>
<svg version="1.1" xmlns="http://www.w3.org/2000/svg">
    <symbol id="edit" viewBox="0 0 24 24" xmlns="http://www.w3.org/2000/svg">
        <path fill-rule="evenodd" clip-rule="evenodd" d="m 22.747372,1.0470306 c -1.393775,-1.39603485 -3.653369,-1.39604676 -5.047146,0 l -1.99835,2.0016381 -9.4052675,9.4206763 c -0.1524636,0.152762 -0.2606134,0.344132 -0.3129099,0.553614 l -1.1896352,4.766374 c -0.1013563,0.406094 0.017427,0.835663 0.3129097,1.131536 0.2954818,0.295992 0.7243334,0.415032 1.1297372,0.313508 l 4.7584947,-1.191593 c 0.209256,-0.05243 0.400193,-0.160747 0.552703,-0.313509 L 20.88476,8.3771398 22.951514,6.306973 c 1.393775,-1.3960348 1.393775,-3.6594661 0,-5.0555009 z m -3.364765,1.6851629 c 0.464553,-0.465341 1.217831,-0.465341 1.682384,0 l 0.204141,0.2044416 c 0.464552,0.465353 0.464552,1.219834 0,1.685175 L 20.059868,5.8330884 18.209509,3.9072474 Z M 16.52677,5.5927202 18.377129,7.5185611 10.098576,15.810811 7.5831751,16.440687 8.2120044,13.921183 Z M 2.3792705,7.3540021 c 0,-0.6580931 0.5326235,-1.1915932 1.1896353,-1.1915932 h 5.948176 c 0.6570352,0 1.1896352,-0.5334881 1.1896352,-1.1915931 0,-0.6580932 -0.5326,-1.1915933 -1.1896352,-1.1915933 H 3.5689058 C 1.5978585,3.7792225 0,5.379711 0,7.3540021 V 20.461481 c 0,1.97435 1.5978585,3.574778 3.5689058,3.574778 H 16.654893 c 1.971107,0 3.568906,-1.600428 3.568906,-3.574778 v -5.957968 c 0,-0.657997 -0.532599,-1.191592 -1.189635,-1.191592 -0.657035,0 -1.189635,0.533595 -1.189635,1.191592 v 5.957968 c 0,0.658116 -0.5326,1.191591 -1.189636,1.191591 H 3.5689058 c -0.6570118,0 -1.1896353,-0.533475 -1.1896353,-1.191591 z" style="stroke-width:1.19061" />
    </symbol>

    <symbol id="delete" viewBox="0 0 24 24" version="1.1" xmlns="http://www.w3.org/2000/svg">
        <path fill-rule="evenodd" clip-rule="evenodd" d="M 7.5000004,2.6666667 C 7.5000004,1.1939067 8.8431444,0 10.5,0 h 2.999999 C 15.156901,0 16.5,1.1939067 16.5,2.6666667 v 1.3333332 h 3 3 c 0.828451,0 1.5,0.5969602 1.5,1.3333336 0,0.7363733 -0.671549,1.3333331 -1.5,1.3333331 H 21 V 20 c 0,2.209201 -2.014649,4 -4.5,4 H 7.5000004 C 5.0147249,24 2.9999999,22.209201 2.9999999,20 V 6.6666666 H 1.5 C 0.67158002,6.6666666 0,6.0697068 0,5.3333335 0,4.5969601 0.67158002,3.9999999 1.5,3.9999999 H 4.4999999 7.5000004 Z M 9.0000005,6.6666666 H 5.9999999 V 20 c 0,0.736401 0.67158,1.333334 1.5000005,1.333334 H 16.5 C 17.32845,21.333334 18,20.736401 18,20 V 6.6666666 H 15 Z M 13.499999,3.9999999 H 10.5 V 2.6666667 h 2.999999 z M 9.0000005,7.9999994 C 9.8284493,7.9999994 10.5,8.5969606 10.5,9.3333339 V 18.666667 C 10.5,19.403068 9.8284493,20 9.0000005,20 8.1715801,20 7.5000004,19.403068 7.5000004,18.666667 V 9.3333339 c 0,-0.7363733 0.6715797,-1.3333345 1.5000001,-1.3333345 z m 5.9999995,0 c 0.82845,0 1.5,0.5969612 1.5,1.3333345 V 18.666667 C 16.5,19.403068 15.82845,20 15,20 14.171549,20 13.499999,19.403068 13.499999,18.666667 V 9.3333339 c 0,-0.7363733 0.67155,-1.3333345 1.500001,-1.3333345 z" style="stroke-width:1.41422" />
    </symbol>

    <symbol id="user" viewBox="0 0 16 16" xmlns="http://www.w3.org/2000/svg">
        <path d="M8 7C9.65685 7 11 5.65685 11 4C11 2.34315 9.65685 1 8 1C6.34315 1 5 2.34315 5 4C5 5.65685 6.34315 7 8 7Z"/>
        <path d="M14 12C14 10.3431 12.6569 9 11 9H5C3.34315 9 2 10.3431 2 12V15H14V12Z"/>
    </symbol>

    <symbol id="settings" viewBox="0 0 24 24" xmlns="http://www.w3.org/2000/svg">
        <path fill-rule="evenodd" d="M9.024 2.783A1 1 0 0 1 10 2h4a1 1 0 0 1 .976.783l.44 1.981c.4.19.781.41 1.14.66l1.938-.61a1 1 0 0 1 1.166.454l2 3.464a1 1 0 0 1-.19 1.237l-1.497 1.373a8.1 8.1 0 0 1 0 1.316l1.497 1.373a1 1 0 0 1 .19 1.237l-2 3.464a1 1 0 0 1-1.166.454l-1.937-.61c-.36.25-.741.47-1.14.66l-.44 1.98A1 1 0 0 1 14 22h-4a1 1 0 0 1-.976-.783l-.44-1.981c-.4-.19-.781-.41-1.14-.66l-1.938.61a1 1 0 0 1-1.166-.454l-2-3.464a1 1 0 0 1 .19-1.237l1.497-1.373a8.097 8.097 0 0 1 0-1.316L2.53 9.97a1 1 0 0 1-.19-1.237l2-3.464a1 1 0 0 1 1.166-.454l1.937.61c.36-.25.741-.47 1.14-.66l.44-1.98zM12 15a3 3 0 1 0 0-6 3 3 0 0 0 0 6z" clip-rule="evenodd"/>
    </symbol>
</svg>
