<?xml version="1.0" encoding="utf-8"?>
<svg version="1.1" xmlns="http://www.w3.org/2000/svg">
    <symbol id="playlist" viewBox="0 0 1 1">
        <path d="m 0.8525641,0.572784 c 0.08481,0.048753 0.1272205,0.073127 0.1334462,0.1082947 0.00156,0.0088 0.00156,0.017803 0,0.0266 -0.00623,0.035167 -0.048636,0.059541 -0.1334462,0.1082946 -0.08481,0.048748 -0.1272205,0.073122 -0.1609231,0.06091 -0.00844,-0.00306 -0.016262,-0.00756 -0.023138,-0.0133 C 0.641026,0.8406293 0.641026,0.7918803 0.641026,0.694379 c 0,-0.097501 0,-0.1462496 0.027477,-0.1692043 0.00688,-0.00574 0.014702,-0.010247 0.023138,-0.0133 0.033703,-0.012213 0.076113,0.012161 0.1609231,0.0609093 z M 0,0.1582919 C 0,0.1371441 0.01722,0.12 0.0384615,0.12 h 0.923077 C 0.9827795,0.12 1,0.1371441 1,0.1582919 1,0.1794402 0.982779,0.1965843 0.961539,0.1965843 H 0.0384615 C 0.01722,0.1965839 0,0.1794398 0,0.1582919 Z M 0,0.3625154 C 0,0.3413681 0.01722,0.324224 0.038461,0.324224 h 0.923077 c 0.021241,0 0.038461,0.017144 0.038461,0.038291 0,0.021147 -0.017221,0.038292 -0.038461,0.038292 H 0.0384615 C 0.01722,0.4008074 0,0.3836628 0,0.3625154 Z M 0,0.566739 C 0,0.545592 0.01722,0.528448 0.038461,0.528448 h 0.4102564 c 0.021241,0 0.038462,0.017144 0.038462,0.038291 0,0.021147 -0.017221,0.038292 -0.038462,0.038292 H 0.0384615 C 0.01722,0.6050309 0,0.5878864 0,0.566739 Z m 0,0.2042236 c 0,-0.021147 0.01722,-0.038292 0.038461,-0.038292 h 0.4102564 c 0.021241,0 0.038462,0.017145 0.038462,0.038292 0,0.021147 -0.017221,0.038292 -0.038462,0.038292 H 0.0384615 C 0.01722,0.8092545 0,0.7921099 0,0.7709626 Z"/>
    </symbol>

    <symbol id="play" viewBox="0 0 1 1">
        <path d="M 0,0.90015848 Q 0,0.9540412 0.0460251,0.98573693 0.07141827,1 0.09998557,1 0.12220459,1 0.1444236,0.9889065 L 0.94589525,0.58954041 q 0.0238061,-0.0126783 0.0396768,-0.0364501 0.0158706,-0.0237718 0.0142836,-0.0538827 -0.001587,-0.0301109 -0.0142836,-0.0522979 -0.0126966,-0.022187 -0.0396768,-0.0364501 L 0.1444236,0.0110935 Q 0.12220459,0 0.09998557,0 0.07300534,0 0.0460251,0.01426307 0,0.04437401 0,0.09984152 Z"/>
    </symbol>

    <symbol id="edit" viewBox="0 0 1 1">
        <path d="m 0.94793177,0.04356046 c -0.0580816,-0.05808037 -0.15224372,-0.05808087 -0.2103254,0 L 0.65433084,0.12683624 0.26239318,0.51877228 c -0.006353,0.006355 -0.0108603,0.0143172 -0.0130396,0.0230324 l -0.0495746,0.19829933 c -0.004224,0.0168951 7.2622e-4,0.0347668 0.0130396,0.0470762 0.0123134,0.0123144 0.0301845,0.0172669 0.0470786,0.0130431 l 0.19829668,-0.0495748 c 0.00872,-0.002181 0.0166769,-0.006688 0.0230323,-0.0130432 l 0.38908657,-0.38908447 0.0861261,-0.0861268 c 0.0580816,-0.0580804 0.0580816,-0.15224774 0,-0.21032811 z M 0.8077148,0.11366966 c 0.0193589,-0.01935996 0.0507496,-0.01935996 0.0701086,0 l 0.008507,0.008506 c 0.0193589,0.0193605 0.0193589,0.0507497 0,0.0701097 L 0.8359377,0.24267916 0.7588293,0.16255686 Z M 0.68870595,0.23267848 0.76581437,0.3128008 0.42082932,0.65779 0.31600717,0.68399525 0.34221183,0.57917428 Z m -0.58955665,0.073276 c 0,-0.0273792 0.02219557,-0.0495748 0.04957466,-0.0495748 h 0.24787325 c 0.0273801,0 0.0495746,-0.0221951 0.0495746,-0.0495748 0,-0.0273792 -0.0221946,-0.0495748 -0.0495746,-0.0495748 H 0.14872396 C 0.06658619,0.15723006 0,0.22381648 0,0.30595452 V 0.8512756 C 0,0.93341609 0.06658619,1 0.14872396,1 H 0.69404511 C 0.77618541,1 0.84276907,0.93341609 0.84276907,0.8512756 V 0.60340142 c 0,-0.0273752 -0.0221945,-0.0495748 -0.0495746,-0.0495748 -0.0273801,0 -0.0495746,0.0221996 -0.0495746,0.0495748 V 0.8512756 c 0,0.0273801 -0.0221946,0.0495747 -0.0495747,0.0495747 H 0.14872396 c -0.0273791,0 -0.04957466,-0.0221946 -0.04957466,-0.0495747 z"/>
    </symbol>

    <svg id="edit2" viewBox="0 0 1 1">
        <path d="M 0.580474,0.15285933 0.84714,0.419526 0.9447733,0.32189533 C 0.98013333,0.28653267 1,0.23857133 1,0.188562 1,0.084422 0.91558,0 0.81144,0 0.76142667,0 0.71346667,0.01986633 0.67810667,0.05522853 Z M 0.48619267,0.24714067 0,0.73333333 V 1 H 0.26666667 L 0.75286,0.51380733 Z"/>
    </svg>

    <symbol id="delete" viewBox="0 0 1 1">
        <path d="M 0.31250002,0.11111111 C 0.31250002,0.04974611 0.36846435,0 0.43750002,0 h 0.12499996 c 0.0690375,0 0.12500004,0.04974611 0.12500004,0.11111111 v 0.0555555 h 0.125 0.12499996 c 0.0345188,0 0.0625,0.0248733 0.0625,0.0555556 0,0.0306822 -0.0279812,0.0555555 -0.0625,0.0555555 H 0.875 V 0.83333333 C 0.875,0.92538337 0.7910563,1 0.68750002,1 h -0.375 C 0.20894687,1 0.125,0.92538337 0.125,0.83333333 V 0.27777778 H 0.0625 C 0.0279825,0.27777778 0,0.25290445 0,0.22222223 0,0.19154 0.0279825,0.16666666 0.0625,0.16666666 h 0.125 0.12500002 z m 0.0625,0.16666667 H 0.25 v 0.55555555 c 0,0.0306834 0.0279825,0.0555556 0.0625,0.0555556 h 0.375 c 0.0345188,0 0.0625,-0.0248722 0.0625,-0.0555556 V 0.27777778 H 0.625 Z M 0.56249998,0.16666666 H 0.43750002 V 0.11111111 H 0.56249998 Z M 0.37500002,0.33333331 c 0.0345187,0 0.0625,0.0248734 0.0625,0.0555556 v 0.38888888 c 0,0.0306834 -0.0279813,0.0555555 -0.0625,0.0555555 -0.0345175,0 -0.0625,-0.0248722 -0.0625,-0.0555555 V 0.38888891 c 0,-0.0306822 0.0279825,-0.0555556 0.0625,-0.0555556 z m 0.24999998,0 c 0.0345187,0 0.0625,0.0248734 0.0625,0.0555556 v 0.38888888 c 2e-8,0.0306834 -0.0279813,0.0555555 -0.0625,0.0555555 -0.0345188,0 -0.0625,-0.0248722 -0.0625,-0.0555555 V 0.38888891 c 0,-0.0306822 0.0279812,-0.0555556 0.0625,-0.0555556 z"/>
    </symbol>

    <symbol id="user" viewBox="0 0 1 1">
        <path d="m 0.93,0.78571429 c 0,-0.11835 -0.0962555,-0.21428572 -0.215,-0.21428572 h -0.43 c -0.11874091,0 -0.215,0.0959357 -0.215,0.21428572 V 1 H 0.93 Z M 0.5,0.42857143 c 0.11874092,0 0.215,-0.0959393 0.215,-0.21428572 C 0.715,0.09593929 0.61874092,0 0.5,0 0.38125908,0 0.285,0.09593929 0.285,0.21428571 c 0,0.11834643 0.0962591,0.21428572 0.215,0.21428572 z" />/>
    </symbol>

    <symbol id="settings" viewBox="0 0 1 1">
        <path d="M 0.34807056,0.03915 A 0.05105156,0.05 0 0 1 0.39789688,0 h 0.20420625 a 0.05105156,0.05 0 0 1 0.0498263,0.03915 l 0.0224627,0.09905 c 0.0204206,0.0095 0.0398713,0.0205 0.0581988,0.033 l 0.0989379,-0.0305 a 0.05105156,0.05 0 0 1 0.0595261,0.0227 l 0.10210312,0.1732 a 0.05105156,0.05 0 0 1 -0.0097,0.06185 L 0.90703385,0.4671 a 0.4135176,0.405 0 0 1 0,0.0658 l 0.0764242,0.06865 a 0.05105156,0.05 0 0 1 0.0097,0.06185 L 0.89105493,0.8366 A 0.05105156,0.05 0 0 1 0.83152883,0.8593 L 0.73264193,0.8288 c -0.0183786,0.0125 -0.0378292,0.0235 -0.0581988,0.033 l -0.0224627,0.099 A 0.05105156,0.05 0 0 1 0.60210313,1 H 0.39789688 A 0.05105156,0.05 0 0 1 0.34807058,0.96085 L 0.32560788,0.8618 C 0.30518728,0.8523 0.28573658,0.8413 0.26740908,0.8288 L 0.16847118,0.8593 A 0.05105156,0.05 0 0 1 0.10894508,0.8366 L 0.00684197,0.6634 A 0.05105156,0.05 0 0 1 0.01654176,0.60155 L 0.09296593,0.5329 a 0.41336445,0.40485 0 0 1 0,-0.0658 L 0.01654175,0.3985 A 0.05105156,0.05 0 0 1 0.00684196,0.33665 l 0.10210311,-0.1732 a 0.05105156,0.05 0 0 1 0.0595261,-0.0227 l 0.0988869,0.0305 c 0.0183786,-0.0125 0.0378292,-0.0235 0.0581988,-0.033 l 0.0224627,-0.099 z m 0.15192943,0.61084999 a 0.15315467,0.15 0 1 0 0,-0.29999999 0.15315467,0.15 0 0 0 0,0.29999999 z"/>
    </symbol>

    <symbol id="upload" viewBox="0 0 1 1">
        <path d="m 0.44045909,0.0220329 c 0.0341727,-0.02937732 0.0849091,-0.02937723 0.11908182,4.5e-7 l 0.21905454,0.18833734 c 0.0635955,0.0546763 0.0246182,0.15833647 -0.0595364,0.15833647 h -0.0826955 v 0.36073857 c 0,0.049809 -0.0407,0.0901848 -0.0909091,0.0901848 h -0.0909091 c -0.0502077,0 -0.0909091,-0.0403757 -0.0909091,-0.0901848 V 0.36870716 h -0.0826941 c -0.084155,0 -0.12313409,-0.10366016 -0.0595395,-0.15833647 z m 0.0893091,0.0937466 c -0.0170818,-0.0146888 -0.0424545,-0.0146888 -0.0595364,0 L 0.28094224,0.27852241 h 0.10542137 c 0.0376545,0 0.0681818,0.0302827 0.0681818,0.0676386 v 0.38328476 h 0.0909091 v -0.3832848 c 0,-0.0373559 0.0305273,-0.0676386 0.0681818,-0.0676386 H 0.71905904 Z M 1,0.95490762 C 1,0.97981214 0.97965,1 0.9545455,1 H 0.04545455 C 0.02035091,1 0,0.97981214 0,0.95490762 0,0.9300031 0.02035091,0.90981524 0.04545455,0.90981524 h 0.9090909 c 0.0251046,0 0.0454545,0.0201879 0.0454545,0.0450924 z" />/>
    </symbol>

    <symbol id="dropdown" viewBox="0 0 1 1">
        <path d="M 0.50002845,0.92999913 A 0.13554332,0.13384134 0 0 1 0.38487146,0.86655029 l 0.0412888,-0.0249718 -0.0414178,0.024717 L 0.01862708,0.26920126 0.01823999,0.26856423 A 0.13322083,0.13154801 0 0 1 0.0666898,0.08815552 C 0.08694711,0.07649778 0.10991399,0.07025475 0.13339698,0.07 h 0.73326291 a 0.13554332,0.13384134 0 0 1 0.11554407,0.06657029 0.13315632,0.13148432 0 0 1 -3.8708e-4,0.13199394 l -0.3664379,0.59773126 -1.9354e-4,2.548e-4 a 0.13444659,0.13275838 0 0 1 -0.11515699,0.0634488 z"/>
    </symbol>

    <svg id="dropdown2" viewBox="0 0 1 1">
        <path d="m 0.57504433,0.837718 c -0.0325609,0.0430427 -0.11752741,0.0430427 -0.15008841,0 L 0.02472035,0.29761935 C -0.00784222,0.25457324 -0.00843502,0.18434312 0.02412752,0.1412971 0.05669091,0.09825218 0.14224526,0.10026049 0.17480867,0.14330538 L 0.50000125,0.58052816 0.82519156,0.14330538 c 0.0325609,-0.0430449 0.1181216,-0.0450532 0.15068243,-0.002008 0.0325609,0.043046 0.0319669,0.11327614 -5.9166e-4,0.15632222 z"/>
    </svg>

    <symbol id="tv" viewBox="0 0 1 1">
        <path d="m 0.82786885,0.84886794 h -0.6557377 c -0.022623,0 -0.0409836,0.0181735 -0.0409836,0.040566 0,0.0223925 0.0183607,0.040566 0.0409836,0.040566 v 0 h 0.6557377 c 0.022623,0 0.0409836,-0.0181736 0.0409836,-0.040566 0,-0.0223925 -0.0183607,-0.040566 -0.0409836,-0.040566 z M 0.89344262,0.07 H 0.10655738 C 0.0477377,0.07006491 6.557377e-5,0.11725132 0,0.1754717 v 0.51924529 c 6.557377e-5,0.0582204 0.0477377,0.10540679 0.10655738,0.1054717 H 0.89344262 C 0.9522623,0.80015623 0.99996721,0.75293736 1,0.69471699 V 0.1754717 C 0.99993443,0.11725132 0.9522623,0.07006491 0.89344262,0.07 Z m 0.0245902,0.62471699 c 0,0.0134355 -0.0110164,0.0243397 -0.0245902,0.0243397 H 0.10655738 c -0.01357377,0 -0.02459017,-0.0109042 -0.02459017,-0.0243397 V 0.1754717 C 0.082,0.16203623 0.09298361,0.15116453 0.10655738,0.15113207 h 0.78688524 c 0.0135738,0 0.0245902,0.0109042 0.0245902,0.0243396 v 0 z"/>
    </symbol>

    <symbol id="chat" viewBox="0 0 1 1">
        <path d="M 0.1,0.05 C 0.04536348,0.05 0,0.09536348 0,0.15 V 0.7 A 0.050005,0.050005 0 0 0 0.0819336,0.7384765 L 0.24863281,0.6 H 0.25 v 0.1 c 0,0.0546359 0.0453647,0.1 0.1,0.1 H 0.7513672 L 0.9180664,0.93847655 A 0.050005,0.050005 0 0 0 1,0.9 V 0.35 C 1,0.29536468 0.95463655,0.25 0.9,0.25 H 0.75 v -0.1 c 0,-0.05463532 -0.0453634,-0.1 -0.1,-0.1 z m 0,0.1 H 0.65 V 0.3 0.5 H 0.3 0.24863281 c -0.0233381,0 -0.0459805,0.008112 -0.0639648,0.0230469 L 0.1,0.59345705 Z m 0.65,0.2 H 0.9 V 0.79345705 L 0.815332,0.72304685 v 10e-5 C 0.79735105,0.7081988 0.77471955,0.7 0.7513672,0.7 H 0.35 V 0.6 h 0.3 c 0.0546353,0 0.1,-0.0453647 0.1,-0.1 z"/>
    </symbol>

    <symbol id="history" viewBox="0 0 1 1">
        <path d="m 0.17201179,0.17201179 -0.0271964,-0.0271964 v 0 z m -0.0649426,0.0649426 -0.03846102,1.9333e-4 c 1.0564e-4,0.0210903 0.01717692,0.0381615 0.03826769,0.0382677 z m 0.13034769,0.0391169 c 0.0212415,1.0667e-4 0.0385477,-0.0170261 0.0386544,-0.0382677 1.0667e-4,-0.0212415 -0.0170261,-0.0385477 -0.0382677,-0.0386544 z M 0.14487436,0.10622 C 0.14476718,0.08497846 0.12746154,0.06784513 0.10622,0.06795179 0.08497846,0.06805897 0.06784513,0.08536513 0.06795231,0.10660615 Z M 0.07692308,0.5 c 0,-0.021241 -0.01722,-0.0384615 -0.03846154,-0.0384615 C 0.01722,0.46153846 0,0.47875897 0,0.5 Z m 0.67310256,0.43308718 c 0.0183897,-0.0106359 0.0246718,-0.0341641 0.0140359,-0.0525539 -0.0106359,-0.0183846 -0.0341641,-0.0246718 -0.0525487,-0.0140308 z M 0.86650256,0.71151282 c -0.010641,0.0183846 -0.004354,0.0419128 0.0140308,0.0525487 0.0183897,0.0106359 0.0419179,0.004354 0.0525539,-0.0140359 z M 0.14822205,0.14468 c -0.0150949,0.0149451 -0.0152164,0.0392974 -2.7077e-4,0.0543923 0.0149451,0.0150949 0.0392969,0.0152159 0.0543918,2.7077e-4 z M 0.85191282,0.148095 C 0.65600513,-0.04781231 0.33942667,-0.0497959 0.14481538,0.14481538 l 0.0543928,0.0543928 c 0.16405644,-0.16405693 0.43193028,-0.16310359 0.5983149,0.00328 z M 0.14481538,0.144815 0.07987282,0.2097576 0.13426564,0.2641504 0.19920824,0.1992078 Z m -0.0379395,0.1306 0.13054102,6.559e-4 3.8667e-4,-0.076922 L 0.10726254,0.198493 Z M 0.1455303,0.23676103 0.1448744,0.10622 0.06795235,0.10660615 0.06860825,0.23714769 Z M 0.5,0.07692308 c 0.23365641,0 0.42307692,0.18941795 0.42307692,0.42307692 H 1 C 1,0.22385744 0.77614359,0 0.5,0 Z m 0,0.84615384 C 0.26634103,0.92307692 0.07692308,0.73365641 0.07692308,0.5 H 0 C 0,0.77614359 0.22385744,1 0.5,1 Z M 0.71151282,0.86650256 C 0.64932308,0.90247692 0.57712308,0.92307692 0.5,0.92307692 V 1 C 0.5910103,1 0.67644615,0.97565128 0.75002564,0.93308718 Z M 0.92307692,0.5 c 0,0.0771231 -0.0206,0.14932308 -0.0565744,0.21151282 l 0.0665846,0.0385128 C 0.97565128,0.67644615 1,0.59101026 1,0.5 Z M 0.20234308,0.19934308 C 0.2788241,0.12362 0.38392103,0.07692308 0.5,0.07692308 V 0 C 0.36284205,0 0.23851949,0.05527744 0.14822205,0.14468 Z M 0.5,0.25641026 A 0.03846154,0.03846154 0 0 0 0.4615385,0.29487179 V 0.5 a 0.03846538,0.03846538 0 0 0 0.011218,0.0272436 l 0.12820513,0.12820513 a 0.03846154,0.03846154 0 0 0 0.0544872,0 0.03846154,0.03846154 0 0 0 0,-0.0544872 L 0.53846154,0.48407451 V 0.29487179 A 0.03846154,0.03846154 0 0 0 0.5,0.25641026 Z"/>
    </symbol>

    <symbol id="next" viewBox="0 0 1 1">
        <path d="M 0.97402187,0.56069988 0.60080225,0.83467308 C 0.5477829,0.87221203 0.5001822,0.83651065 0.5001822,0.7740332 V 0.5998139 L 0.14838711,0.83467308 C 0.09545112,0.87221203 -4e-7,0.83651065 -4e-7,0.7740332 V 0.2259993 c 0,-0.0624774 0.09545152,-0.0981788 0.14838751,-0.0607274 L 0.5001822,0.4002186 V 0.2259993 c 0,-0.0624774 0.0476007,-0.0981788 0.10062005,-0.0607274 L 0.9600167,0.43933265 c 0.042849,0.0303637 0.0568541,0.0910036 0.0140052,0.12136723"/>
    </symbol>

    <symbol id="shuffle" viewBox="0 0 1 1">
        <path d="m 0.76464849,0.06464145 a 0.05,0.05000088 0 0 0 0,0.07070436 l 0.0646484,0.0646496 h -0.0792968 c -0.046465,0 -0.0718874,-5.5431e-4 -0.0987305,0.004785 -0.0990291,0.0196994 -0.17678709,0.0974553 -0.19648439,0.19648784 -0.005326,0.026818 -0.004785,0.0523121 -0.004785,0.0987321 0,0.0464658 -5.825e-4,0.0675047 -0.002929,0.0792983 -0.0118626,0.0596411 -0.0581311,0.10591251 -0.11777343,0.11777546 -0.0117934,0.002347 -0.0328316,0.00293 -0.0792971,0.00293 h -0.2 A 0.05,0.05000088 0 0 0 4.62796e-8,0.75000486 0.05,0.05000088 0 0 0 0.05000004,0.80000574 h 0.2 c 0.0464655,0 0.0718846,5.5751e-4 0.0987305,-0.004785 0.0990022,-0.0196918 0.17675843,-0.0974005 0.19648438,-0.19639015 v -1e-4 c 0.005326,-0.0268156 0.004785,-0.0523098 0.004785,-0.0987298 0,-0.0464658 5.825e-4,-0.0675047 0.00293,-0.0792983 0.0118626,-0.0596423 0.0581325,-0.10591141 0.11777345,-0.11777553 0.011797,-0.002347 0.0328321,-0.00293 0.079297,-0.00293 h 0.0792968 l -0.0646484,0.0646495 a 0.05,0.05000088 0 0 0 0,0.0707043 0.05,0.05000088 0 0 0 0.0707031,0 l 0.15,-0.15000263 A 0.05,0.05000088 0 0 0 0.99833989,0.25400023 0.05,0.05000088 0 0 0 1,0.24999626 0.05,0.05000088 0 0 0 0.99834,0.24169512 0.05,0.05000088 0 0 0 0.996973,0.23456599 0.05,0.05000088 0 0 0 0.9853519,0.21464374 l -0.15,-0.15000262 a 0.05,0.05000088 0 0 0 -0.0707034,3.3e-7 z M 0.05000004,0.19999538 A 0.05,0.05000088 0 0 0 4.12796e-8,0.24999626 0.05,0.05000088 0 0 0 0.05000004,0.29999714 h 0.2 c 0.0464655,0 0.0675002,5.8311e-4 0.0792969,0.00293 0.002785,5.5411e-4 0.005489,0.001155 0.008203,0.001855 a 0.05,0.05000088 0 0 0 0.0609375,-0.0359381 0.05,0.05000088 0 0 0 -0.0359375,-0.0609386 c -0.004527,-0.001168 -0.009156,-0.002207 -0.0137695,-0.003125 -0.0268424,-0.005339 -0.052265,-0.004785 -0.0987305,-0.004785 z m 0.71464845,0.36465488 a 0.05,0.05000088 0 0 0 0,0.0707043 l 0.0646484,0.0646496 h -0.0792968 c -0.046465,0 -0.0675035,-5.8252e-4 -0.0792968,-0.00293 -0.002793,-5.5551e-4 -0.005516,-0.001162 -0.008203,-0.001856 a 0.05,0.05000088 0 0 0 -0.0609375,0.0359381 0.05,0.05000088 0 0 0 0.0359375,0.0609386 c 0.004553,0.001176 0.009173,0.002211 0.0137695,0.003125 0.0268175,0.005326 0.0523113,0.004785 0.0987305,0.004785 h 0.0792968 l -0.0646484,0.0646495 a 0.05,0.05000088 0 0 0 0,0.0707043 0.05,0.05000088 0 0 0 0.0707031,0 l 0.15,-0.15000264 A 0.05,0.05000088 0 0 0 1,0.75000506 0.05,0.05000088 0 0 0 0.996191,0.73086406 0.05,0.05000088 0 0 0 0.9853512,0.71465286 l -0.15,-0.15000263 a 0.05,0.05000088 0 0 0 -0.0707027,3e-8 z"/>
    </symbol>

    <symbol id="loop" viewBox="0 0 1 1">
        <path d="M 1,0.37307692 V 0.72846154 C 1,0.78446 0.9552,0.83 0.9,0.83 H 0.1 C 0.0448,0.83 0,0.78446 0,0.72846154 V 0.37307692 A 0.1,0.10153846 0 0 1 0.1,0.27153846 H 0.45 V 0.17 l 0.2,0.17769231 -0.2,0.17769231 V 0.42384615 h -0.3 v 0.25384616 h 0.7 V 0.42384615 H 0.7 V 0.27153846 H 0.9 A 0.1,0.10153846 0 0 1 1,0.37307692 Z"/>
    </symbol>

    <symbol id="autoplay" viewBox="0 0 1 1">
        <path d="m 0.32708189,0.03085278 c 0.10292437,-0.03793597 0.21546812,-0.04097247 0.32028687,-0.0086416 0.06525,0.02012612 0.12525525,0.0532621 0.17662138,0.0969586 l 0.0167974,0.0149533 0.0525188,-0.05252059 C 0.93096933,0.04394157 0.99419901,0.06781728 0.99962608,0.11869481 L 1,0.12579678 V 0.37500099 H 0.75079376 c -0.0532603,0 -0.0810855,-0.0615944 -0.0489507,-0.10140802 l 0.004757,-0.005286 0.045725,-0.0457212 c -0.0405125,-0.0368456 -0.0888501,-0.0645968 -0.14179692,-0.0809274 -0.0786156,-0.0242481 -0.16302313,-0.0219706 -0.24021688,0.006481 -0.0771931,0.0284525 -0.14288812,0.0815 -0.18696062,0.15096865 -0.0440731,0.0694687 -0.0640781,0.15150302 -0.0569331,0.23346172 0.007146,0.0819587 0.041045,0.15929239 0.0964744,0.2200861 0.05543,0.0607937 0.12931312,0.10167493 0.21026562,0.11633742 0.0809525,0.0146625 0.16448063,0.0023 0.23771125,-0.0351875 0.0732375,-0.0374812 0.13210625,-0.0980124 0.16755,-0.17225614 0.0148687,-0.03115 0.052175,-0.04435 0.0833312,-0.0294812 0.03115,0.0148687 0.0443438,0.0521812 0.029475,0.0833312 -0.0472562,0.0989874 -0.12575,0.17969362 -0.22339375,0.22968109 -0.09765,0.0499812 -0.20901812,0.0664625 -0.316955,0.0469125 C 0.30294001,0.97243683 0.20442876,0.91793687 0.13052251,0.83687442 0.05661632,0.75581823 0.0114172,0.6527058 0.00188997,0.5434265 -0.00763718,0.43414782 0.01903632,0.32476852 0.07780001,0.23214358 0.13656439,0.13951864 0.22415751,0.06878869 0.32708189,0.03085278 Z m 0.0479181,0.3104451 c 0,-0.0228777 0.0234369,-0.0374007 0.0434437,-0.0287936 l 0.004544,0.002404 0.250225,0.15870176 c 0.0175909,0.0111568 0.0191901,0.0355058 0.004798,0.0490612 l -0.004798,0.003719 -0.250225,0.15870361 c -0.0193201,0.0122513 -0.044137,2.375e-4 -0.0475837,-0.0212693 l -4.0398e-4,-0.005124 z"/>
    </symbol>

    <symbol id="search" viewBox="0 0 1 1">
        <path d="M 0.97978987,0.85662296 0.7097816,0.61558252 0.61601217,0.70929324 0.85718409,0.97915197 c 0.0245231,0.031707 0.0686835,0.0270468 0.10836252,-0.0126094 0.0396615,-0.0396367 0.0459896,-0.0854139 0.0142433,-0.10991961 z M 0.21330395,0.23284515 c -0.0529197,0.0679451 -0.0573092,0.16141758 -0.0132035,0.23362053 0.004186,0.006815 0.0131117,0.00899 0.0199499,0.004805 0.006821,-0.004183 0.008978,-0.0131035 0.004812,-0.0199179 v 1.562e-5 c -0.0378889,-0.0619139 -0.0341033,-0.14250356 0.0113,-0.20072413 0.004937,-0.006305 0.003803,-0.0154257 -0.002525,-0.0203223 -0.006307,-0.004932 -0.0154315,-0.003799 -0.0203334,0.002523 z M 0.65048094,0.57015294 C 0.7524977,0.42973335 0.74026546,0.23160296 0.61367282,0.10507006 c -0.14019682,-0.14009342 -0.36833131,-0.14009342 -0.50851054,0 -0.14021637,0.14012663 -0.14021637,0.36808116 0,0.50820973 0.12659263,0.12651337 0.32484715,0.13873795 0.46533713,0.0368046 l 0.0277947,0.0277402 0.0799639,-0.0799138 z M 0.54394965,0.5436198 c -0.10190732,0.10182398 -0.26715688,0.10184351 -0.36908179,0 -0.10192295,-0.10186109 -0.10192295,-0.26702476 0,-0.36886827 0.10192686,-0.1018435 0.26717447,-0.1018435 0.36908179,0 0.10192295,0.10184351 0.10192295,0.26700718 0,0.36886827 z"/>
    </symbol>

    <symbol id="arrow_down" viewBox="0 0 1 1">
        <path d="M 0.06558434,0.54409291 C 0.07693509,0.5173992 0.10367452,0.49999923 0.13333493,0.49999923 H 0.31142877 V 0.0624999 C 0.31142877,0.02798246 0.33957118,0 0.37428594,0 H 0.6257146 c 0.034716,0 0.0628572,0.02798183 0.0628572,0.0624999 V 0.49999923 H 0.866665 c 0.0296623,0 0.0564017,0.0174 0.0677537,0.0440937 0.0113457,0.0266937 0.005073,0.0574124 -0.0158966,0.0778436 l -0.36666468,0.3571432 c -0.028644,0.0278937 -0.0750703,0.0278937 -0.10371432,0 L 0.08148092,0.62193654 C 0.060508,0.60150532 0.05423359,0.57078662 0.06558434,0.54409291 Z"/>
    </symbol>

    <symbol id="arrow_up" viewBox="0 0 1 1">
        <path d="M 0.07545742,0.45590625 C 0.0865502,0.4826 0.11268192,0.5 0.14166822,0.5 h 0.17404624 v 0.4375 c 0,0.0345188 0.0275028,0.0625 0.0614286,0.0625 H 0.62285741 C 0.65678447,1 0.684286,0.9720188 0.684286,0.9375 V 0.5 h 0.17404562 c 0.0289882,0 0.0551199,-0.0174 0.0662139,-0.0440937 0.0110878,-0.0266938 0.004958,-0.0574125 -0.0155353,-0.0778437 L 0.55067882,0.02092125 c -0.0279931,-0.027895 -0.0733642,-0.027895 -0.10135717,0 L 0.09099271,0.3780625 c -0.02049626,0.0204312 -0.02662806,0.05115 -0.01553529,0.0778437 z"/>
    </symbol>

    <symbol id="thumbnail_play" viewBox="0 0 1 1">
        <path d="M 0.5,0 C 0.2236543,0 0,0.22362695 0,0.5 0,0.77634766 0.22362305,1 0.5,1 0.77634766,1 1,0.77637305 1,0.5 1,0.22365234 0.77637305,0 0.5,0 Z M 0.68015234,0.55550391 0.44520313,0.69125977 c -0.0198203,0.0114531 -0.0442598,0.0114726 -0.0641133,1.757e-5 C 0.36125,0.67982812 0.3490293,0.65866211 0.3490293,0.63575781 V 0.36424414 c 0,-0.0229063 0.0122227,-0.0440703 0.0320605,-0.0555195 0.009914,-0.005723 0.0209785,-0.008584 0.032043,-0.008584 0.0110742,0 0.0221504,0.002867 0.0320703,0.008598 L 0.68015427,0.4444945 c 0.0198223,0.0114531 0.0320312,0.0326094 0.0320312,0.0555039 0,0.0228965 -0.0122109,0.0440508 -0.0320331,0.0555055 z"/>
    </symbol>

    <symbol id="clear" viewBox="0 0 1 1">
        <path d="M 0.50000014,1.412796e-7 C 0.22444986,1.412796e-7 1.412796e-7,0.22444986 1.412796e-7,0.50000014 1.412796e-7,0.77555044 0.22444986,1.0000001 0.50000014,1.0000001 c 0.2755503,0 0.49999996,-0.22444966 0.49999996,-0.49999996 C 1.0000001,0.22444986 0.77555044,1.412796e-7 0.50000014,1.412796e-7 Z m 0,0.0999999887204 c 0.221506,0 0.4,0.17849401 0.4,0.4 0,0.22150601 -0.178494,0.40000001 -0.4,0.40000001 -0.22150599,0 -0.40000001,-0.178494 -0.40000001,-0.4 0,-0.22150599 0.17849402,-0.40000001 0.40000001,-0.40000001 z m 0.15,0.20000001 a 0.05000025,0.05000025 0 0 0 -0.0353515,0.0146484 L 0.31464858,0.61464859 a 0.05000025,0.05000025 0 0 0 0,0.0707031 0.05000025,0.05000025 0 0 0 0.0707031,0 L 0.68535169,0.38535171 a 0.05000025,0.05000025 0 0 0 0,-0.0707031 0.05000025,0.05000025 0 0 0 -0.0353516,-0.0146485 z m -0.3,0 a 0.05,0.05 0 0 0 -0.0353516,0.0146484 0.05,0.05 0 0 0 0,0.0707031 l 0.30000001,0.29999999 a 0.05,0.05 0 0 0 0.0707031,0 0.05,0.05 0 0 0 0,-0.0707031 L 0.38535171,0.31464858 a 0.05,0.05 0 0 0 -0.0353516,-0.0146484 z"/>
    </symbol>

    <symbol id="video" viewBox="0 0 1 1">
        <path d="m 0.20989344,0.15012171 c -0.0559546,0 -0.0908268,-0.002604 -0.12791207,0.016303 -0.02819405,0.014373 -0.05120101,0.0373924 -0.06556592,0.0656021 -0.01889617,0.0371056 -0.0162939212,0.0719966 -0.0162939212,0.12798285 v 0.27998038 c 0,0.0559857 -0.002603859,0.090876 0.0162939212,0.1279828 0.01436438,0.0282067 0.03736597,0.0512293 0.06556592,0.065602 0.03708524,0.0189067 0.071957,0.0163033 0.12791207,0.0163033 h 0.32978094 c 0.0559547,0 0.0908255,0.002607 0.12791214,-0.0163033 0.0281967,-0.0143733 0.0512017,-0.03739 0.0655661,-0.065602 0.0122833,-0.0241167 0.009887,-0.054508 0.0106333,-0.0831743 l 0.0587362,0.0353393 c 0.0396213,0.0237867 0.0620658,0.045102 0.10605681,0.0410013 0.0284033,-0.002647 0.054344,-0.0173133 0.0712248,-0.040318 0.0261533,-0.035636 0.0194167,-0.065939 0.0194167,-0.11216781 V 0.39134619 c 0,-0.0462313 0.00674,-0.076532 -0.0194167,-0.1121678 -0.0168833,-0.0230067 -0.0428263,-0.0376693 -0.0712248,-0.040318 -0.043997,-0.004103 -0.0664363,0.0172133 -0.10605681,0.0410013 L 0.743786,0.31520104 C 0.74303867,0.28653434 0.745433,0.25614304 0.7331527,0.23202674 0.7187894,0.20381004 0.6957775,0.18079694 0.6675866,0.16642464 0.6305003,0.14751634 0.5956291,0.15012164 0.53967446,0.15012164 Z m 0,0.0999651 h 0.32978094 c 0.0559547,0 0.0768878,0.002583 0.0825428,0.005467 0.009407,0.004793 0.0170667,0.0124633 0.0218567,0.0218667 0.002883,0.00566 0.005463,0.0266033 0.005463,0.0825882 v 0.27998037 c 0,0.0559857 -0.002582,0.0769306 -0.005463,0.0825887 -0.004787,0.009403 -0.0124567,0.0170767 -0.0218567,0.0218667 -0.005653,0.002883 -0.0265867,0.005467 -0.0825428,0.005467 H 0.20989344 c -0.0559551,0 -0.0768845,-0.002582 -0.0825428,-0.005467 -0.009399,-0.00479 -0.017063,-0.0124567 -0.0218553,-0.0218667 -0.002882,-0.005657 -0.005464,-0.0266033 -0.005464,-0.0825887 v -0.2799807 c 0,-0.055986 0.002581,-0.076927 0.005464,-0.0825881 0.004792,-0.00941 0.0124503,-0.0170733 0.0218553,-0.0218667 0.005658,-0.002885 0.0265884,-0.005467 0.0825428,-0.005467 z m 0.68941785,0.0882507 c -0.006777,-0.00923 0,0.006777 0,0.053009 v 0.2173071 c 0,0.046229 -0.00677,0.062234 0,0.053009 0.01139,-0.001062 -0.005753,-0.003453 -0.0453693,-0.0272367 L 0.74944649,0.57165484 V 0.42834532 l 0.10449581,-0.062771 c 0.0396183,-0.0237867 0.0567657,-0.0261733 0.045369,-0.0272368 z"/>
    </symbol>

    <symbol id="audio" viewBox="0 0 1 1">
        <path d="M 0.94140625,0 0.34179688,0.1015625 A 0.05000495,0.05000495 0 0 0 0.30078128,0.1503906 V 0.35742186 0.7285156 c -0.0311,-0.0141823 -0.0635728,-0.0292969 -0.1015625,-0.0292969 -0.0504283,0 -0.095901,0.0144551 -0.1328125,0.0390625 C 0.02949477,0.76288864 0,0.80172838 0,0.84960938 0,0.89749038 0.02949476,0.93828321 0.06640625,0.96289063 0.10331774,0.98749804 0.1487905,1 0.19921875,1 0.24964705,1 0.29707285,0.987498 0.33398438,0.9628906 0.37089588,0.9382832 0.40039068,0.8974904 0.40039068,0.84960935 V 0.390625 l 0.5,-0.0820313 v 0.31835937 c -0.0309753,-0.0140248 -0.0618355,-0.0273438 -0.0996094,-0.0273438 -0.0504292,0 -0.0978542,0.0125017 -0.13476563,0.0371094 -0.0369114,0.0246076 -0.0664063,0.065401 -0.0664063,0.11328125 10e-9,0.0478802 0.0294949,0.0886736 0.0664063,0.11328125 0.0369114,0.0246076 0.0843364,0.0371094 0.13476563,0.0371094 0.0504292,0 0.0959011,-0.0125018 0.1328125,-0.0371094 C 0.97050513,0.83867364 1,0.79788023 1,0.75 V 0.2421875 0.05078125 A 0.05000495,0.05000495 0 0 0 0.94140625,0 Z m -0.0410156,0.109375 v 0.0976563 l -0.5,0.0839844 V 0.1914063 Z m -0.0996094,0.58984375 c 0.0324157,0 0.0607477,0.009899 0.078125,0.0214844 0.0173773,0.0115849 0.0214844,0.021947 0.0214844,0.0292969 0,0.00735 -0.004107,0.017712 -0.0214844,0.0292969 -0.0173773,0.0115849 -0.0457093,0.0214844 -0.078125,0.0214844 -0.0324157,0 -0.0627008,-0.009899 -0.0800781,-0.0214844 C 0.7033258,0.76771198 0.69921875,0.75734983 0.69921875,0.75 c 0,-0.00735 0.004107,-0.017712 0.0214844,-0.0292969 0.0173773,-0.0115849 0.0476625,-0.0214844 0.0800781,-0.0214844 z m -0.6015625,0.1015625 c 0.0324142,0 0.0627003,0.007946 0.0800781,0.0195313 0.0173779,0.0115851 0.0214844,0.0219478 0.0214844,0.0292969 0,0.007349 -0.004107,0.0177117 -0.0214844,0.0292969 -0.0173779,0.0115851 -0.047664,0.0214844 -0.0800781,0.0214844 -0.0324142,0 -0.0607471,-0.009899 -0.078125,-0.0214844 -0.0173779,-0.0115851 -0.02148438,-0.0219478 -0.02148438,-0.0292969 0,-0.007349 0.0041065,-0.0177117 0.02148438,-0.0292969 0.0173779,-0.0115851 0.0457109,-0.0195313 0.078125,-0.0195313 z"/>
    </symbol>

    <symbol id="subtitles" viewBox="0 0 1 1">
        <path d="m 0.2109375,0.09960937 c -0.0559921,0 -0.091797,-0.001329 -0.12890625,0.01757813 C 0.05381833,0.13156081 0.02999983,0.15342893 0.015625,0.18164062 -0.00328442,0.21874903 0,0.25455801 0,0.31054688 v 0.37890624 c 0,0.0559884 -0.00328591,0.0917965 0.015625,0.12890626 0.01437441,0.0282098 0.03818827,0.0500803 0.06640625,0.0644531 0.03710928,0.0189084 0.07291354,0.0175782 0.12890625,0.0175781 h 0.578125 c 0.0559919,0 0.0917953,0.001332 0.12890625,-0.0175781 0.0282199,-0.0143721 0.0520325,-0.0362378 0.0664063,-0.0644531 C 1.0032854,0.78125001 1,0.74544189 1,0.68945312 V 0.31054688 C 1,0.25455848 1.0032845,0.21874925 0.984375,0.18164062 0.97000022,0.15342294 0.9461779,0.13156031 0.91796875,0.1171875 0.88085831,0.09827858 0.8450547,0.09960937 0.7890625,0.09960937 Z m 0,0.09960938 h 0.578125 c 0.0559922,0 0.078325,0.002976 0.0839844,0.005859 0.009412,0.004796 0.0166937,0.0120802 0.0214844,0.0214844 0.002885,0.005661 0.005859,0.027996 0.005859,0.0839844 v 0.37890624 c 0,0.0559888 -0.002976,0.0783257 -0.005859,0.0839844 -0.004791,0.009405 -0.0120833,0.0166965 -0.0214844,0.0214844 -0.005659,0.002884 -0.0279925,0.005859 -0.0839844,0.005859 h -0.578125 c -0.0559927,1.1e-7 -0.0783213,-0.002974 -0.0839844,-0.005859 -0.009406,-0.004791 -0.0166894,-0.0120742 -0.0214844,-0.0214844 -0.002883,-0.005658 -0.0058594,-0.027996 -0.0058594,-0.0839844 V 0.31054688 c 0,-0.0559889 0.0029748,-0.0783236 0.0058594,-0.0839844 0.004795,-0.00941 0.012073,-0.0166897 0.0214844,-0.0214844 0.005663,-0.002885 0.0279923,-0.005859 0.0839844,-0.005859 z m 0.13476563,0.125 c -0.0967608,0 -0.16992188,0.0869193 -0.16992188,0.18554687 0,0.0986277 0.0731612,0.18554688 0.16992188,0.18554688 0.0444331,0 0.085649,-0.0195448 0.11523437,-0.0488281 a 0.04998695,0.04998695 0 0 0 0,-0.0703125 0.04998695,0.04998695 0 0 0 -0.0703125,0 C 0.3777799,0.5888858 0.3623128,0.5957032 0.3457031,0.5957032 c -0.0361726,0 -0.0703125,-0.0354894 -0.0703125,-0.0859375 0,-0.050448 0.0341399,-0.0839844 0.0703125,-0.0839844 0.0166101,0 0.0320767,0.004864 0.0449219,0.0175781 a 0.04998695,0.04998695 0 0 0 0.0703125,0 0.04998695,0.04998695 0 0 0 0,-0.0703125 C 0.43135202,0.34376331 0.39013599,0.32421875 0.34570313,0.32421875 Z m 0.34960937,0 c -0.0967598,0 -0.16992187,0.0869191 -0.16992188,0.18554687 0,0.0986279 0.0731622,0.18554688 0.16992188,0.18554688 0.044434,0 0.0856491,-0.0195449 0.11523438,-0.0488281 a 0.04998695,0.04998695 0 0 0 0,-0.0703125 0.04998695,0.04998695 0 0 0 -0.0703125,0 c -0.0128451,0.012714 -0.0283099,0.0195313 -0.0449219,0.0195313 -0.0361698,0 -0.0703125,-0.0354896 -0.0703125,-0.0859375 0,-0.0504478 0.0341427,-0.0839844 0.0703125,-0.0839844 0.0166119,0 0.0320776,0.004865 0.0449219,0.0175781 a 0.04998695,0.04998695 0 0 0 0.0703125,0 0.04998695,0.04998695 0 0 0 0,-0.0703125 C 0.78096119,0.3437627 0.73974602,0.32421875 0.6953125,0.32421875 Z"/>
    </symbol>

    <symbol id="image" viewBox="0 0 1 1">
        <path d="m 0.23448541,2.0813055e-4 c -0.0621863,0 -0.10130406,-0.003429601 -0.14251881,0.0175708195 C 0.06063316,0.03374334 0.03374336,0.06063122 0.01777874,0.0919668 -0.0032219,0.13318188 2.0792361e-4,0.17229988 2.0792361e-4,0.23448559 v 0.53102889 c 0,0.0365031 7.4382136e-4,0.0641464 0.003904626,0.0898064 0.00222297,0.0180573 0.00499662,0.0356952 0.01366619,0.0527125 0.01596408,0.0313301 0.04284779,0.0582232 0.07418786,0.0741879 0.04121508,0.0210016 0.08033249,0.0175707 0.14251881,0.0175707 h 0.53102897 c 0.0363253,0 0.0642521,-7.9433e-4 0.0898064,-0.003904 0.0181797,-0.002209 0.0355616,-0.004923 0.0527125,-0.0136662 0.0313367,-0.0159639 0.0582239,-0.0428511 0.0741879,-0.0741879 0.021002,-0.0412164 0.0175707,-0.0803331 0.0175707,-0.14251896 V 0.74989598 0.23448559 c 0,-0.0621857 0.003429,-0.10130371 -0.0175708,-0.14251879 C 0.96625647,0.06062635 0.93936331,0.03374293 0.90803318,0.01777895 0.86681685,-0.0032232 0.82770009,2.0813055e-4 0.76551438,2.0813055e-4 Z m 0,0.11128178945 h 0.53102897 c 0.0621857,0 0.087426,0.002654 0.093711,0.005857 0.0104527,0.005326 0.0181068,0.012982 0.0234277,0.0234277 0.003204,0.006288 0.005857,0.0315253 0.005857,0.093711 v 0.3904628 c -0.0196932,-0.0183465 -0.0393109,-0.0421982 -0.0644263,-0.0507602 -0.0335938,-0.0114537 -0.0696127,-0.0126366 -0.10347256,-0.001952 -0.0360518,0.0113755 -0.06227,0.0389668 -0.093711,0.0702832 L 0.5722354,0.58785405 c -0.0446881,-0.0443217 -0.0706521,-0.073784 -0.11518643,-0.087854 -0.0338176,-0.0106816 -0.0698876,-0.0114165 -0.10347255,0 -0.0442177,0.0150319 -0.0695158,0.0464892 -0.11323412,0.0917587 v -0.001952 L 0.11148972,0.71670667 V 0.23448559 c 0,-0.0621857 0.002653,-0.0874227 0.005857,-0.093711 0.005325,-0.0104505 0.012975,-0.0181021 0.0234277,-0.0234277 0.006288,-0.003205 0.0315247,-0.005857 0.093711,-0.005857 z m 0.43146103,0.0546647 c -0.0913284,0 -0.16594655,0.0765722 -0.16594655,0.16789885 0,0.0913277 0.0746191,0.16594652 0.16594655,0.16594652 0.0913275,0 0.16789887,-0.0746188 0.16789887,-0.16594652 0,-0.0913266 -0.0765703,-0.16789885 -0.16789887,-0.16789885 z m 0,0.11128179 c 0.0313221,0 0.056617,0.0252967 0.056617,0.056617 0,0.0313239 -0.0252939,0.0546647 -0.056617,0.0546647 -0.031323,0 -0.0546648,-0.023341 -0.0546648,-0.0546647 0,-0.0313206 0.0233428,-0.056617 0.0546648,-0.056617 z M 0.38871809,0.60542489 c 0.0111984,-0.003806 0.0238564,-0.003565 0.0351417,0 0.006742,0.00213 0.0255986,0.0162033 0.0702833,0.0605217 l 0.0917586,0.0917587 0.13080492,0.13080492 h -0.4822212 c -0.0621863,0 -0.0874227,-0.002653 -0.093711,-0.005857 -0.007835,-0.003991 -0.0124477,-0.0105253 -0.0175708,-0.0175708 L 0.31843485,0.66985118 a 0.05552345,0.05552344 0 0 0 0.001952,-0.001952 c 0.043718,-0.045269 0.0616276,-0.0601951 0.0683312,-0.0624743 z m 0.36508241,0.0722355 c 0.0112876,-0.003562 0.0239216,-0.003825 0.0351417,0 0.006688,0.00228 0.0246219,0.0190406 0.068331,0.0644263 a 0.05552345,0.05552344 0 0 0 0.001952,0 l 0.0292847,0.0292847 c -3.2348e-4,0.0538595 -0.002854,0.0819604 -0.005857,0.087854 -0.004434,0.008705 -0.0113901,0.014237 -0.0195232,0.0195232 L 0.7069453,0.7206113 C 0.7268338,0.7024297 0.7492346,0.6791012 0.7538005,0.67766039 Z"/>
    </symbol>
</svg>
