<?xml version="1.0" encoding="utf-8"?>
<svg version="1.1" xmlns="http://www.w3.org/2000/svg">
    <symbol id="playlist" viewBox="0 0 24 24">
        <path d="M2.25 6C2.25 5.58579 2.58579 5.25 3 5.25H21C21.4142 5.25 21.75 5.58579 21.75 6C21.75 6.41421 21.4142 6.75 21 6.75H3C2.58579 6.75 2.25 6.41421 2.25 6ZM2.25 10C2.25 9.58579 2.58579 9.25 3 9.25H21C21.4142 9.25 21.75 9.58579 21.75 10C21.75 10.4142 21.4142 10.75 21 10.75H3C2.58579 10.75 2.25 10.4142 2.25 10ZM2.25 14C2.25 13.5858 2.58579 13.25 3 13.25H11C11.4142 13.25 11.75 13.5858 11.75 14C11.75 14.4142 11.4142 14.75 11 14.75H3C2.58579 14.75 2.25 14.4142 2.25 14ZM2.25 18C2.25 17.5858 2.58579 17.25 3 17.25H11C11.4142 17.25 11.75 17.5858 11.75 18C11.75 18.4142 11.4142 18.75 11 18.75H3C2.58579 18.75 2.25 18.4142 2.25 18Z"/>
        <path d="M18.875 14.1184C20.5288 15.0733 21.3558 15.5507 21.4772 16.2395C21.5076 16.4118 21.5076 16.5882 21.4772 16.7605C21.3558 17.4493 20.5288 17.9267 18.875 18.8816C17.2212 19.8364 16.3942 20.3138 15.737 20.0746C15.5725 20.0148 15.4199 19.9266 15.2858 19.8141C14.75 19.3645 14.75 18.4097 14.75 16.5C14.75 14.5903 14.75 13.6355 15.2858 13.1859C15.4199 13.0734 15.5725 12.9852 15.737 12.9254C16.3942 12.6862 17.2212 13.1636 18.875 14.1184Z"/>
    </symbol>

    <symbol id="play" viewBox="0 0 32 32">
        <path d="M5.92 24.096q0 1.088 0.928 1.728 0.512 0.288 1.088 0.288 0.448 0 0.896-0.224l16.16-8.064q0.48-0.256 0.8-0.736t0.288-1.088-0.288-1.056-0.8-0.736l-16.16-8.064q-0.448-0.224-0.896-0.224-0.544 0-1.088 0.288-0.928 0.608-0.928 1.728v16.16z"/>
    </symbol>

    <symbol id="edit" viewBox="0 0 24 24">
        <path d="m 22.747372,1.0470306 c -1.393775,-1.39603485 -3.653369,-1.39604676 -5.047146,0 l -1.99835,2.0016381 -9.4052675,9.4206763 c -0.1524636,0.152762 -0.2606134,0.344132 -0.3129099,0.553614 l -1.1896352,4.766374 c -0.1013563,0.406094 0.017427,0.835663 0.3129097,1.131536 0.2954818,0.295992 0.7243334,0.415032 1.1297372,0.313508 l 4.7584947,-1.191593 c 0.209256,-0.05243 0.400193,-0.160747 0.552703,-0.313509 L 20.88476,8.3771398 22.951514,6.306973 c 1.393775,-1.3960348 1.393775,-3.6594661 0,-5.0555009 z m -3.364765,1.6851629 c 0.464553,-0.465341 1.217831,-0.465341 1.682384,0 l 0.204141,0.2044416 c 0.464552,0.465353 0.464552,1.219834 0,1.685175 L 20.059868,5.8330884 18.209509,3.9072474 Z M 16.52677,5.5927202 18.377129,7.5185611 10.098576,15.810811 7.5831751,16.440687 8.2120044,13.921183 Z M 2.3792705,7.3540021 c 0,-0.6580931 0.5326235,-1.1915932 1.1896353,-1.1915932 h 5.948176 c 0.6570352,0 1.1896352,-0.5334881 1.1896352,-1.1915931 0,-0.6580932 -0.5326,-1.1915933 -1.1896352,-1.1915933 H 3.5689058 C 1.5978585,3.7792225 0,5.379711 0,7.3540021 V 20.461481 c 0,1.97435 1.5978585,3.574778 3.5689058,3.574778 H 16.654893 c 1.971107,0 3.568906,-1.600428 3.568906,-3.574778 v -5.957968 c 0,-0.657997 -0.532599,-1.191592 -1.189635,-1.191592 -0.657035,0 -1.189635,0.533595 -1.189635,1.191592 v 5.957968 c 0,0.658116 -0.5326,1.191591 -1.189636,1.191591 H 3.5689058 c -0.6570118,0 -1.1896353,-0.533475 -1.1896353,-1.191591 z"/>
    </symbol>

    <symbol id="edit2" viewBox="0 0 16 16">
        <path d="M8.29289 3.70711L1 11V15H5L12.2929 7.70711L8.29289 3.70711Z"/>
        <path d="M9.70711 2.29289L13.7071 6.29289L15.1716 4.82843C15.702 4.29799 16 3.57857 16 2.82843C16 1.26633 14.7337 0 13.1716 0C12.4214 0 11.702 0.297995 11.1716 0.828428L9.70711 2.29289Z"/>
    </symbol>

    <symbol id="delete" viewBox="0 0 24 24">
        <path d="M 7.5000004,2.6666667 C 7.5000004,1.1939067 8.8431444,0 10.5,0 h 2.999999 C 15.156901,0 16.5,1.1939067 16.5,2.6666667 v 1.3333332 h 3 3 c 0.828451,0 1.5,0.5969602 1.5,1.3333336 0,0.7363733 -0.671549,1.3333331 -1.5,1.3333331 H 21 V 20 c 0,2.209201 -2.014649,4 -4.5,4 H 7.5000004 C 5.0147249,24 2.9999999,22.209201 2.9999999,20 V 6.6666666 H 1.5 C 0.67158002,6.6666666 0,6.0697068 0,5.3333335 0,4.5969601 0.67158002,3.9999999 1.5,3.9999999 H 4.4999999 7.5000004 Z M 9.0000005,6.6666666 H 5.9999999 V 20 c 0,0.736401 0.67158,1.333334 1.5000005,1.333334 H 16.5 C 17.32845,21.333334 18,20.736401 18,20 V 6.6666666 H 15 Z M 13.499999,3.9999999 H 10.5 V 2.6666667 h 2.999999 z M 9.0000005,7.9999994 C 9.8284493,7.9999994 10.5,8.5969606 10.5,9.3333339 V 18.666667 C 10.5,19.403068 9.8284493,20 9.0000005,20 8.1715801,20 7.5000004,19.403068 7.5000004,18.666667 V 9.3333339 c 0,-0.7363733 0.6715797,-1.3333345 1.5,-1.3333345 z m 5.9999995,0 c 0.82845,0 1.5,0.5969612 1.5,1.3333345 V 18.666667 C 16.5,19.403068 15.82845,20 15,20 14.171549,20 13.499999,19.403068 13.499999,18.666667 V 9.3333339 c 0,-0.7363733 0.67155,-1.3333345 1.500001,-1.3333345 z"/>
    </symbol>

    <symbol id="user" viewBox="0 0 16 16">
        <path d="M8 7C9.65685 7 11 5.65685 11 4C11 2.34315 9.65685 1 8 1C6.34315 1 5 2.34315 5 4C5 5.65685 6.34315 7 8 7Z"/>
        <path d="M14 12C14 10.3431 12.6569 9 11 9H5C3.34315 9 2 10.3431 2 12V15H14V12Z"/>
    </symbol>

    <symbol id="settings" viewBox="0 0 24 24">
        <path d="M9.024 2.783A1 1 0 0 1 10 2h4a1 1 0 0 1 .976.783l.44 1.981c.4.19.781.41 1.14.66l1.938-.61a1 1 0 0 1 1.166.454l2 3.464a1 1 0 0 1-.19 1.237l-1.497 1.373a8.1 8.1 0 0 1 0 1.316l1.497 1.373a1 1 0 0 1 .19 1.237l-2 3.464a1 1 0 0 1-1.166.454l-1.937-.61c-.36.25-.741.47-1.14.66l-.44 1.98A1 1 0 0 1 14 22h-4a1 1 0 0 1-.976-.783l-.44-1.981c-.4-.19-.781-.41-1.14-.66l-1.938.61a1 1 0 0 1-1.166-.454l-2-3.464a1 1 0 0 1 .19-1.237l1.497-1.373a8.097 8.097 0 0 1 0-1.316L2.53 9.97a1 1 0 0 1-.19-1.237l2-3.464a1 1 0 0 1 1.166-.454l1.937.61c.36-.25.741-.47 1.14-.66l.44-1.98zM12 15a3 3 0 1 0 0-6 3 3 0 0 0 0 6z"/>
    </symbol>

    <symbol id="upload" viewBox="0 0 24 24">
        <path d="M23 22C23 22.5523 22.5523 23 22 23H2C1.44772 23 1 22.5523 1 22C1 21.4477 1.44772 21 2 21H22C22.5523 21 23 21.4477 23 22Z"/>
        <path d="M10.6901 1.31192C11.4419 0.660428 12.5581 0.66043 13.3099 1.31193L18.1291 5.48863C19.5282 6.70117 18.6707 9.00001 16.8193 9.00001H15V17C15 18.1046 14.1046 19 13 19H11C9.89543 19 9 18.1046 9 17V9.00001H7.18073C5.32932 9.00001 4.47178 6.70117 5.87086 5.48863L10.6901 1.31192ZM12.6549 3.39091C12.2791 3.06516 11.7209 3.06516 11.3451 3.39091L7.18073 7.00001L9.5 7.00001C10.3284 7.00001 11 7.67158 11 8.50001V17H13V8.50001C13 7.67158 13.6716 7.00001 14.5 7.00001H16.8193L12.6549 3.39091Z"/>
    </symbol>

    <symbol id="dropdown" viewBox="0 0 16 16">
        <path d="M8 1.25a2.101 2.101 0 00-1.785.996l.64.392-.642-.388-5.675 9.373-.006.01a2.065 2.065 0 00.751 2.832c.314.183.67.281 1.034.285h11.366a2.101 2.101 0 001.791-1.045 2.064 2.064 0 00-.006-2.072L9.788 2.25l-.003-.004A2.084 2.084 0 008 1.25z"/>
    </symbol>

    <symbol id="dropdown2" viewBox="0 0 12 12">
        <path d="m 6.9005326,10.117713 c -0.390731,0.509716 -1.410329,0.509716 -1.801061,0 L 0.29664426,3.721808 C -0.09410664,3.2120515 -0.10122024,2.380379 0.28953026,1.8706235 0.68029106,1.3608811 1.7069433,1.3846636 2.0977043,1.8944059 l 3.9023113,5.1776379 3.902284,-5.1776379 c 0.3907314,-0.5097423 1.4174594,-0.5335248 1.8081894,-0.023782 0.390731,0.5097555 0.383603,1.341428 -0.0071,1.8511841 z"/>
    </symbol>

    <symbol id="tv" viewBox="0 0 32 32">
        <path d="M26 26.75h-20c-0.69 0-1.25 0.56-1.25 1.25s0.56 1.25 1.25 1.25v0h20c0.69 0 1.25-0.56 1.25-1.25s-0.56-1.25-1.25-1.25v0zM28 2.75h-24c-1.794 0.002-3.248 1.456-3.25 3.25v16c0.002 1.794 1.456 3.248 3.25 3.25h24c1.794-0.001 3.249-1.456 3.25-3.25v-16c-0.002-1.794-1.456-3.248-3.25-3.25h-0zM28.75 22c-0 0.414-0.336 0.75-0.75 0.75h-24c-0.414-0-0.75-0.336-0.75-0.75v-16c0.001-0.414 0.336-0.749 0.75-0.75h24c0.414 0 0.75 0.336 0.75 0.75v0z"></path>
    </symbol>

    <symbol id="playlist2" viewBox="2 2 20 20">
        <path d="M2.25 6C2.25 5.58579 2.58579 5.25 3 5.25H21C21.4142 5.25 21.75 5.58579 21.75 6C21.75 6.41421 21.4142 6.75 21 6.75H3C2.58579 6.75 2.25 6.41421 2.25 6ZM2.25 10C2.25 9.58579 2.58579 9.25 3 9.25H21C21.4142 9.25 21.75 9.58579 21.75 10C21.75 10.4142 21.4142 10.75 21 10.75H3C2.58579 10.75 2.25 10.4142 2.25 10ZM2.25 14C2.25 13.5858 2.58579 13.25 3 13.25H11C11.4142 13.25 11.75 13.5858 11.75 14C11.75 14.4142 11.4142 14.75 11 14.75H3C2.58579 14.75 2.25 14.4142 2.25 14ZM2.25 18C2.25 17.5858 2.58579 17.25 3 17.25H11C11.4142 17.25 11.75 17.5858 11.75 18C11.75 18.4142 11.4142 18.75 11 18.75H3C2.58579 18.75 2.25 18.4142 2.25 18Z"/>
        <path d="M18.875 14.1184C20.5288 15.0733 21.3558 15.5507 21.4772 16.2395C21.5076 16.4118 21.5076 16.5882 21.4772 16.7605C21.3558 17.4493 20.5288 17.9267 18.875 18.8816C17.2212 19.8364 16.3942 20.3138 15.737 20.0746C15.5725 20.0148 15.4199 19.9266 15.2858 19.8141C14.75 19.3645 14.75 18.4097 14.75 16.5C14.75 14.5903 14.75 13.6355 15.2858 13.1859C15.4199 13.0734 15.5725 12.9852 15.737 12.9254C16.3942 12.6862 17.2212 13.1636 18.875 14.1184Z"/>
    </symbol>

    <symbol id="chat" viewBox="2 2 20 20">
        <path d="M 4,3 C 2.9072695,3 2,3.9072695 2,5 v 11 a 1.0001,1.0001 0 0 0 1.6386719,0.769531 L 6.9726562,14 H 7 v 2 c 0,1.092719 0.9072934,2 2,2 h 8.027344 l 3.333984,2.769531 A 1.0001,1.0001 0 0 0 22,20 V 9 C 22,7.9072936 21.092731,7 20,7 H 17 V 5 C 17,3.9072936 16.092731,3 15,3 Z m 0,2 h 11 v 3 4 H 8 6.9726562 C 6.5058943,12 6.0530467,12.162233 5.6933594,12.460938 L 4,13.869141 Z m 13,4 h 3 v 8.869141 l -1.693359,-1.408204 v 0.002 C 17.947021,16.163976 17.494391,16 17.027344,16 H 9 v -2 h 6 c 1.092707,0 2,-0.907293 2,-2 z"/>
    </symbol>

    <symbol id="history" viewBox="0 0 19.5 19.5">
        <path d="M 9.75,5 A 0.75,0.75 0 0 0 9,5.75 v 4 a 0.750075,0.750075 0 0 0 0.21875,0.53125 l 2.5,2.5 a 0.75,0.75 0 0 0 1.0625,0 0.75,0.75 0 0 0 0,-1.0625 L 10.5,9.439453 V 5.75 A 0.75,0.75 0 0 0 9.75,5 Z"/>
        <path d="M 3.35423,3.35423 2.8239,2.8239 v 0 z M 2.08785,4.62061 1.33786,4.62438 C 1.33992,5.03564 1.67281,5.36853 2.08408,5.3706 Z M 4.62963,5.38339 C 5.04384,5.38547 5.38131,5.05138 5.38339,4.63717 5.38547,4.22296 5.05138,3.88549 4.63717,3.88341 Z M 2.82505,2.07129 C 2.82296,1.65708 2.4855,1.32298 2.07129,1.32506 1.65708,1.32715 1.32298,1.66462 1.32507,2.07882 Z M 1.5,9.75 C 1.5,9.3358 1.16421,9 0.75,9 0.33579,9 0,9.3358 0,9.75 Z m 13.1255,8.4452 c 0.3586,-0.2074 0.4811,-0.6662 0.2737,-1.0248 -0.2074,-0.3585 -0.6662,-0.4811 -1.0247,-0.2736 z m 2.2713,-4.3207 c -0.2075,0.3585 -0.0849,0.8173 0.2736,1.0247 0.3586,0.2074 0.8174,0.0849 1.0248,-0.2737 z M 2.89033,2.82126 C 2.59598,3.11269 2.59361,3.58756 2.88505,3.88191 3.17648,4.17626 3.65134,4.17862 3.94569,3.88719 Z M 16.6123,2.88786 C 12.7921,-0.93234 6.61882,-0.97102 2.8239,2.8239 L 3.88456,3.88456 C 7.08366,0.68545 12.3072,0.70404 15.5517,3.94852 Z M 2.8239,2.8239 1.55752,4.09028 2.61818,5.15094 3.88456,3.88456 Z M 2.08408,5.3706 4.62963,5.38339 4.63717,3.88341 2.09162,3.87062 Z M 2.83784,4.61684 2.82505,2.07129 1.32507,2.07882 1.33786,4.62438 Z M 9.75,1.5 C 14.3063,1.5 18,5.19365 18,9.75 h 1.5 C 19.5,4.36522 15.1348,0 9.75,0 Z m 0,16.5 C 5.19365,18 1.5,14.3063 1.5,9.75 H 0 c 0,5.3848 4.36522,9.75 9.75,9.75 z m 4.1245,-1.1032 C 12.6618,17.5983 11.2539,18 9.75,18 v 1.5 c 1.7747,0 3.4407,-0.4748 4.8755,-1.3048 z M 18,9.75 c 0,1.5039 -0.4017,2.9118 -1.1032,4.1245 l 1.2984,0.751 C 19.0252,13.1907 19.5,11.5247 19.5,9.75 Z M 3.94569,3.88719 C 5.43707,2.41059 7.48646,1.5 9.75,1.5 V 0 C 7.07542,0 4.65113,1.07791 2.89033,2.82126 Z"/>
    </symbol>

    <symbol id="next" viewBox="0 -2 400 400">
        <path d="M 389.60891,222.27995 240.32106,331.86923 c -21.20774,15.01558 -40.24802,0.73503 -40.24802,-24.25595 V 237.92556 L 59.355002,331.86923 C 38.180606,346.88481 -4e-7,332.60426 -4e-7,307.61328 V 88.399719 C -4e-7,63.408742 38.180606,49.128186 59.355002,64.10877 L 200.07304,158.08744 V 88.399719 c 0,-24.990977 19.04028,-39.271533 40.24802,-24.290949 l 143.68578,109.62429 c 17.1396,12.14547 22.74164,36.40142 5.60207,48.54689"/>
    </symbol>

    <symbol id="shuffle" viewBox="0 0 20 18">
        <path d="m 15.292969,0.29281739 a 1,1 0 0 0 0,1.41406241 l 1.292968,1.2929688 H 15 c -0.9293,0 -1.437747,-0.011086 -1.974609,0.095703 -1.980582,0.3939818 -3.5357419,1.9490711 -3.9296879,3.9296879 -0.106521,0.536349 -0.095703,1.046225 -0.095703,1.974609 0,0.9293 -0.01165,1.3500705 -0.05859,1.5859385 -0.237252,1.192801 -1.1626209,2.118213 -2.3554685,2.355468 -0.2358674,0.04694 -0.6566315,0.05859 -1.5859415,0.05859 h -4 a 1,1 0 0 0 -0.9999999587204,1 1,1 0 0 0 0.9999999587204,1 h 4 c 0.92931,0 1.4376928,0.01115 1.9746094,-0.0957 1.9800446,-0.393828 3.5351685,-1.947976 3.9296875,-3.927734 v -0.002 C 11.010818,10.438109 11,9.9282326 11,8.9998486 c 0,-0.9293 0.01165,-1.35007 0.05859,-1.585937 0.237253,-1.1928241 1.16265,-2.118191 2.355469,-2.3554692 C 13.65,5.0115114 14.0707,4.9998486 15,4.9998486 h 1.585937 l -1.292968,1.2929688 a 1,1 0 0 0 0,1.4140622 1,1 0 0 0 1.414062,0 l 3,-2.9999998 A 1,1 0 0 0 19.966797,4.0799267 1,1 0 0 0 20,3.9998486 1,1 0 0 0 19.966797,3.833833 1,1 0 0 0 19.939453,3.6912548 1,1 0 0 0 19.707031,3.2928173 l -3,-2.99999991 a 1,1 0 0 0 -1.414062,0 z M 1.0,2.9998486 a 1,1 0 0 0 -0.9999999587204,1 1,1 0 0 0 0.9999999587204,1 h 4 c 0.92931,0 1.3500047,0.011662 1.5859375,0.058594 0.055703,0.011082 0.1097699,0.023105 0.1640625,0.037109 a 1,1 0 0 0 1.21875,-0.71875 1,1 0 0 0 -0.71875,-1.21875 C 7.1594527,3.134696 7.0668859,3.1139097 6.9746095,3.0955517 6.4377623,2.988763 5.9293101,2.9998486 5.0,2.9998486 Z M 15.292969,10.292818 a 1,1 0 0 0 0,1.414062 l 1.292968,1.292969 H 15 c -0.9293,0 -1.35007,-0.01165 -1.585937,-0.05859 -0.05586,-0.01111 -0.110322,-0.02323 -0.164063,-0.03711 a 1,1 0 0 0 -1.21875,0.71875 1,1 0 0 0 0.71875,1.21875 c 0.09106,0.02352 0.183453,0.04421 0.275391,0.0625 0.536349,0.106518 1.046225,0.0957 1.974609,0.0957 h 1.585937 l -1.292968,1.292969 a 1,1 0 0 0 0,1.414062 1,1 0 0 0 1.414062,0 l 3,-3 A 1,1 0 0 0 20,13.999849 1,1 0 0 0 19.923828,13.617036 1,1 0 0 0 19.707031,13.292818 l -3,-3 a 1,1 0 0 0 -1.414062,0 z"/>
    </symbol>

    <symbol id="loop" viewBox="0 0 20 20">
        <path d="M20 7v7c0 1.103-.896 2-2 2H2c-1.104 0-2-.897-2-2V7a2 2 0 0 1 2-2h7V3l4 3.5L9 10V8H3v5h14V8h-3V5h4a2 2 0 0 1 2 2z"/>
    </symbol>

    <symbol id="autoplay" viewBox="0 0 16 16">
        <path fill-rule="evenodd" d="M5.23331,0.493645 C6.8801,-0.113331 8.6808,-0.161915 10.3579,0.355379 C11.4019,0.6773972 12.361984,1.20757325 13.1838415,1.90671757 L13.4526,2.14597 L14.2929,1.30564 C14.8955087,0.703065739 15.9071843,1.0850774 15.994017,1.89911843 L16,2.01275 L16,6.00002 L12.0127,6.00002 C11.1605348,6.00002 10.7153321,5.01450817 11.2294893,4.37749065 L11.3056,4.29291 L12.0372,3.56137 C11.389,2.97184 10.6156,2.52782 9.76845,2.26653 C8.5106,1.87856 7.16008,1.915 5.92498,2.37023 C4.68989,2.82547 3.63877,3.67423 2.93361,4.78573 C2.22844,5.89723 1.90836,7.20978 2.02268,8.52112 C2.13701,9.83246 2.6794,11.0698 3.56627,12.0425 C4.45315,13.0152 5.63528,13.6693 6.93052,13.9039 C8.22576,14.1385 9.56221,13.9407 10.7339,13.3409 C11.9057,12.7412 12.8476,11.7727 13.4147,10.5848 C13.6526,10.0864 14.2495,9.8752 14.748,10.1131 C15.2464,10.351 15.4575,10.948 15.2196,11.4464 C14.4635,13.0302 13.2076,14.3215 11.6453,15.1213 C10.0829,15.921 8.30101,16.1847 6.57402,15.8719 C4.84704,15.559 3.27086,14.687 2.08836,13.39 C0.905861,12.0931 0.182675,10.4433 0.0302394,8.69483 C-0.122195,6.94637 0.304581,5.1963 1.2448,3.7143 C2.18503,2.2323 3.58652,1.10062 5.23331,0.493645 Z M6,5.46077 C6,5.09472714 6.37499031,4.86235811 6.69509872,5.0000726 L6.7678,5.03853 L10.7714,7.57776 C11.0528545,7.75626909 11.0784413,8.14585256 10.8481603,8.36273881 L10.7714,8.42224 L6.7678,10.9615 C6.45867857,11.1575214 6.06160816,10.965274 6.00646097,10.6211914 L6,10.5392 L6,5.46077 Z"/>
    </symbol>

    <symbol id="search" viewBox="0 0 512 512">
        <path d="M332.998,291.918c52.2-71.895,45.941-173.338-18.834-238.123c-71.736-71.728-188.468-71.728-260.195,0 c-71.746,71.745-71.746,188.458,0,260.204c64.775,64.775,166.218,71.034,238.104,18.844l14.222,14.203l40.916-40.916 L332.998,291.918z M278.488,278.333c-52.144,52.134-136.699,52.144-188.852,0c-52.152-52.153-52.152-136.717,0-188.861 c52.154-52.144,136.708-52.144,188.852,0C330.64,141.616,330.64,226.18,278.488,278.333z"/>
        <path d="M109.303,119.216c-27.078,34.788-29.324,82.646-6.756,119.614c2.142,3.489,6.709,4.603,10.208,2.46 c3.49-2.142,4.594-6.709,2.462-10.198v0.008c-19.387-31.7-17.45-72.962,5.782-102.771c2.526-3.228,1.946-7.898-1.292-10.405 C116.48,115.399,111.811,115.979,109.303,119.216z"/>
        <path d="M501.499,438.591L363.341,315.178l-47.98,47.98l123.403,138.168c12.548,16.234,35.144,13.848,55.447-6.456 C514.505,474.576,517.743,451.138,501.499,438.591z"/>
    </symbol>

    <symbol id="arrow_down" viewBox="0 0 24 24">
        <path d="M5.08884 12.7055C5.26942 12.2784 5.69482 12 6.16669 12H9V5C9 4.44772 9.44772 4 10 4H14C14.5523 4 15 4.44771 15 5V12H17.8333C18.3052 12 18.7306 12.2784 18.9112 12.7055C19.0917 13.1326 18.9919 13.6241 18.6583 13.951L12.825 19.6653C12.3693 20.1116 11.6307 20.1116 11.175 19.6653L5.34174 13.951C5.00808 13.6241 4.90826 13.1326 5.08884 12.7055Z"/>
    </symbol>

    <symbol id="arrow_up" viewBox="0 0 24 24">
        <path d="M5.08884 11.2945C5.26942 11.7216 5.69482 12 6.16669 12H9V19C9 19.5523 9.44772 20 10 20H14C14.5523 20 15 19.5523 15 19V12H17.8333C18.3052 12 18.7306 11.7216 18.9112 11.2945C19.0917 10.8674 18.9919 10.3759 18.6583 10.049L12.825 4.33474C12.3693 3.88842 11.6307 3.88842 11.175 4.33474L5.34174 10.049C5.00808 10.3759 4.90826 10.8674 5.08884 11.2945Z"/>
    </symbol>

    <symbol id="thumbnail_play" viewBox="0 0 512 512">
        <path d="M256,0C114.511,0,0,114.497,0,256c0,141.49,114.495,256,256,256c141.49,0,256-114.497,256-256C512,114.51,397.503,0,256,0 z M348.238,284.418l-120.294,69.507c-10.148,5.864-22.661,5.874-32.826,0.009c-10.158-5.862-16.415-16.699-16.415-28.426V186.493 c0-11.728,6.258-22.564,16.415-28.426c5.076-2.93,10.741-4.395,16.406-4.395c5.67,0,11.341,1.468,16.42,4.402l120.295,69.507 c10.149,5.864,16.4,16.696,16.4,28.418C364.639,267.722,358.387,278.553,348.238,284.418z"/>
    </symbol>

    <symbol id="clear" viewBox="0 0 20 20">
        <path d="m 7.0,6.0 a 1,1 0 0 0 -0.7070312,0.2929688 1,1 0 0 0 0,1.4140625 l 6.0,5.9999996 a 1,1 0 0 0 1.414062,0 1,1 0 0 0 0,-1.414062 L 7.7070314,6.2929689 A 1,1 0 0 0 7.0,6.0 Z"/>
        <path d="M 13,6.0 A 1.000005,1.000005 0 0 0 12.292969,6.2929689 L 6.2929689,12.292969 a 1.000005,1.000005 0 0 0 0,1.414062 1.000005,1.000005 0 0 0 1.4140625,0 L 13.707031,7.7070314 a 1.000005,1.000005 0 0 0 0,-1.4140625 A 1.000005,1.000005 0 0 0 13,6.0 Z"/>
        <path d="M 10,1.412796e-7 C 4.4889945,1.412796e-7 1.412796e-7,4.4889945 1.412796e-7,10 1.412796e-7,15.511006 4.4889945,20 10,20 15.511006,20 20,15.511006 20,10 20,4.4889945 15.511006,1.412796e-7 10,1.412796e-7 Z M 10,2.0 c 4.43012,0 8,3.5698801 8,7.9999999 0,4.43012 -3.56988,8 -8,8 C 5.5698802,18 2.0,14.43012 2.0,10 2.0,5.5698802 5.5698802,2.0 10,2.0 Z"/>
    </symbol>

    <symbol id="video" viewBox="0 0 0.6 0.6">
        <path d="m 0.12593609,0.090073 c -0.03357277,0 -0.05449611,-0.0015623 -0.07674726,0.0097818 C 0.0322724,0.10847858 0.01846822,0.12229023 0.00984927,0.13921608 -0.00148843,0.16147946 7.29171e-5,0.18241404 7.29171e-5,0.21600581 v 0.16798826 c 0,0.0335914 -0.0015623171,0.0545256 0.0097763529,0.0767897 0.00861863,0.016924 0.02241959,0.0307376 0.03933956,0.0393612 0.02225115,0.011344 0.04317421,0.009782 0.07674726,0.009782 H 0.3238047 c 0.0335728,0 0.0544953,0.001564 0.0767473,-0.009782 0.016918,-0.008624 0.030721,-0.022434 0.0393397,-0.0393612 0.00737,-0.01447 0.005932,-0.0327048 0.00638,-0.0499046 l 0.0352417,0.0212036 c 0.0237728,0.014272 0.0372395,0.0270612 0.0636341,0.0246008 0.017042,-0.001588 0.0326064,-0.010388 0.0427349,-0.0241908 0.015692,-0.0213816 0.01165,-0.0395634 0.01165,-0.0673007 V 0.23480772 c 0,-0.0277388 0.004044,-0.0459192 -0.01165,-0.0673007 -0.01013,-0.013804 -0.0256958,-0.0226016 -0.0427349,-0.0241908 -0.0263982,-0.002462 -0.0398618,0.010328 -0.0636341,0.0246008 l -0.0352417,0.0212036 c -4.484e-4,-0.0172 9.882e-4,-0.0354348 -0.00638,-0.0499046 C 0.4312737,0.12228602 0.4174666,0.10847812 0.400552,0.09985473 0.3783002,0.08850974 0.3573775,0.09007293 0.3238047,0.09007293 Z m 0,0.05997909 H 0.3238047 c 0.0335728,0 0.0461327,0.00155 0.0495257,0.00328 0.005644,0.002876 0.01024,0.007478 0.013114,0.01312 0.00173,0.003396 0.003278,0.015962 0.003278,0.0495529 v 0.16798826 c 0,0.0335914 -0.001549,0.0461584 -0.003278,0.0495532 -0.002872,0.005642 -0.007474,0.010246 -0.013114,0.01312 -0.003392,0.00173 -0.015952,0.00328 -0.0495257,0.00328 H 0.12593609 c -0.03357307,0 -0.04613074,-0.001549 -0.04952569,-0.00328 -0.0056396,-0.002874 -0.01023781,-0.007474 -0.01311321,-0.01312 -0.001729,-0.003394 -0.0032782,-0.015962 -0.0032782,-0.0495532 V 0.21600503 c 0,-0.0335916 0.0015484,-0.0461562 0.0032782,-0.0495529 0.0028752,-0.005646 0.0074702,-0.010244 0.01311321,-0.01312 0.003395,-0.001731 0.01595302,-0.00328 0.04952569,-0.00328 z m 0.4136508,0.0529504 c -0.004066,-0.005538 0,0.004066 0,0.0318054 v 0.13038429 c 0,0.0277374 -0.004062,0.0373404 0,0.0318054 0.006834,-6.37e-4 -0.003452,-0.002072 -0.0272216,-0.016342 L 0.44966799,0.34299293 V 0.2570072 l 0.0626975,-0.0376626 c 0.023771,-0.014272 0.0340594,-0.015704 0.0272214,-0.0163421 z"/>
    </symbol>

    <symbol id="audio" viewBox="0 0 1 1">
        <path d="M 0.94140625,0 0.34179688,0.1015625 A 0.05000495,0.05000495 0 0 0 0.30078128,0.1503906 V 0.35742186 0.7285156 c -0.0311,-0.0141823 -0.0635728,-0.0292969 -0.1015625,-0.0292969 -0.0504283,0 -0.095901,0.0144551 -0.1328125,0.0390625 C 0.02949477,0.76288864 0,0.80172838 0,0.84960938 0,0.89749038 0.02949476,0.93828321 0.06640625,0.96289063 0.10331774,0.98749804 0.1487905,1 0.19921875,1 0.24964705,1 0.29707285,0.987498 0.33398438,0.9628906 0.37089588,0.9382832 0.40039068,0.8974904 0.40039068,0.84960935 V 0.390625 l 0.5,-0.0820313 v 0.31835937 c -0.0309753,-0.0140248 -0.0618355,-0.0273438 -0.0996094,-0.0273438 -0.0504292,0 -0.0978542,0.0125017 -0.13476563,0.0371094 -0.0369114,0.0246076 -0.0664063,0.065401 -0.0664063,0.11328125 10e-9,0.0478802 0.0294949,0.0886736 0.0664063,0.11328125 0.0369114,0.0246076 0.0843364,0.0371094 0.13476563,0.0371094 0.0504292,0 0.0959011,-0.0125018 0.1328125,-0.0371094 C 0.97050513,0.83867364 1,0.79788023 1,0.75 V 0.2421875 0.05078125 A 0.05000495,0.05000495 0 0 0 0.94140625,0 Z m -0.0410156,0.109375 v 0.0976563 l -0.5,0.0839844 V 0.1914063 Z m -0.0996094,0.58984375 c 0.0324157,0 0.0607477,0.009899 0.078125,0.0214844 0.0173773,0.0115849 0.0214844,0.021947 0.0214844,0.0292969 0,0.00735 -0.004107,0.017712 -0.0214844,0.0292969 -0.0173773,0.0115849 -0.0457093,0.0214844 -0.078125,0.0214844 -0.0324157,0 -0.0627008,-0.009899 -0.0800781,-0.0214844 C 0.7033258,0.76771198 0.69921875,0.75734983 0.69921875,0.75 c 0,-0.00735 0.004107,-0.017712 0.0214844,-0.0292969 0.0173773,-0.0115849 0.0476625,-0.0214844 0.0800781,-0.0214844 z m -0.6015625,0.1015625 c 0.0324142,0 0.0627003,0.007946 0.0800781,0.0195313 0.0173779,0.0115851 0.0214844,0.0219478 0.0214844,0.0292969 0,0.007349 -0.004107,0.0177117 -0.0214844,0.0292969 -0.0173779,0.0115851 -0.047664,0.0214844 -0.0800781,0.0214844 -0.0324142,0 -0.0607471,-0.009899 -0.078125,-0.0214844 -0.0173779,-0.0115851 -0.02148438,-0.0219478 -0.02148438,-0.0292969 0,-0.007349 0.0041065,-0.0177117 0.02148438,-0.0292969 0.0173779,-0.0115851 0.0457109,-0.0195313 0.078125,-0.0195313 z"/>
    </symbol>

    <symbol id="subtitles" viewBox="0 0 1 1">
        <path d="m 0.2109375,0.09960937 c -0.0559921,0 -0.091797,-0.001329 -0.12890625,0.01757813 C 0.05381833,0.13156081 0.02999983,0.15342893 0.015625,0.18164062 -0.00328442,0.21874903 0,0.25455801 0,0.31054688 v 0.37890624 c 0,0.0559884 -0.00328591,0.0917965 0.015625,0.12890626 0.01437441,0.0282098 0.03818827,0.0500803 0.06640625,0.0644531 0.03710928,0.0189084 0.07291354,0.0175782 0.12890625,0.0175781 h 0.578125 c 0.0559919,0 0.0917953,0.001332 0.12890625,-0.0175781 0.0282199,-0.0143721 0.0520325,-0.0362378 0.0664063,-0.0644531 C 1.0032854,0.78125001 1,0.74544189 1,0.68945312 V 0.31054688 C 1,0.25455848 1.0032845,0.21874925 0.984375,0.18164062 0.97000022,0.15342294 0.9461779,0.13156031 0.91796875,0.1171875 0.88085831,0.09827858 0.8450547,0.09960937 0.7890625,0.09960937 Z m 0,0.09960938 h 0.578125 c 0.0559922,0 0.078325,0.002976 0.0839844,0.005859 0.009412,0.004796 0.0166937,0.0120802 0.0214844,0.0214844 0.002885,0.005661 0.005859,0.027996 0.005859,0.0839844 v 0.37890624 c 0,0.0559888 -0.002976,0.0783257 -0.005859,0.0839844 -0.004791,0.009405 -0.0120833,0.0166965 -0.0214844,0.0214844 -0.005659,0.002884 -0.0279925,0.005859 -0.0839844,0.005859 h -0.578125 c -0.0559927,1.1e-7 -0.0783213,-0.002974 -0.0839844,-0.005859 -0.009406,-0.004791 -0.0166894,-0.0120742 -0.0214844,-0.0214844 -0.002883,-0.005658 -0.0058594,-0.027996 -0.0058594,-0.0839844 V 0.31054688 c 0,-0.0559889 0.0029748,-0.0783236 0.0058594,-0.0839844 0.004795,-0.00941 0.012073,-0.0166897 0.0214844,-0.0214844 0.005663,-0.002885 0.0279923,-0.005859 0.0839844,-0.005859 z m 0.13476563,0.125 c -0.0967608,0 -0.16992188,0.0869193 -0.16992188,0.18554687 0,0.0986277 0.0731612,0.18554688 0.16992188,0.18554688 0.0444331,0 0.085649,-0.0195448 0.11523437,-0.0488281 a 0.04998695,0.04998695 0 0 0 0,-0.0703125 0.04998695,0.04998695 0 0 0 -0.0703125,0 C 0.3777799,0.5888858 0.3623128,0.5957032 0.3457031,0.5957032 c -0.0361726,0 -0.0703125,-0.0354894 -0.0703125,-0.0859375 0,-0.050448 0.0341399,-0.0839844 0.0703125,-0.0839844 0.0166101,0 0.0320767,0.004864 0.0449219,0.0175781 a 0.04998695,0.04998695 0 0 0 0.0703125,0 0.04998695,0.04998695 0 0 0 0,-0.0703125 C 0.43135202,0.34376331 0.39013599,0.32421875 0.34570313,0.32421875 Z m 0.34960937,0 c -0.0967598,0 -0.16992187,0.0869191 -0.16992188,0.18554687 0,0.0986279 0.0731622,0.18554688 0.16992188,0.18554688 0.044434,0 0.0856491,-0.0195449 0.11523438,-0.0488281 a 0.04998695,0.04998695 0 0 0 0,-0.0703125 0.04998695,0.04998695 0 0 0 -0.0703125,0 c -0.0128451,0.012714 -0.0283099,0.0195313 -0.0449219,0.0195313 -0.0361698,0 -0.0703125,-0.0354896 -0.0703125,-0.0859375 0,-0.0504478 0.0341427,-0.0839844 0.0703125,-0.0839844 0.0166119,0 0.0320776,0.004865 0.0449219,0.0175781 a 0.04998695,0.04998695 0 0 0 0.0703125,0 0.04998695,0.04998695 0 0 0 0,-0.0703125 C 0.78096119,0.3437627 0.73974602,0.32421875 0.6953125,0.32421875 Z"/>
    </symbol>

    <symbol id="image" viewBox="0 0 1 1">
        <path d="m 0.23448541,2.0813055e-4 c -0.0621863,0 -0.10130406,-0.003429601 -0.14251881,0.0175708195 C 0.06063316,0.03374334 0.03374336,0.06063122 0.01777874,0.0919668 -0.0032219,0.13318188 2.0792361e-4,0.17229988 2.0792361e-4,0.23448559 v 0.53102889 c 0,0.0365031 7.4382136e-4,0.0641464 0.003904626,0.0898064 0.00222297,0.0180573 0.00499662,0.0356952 0.01366619,0.0527125 0.01596408,0.0313301 0.04284779,0.0582232 0.07418786,0.0741879 0.04121508,0.0210016 0.08033249,0.0175707 0.14251881,0.0175707 h 0.53102897 c 0.0363253,0 0.0642521,-7.9433e-4 0.0898064,-0.003904 0.0181797,-0.002209 0.0355616,-0.004923 0.0527125,-0.0136662 0.0313367,-0.0159639 0.0582239,-0.0428511 0.0741879,-0.0741879 0.021002,-0.0412164 0.0175707,-0.0803331 0.0175707,-0.14251896 V 0.74989598 0.23448559 c 0,-0.0621857 0.003429,-0.10130371 -0.0175708,-0.14251879 C 0.96625647,0.06062635 0.93936331,0.03374293 0.90803318,0.01777895 0.86681685,-0.0032232 0.82770009,2.0813055e-4 0.76551438,2.0813055e-4 Z m 0,0.11128178945 h 0.53102897 c 0.0621857,0 0.087426,0.002654 0.093711,0.005857 0.0104527,0.005326 0.0181068,0.012982 0.0234277,0.0234277 0.003204,0.006288 0.005857,0.0315253 0.005857,0.093711 v 0.3904628 c -0.0196932,-0.0183465 -0.0393109,-0.0421982 -0.0644263,-0.0507602 -0.0335938,-0.0114537 -0.0696127,-0.0126366 -0.10347256,-0.001952 -0.0360518,0.0113755 -0.06227,0.0389668 -0.093711,0.0702832 L 0.5722354,0.58785405 c -0.0446881,-0.0443217 -0.0706521,-0.073784 -0.11518643,-0.087854 -0.0338176,-0.0106816 -0.0698876,-0.0114165 -0.10347255,0 -0.0442177,0.0150319 -0.0695158,0.0464892 -0.11323412,0.0917587 v -0.001952 L 0.11148972,0.71670667 V 0.23448559 c 0,-0.0621857 0.002653,-0.0874227 0.005857,-0.093711 0.005325,-0.0104505 0.012975,-0.0181021 0.0234277,-0.0234277 0.006288,-0.003205 0.0315247,-0.005857 0.093711,-0.005857 z m 0.43146103,0.0546647 c -0.0913284,0 -0.16594655,0.0765722 -0.16594655,0.16789885 0,0.0913277 0.0746191,0.16594652 0.16594655,0.16594652 0.0913275,0 0.16789887,-0.0746188 0.16789887,-0.16594652 0,-0.0913266 -0.0765703,-0.16789885 -0.16789887,-0.16789885 z m 0,0.11128179 c 0.0313221,0 0.056617,0.0252967 0.056617,0.056617 0,0.0313239 -0.0252939,0.0546647 -0.056617,0.0546647 -0.031323,0 -0.0546648,-0.023341 -0.0546648,-0.0546647 0,-0.0313206 0.0233428,-0.056617 0.0546648,-0.056617 z M 0.38871809,0.60542489 c 0.0111984,-0.003806 0.0238564,-0.003565 0.0351417,0 0.006742,0.00213 0.0255986,0.0162033 0.0702833,0.0605217 l 0.0917586,0.0917587 0.13080492,0.13080492 h -0.4822212 c -0.0621863,0 -0.0874227,-0.002653 -0.093711,-0.005857 -0.007835,-0.003991 -0.0124477,-0.0105253 -0.0175708,-0.0175708 L 0.31843485,0.66985118 a 0.05552345,0.05552344 0 0 0 0.001952,-0.001952 c 0.043718,-0.045269 0.0616276,-0.0601951 0.0683312,-0.0624743 z m 0.36508241,0.0722355 c 0.0112876,-0.003562 0.0239216,-0.003825 0.0351417,0 0.006688,0.00228 0.0246219,0.0190406 0.068331,0.0644263 a 0.05552345,0.05552344 0 0 0 0.001952,0 l 0.0292847,0.0292847 c -3.2348e-4,0.0538595 -0.002854,0.0819604 -0.005857,0.087854 -0.004434,0.008705 -0.0113901,0.014237 -0.0195232,0.0195232 L 0.7069453,0.7206113 C 0.7268338,0.7024297 0.7492346,0.6791012 0.7538005,0.67766039 Z"/>
    </symbol>
</svg>
