<?xml version="1.0" encoding="utf-8"?>
<svg version="1.1" xmlns="http://www.w3.org/2000/svg">
    <symbol id="play" viewBox="0 0 1 1">
        <path d="m 0.1875,0.75009903 q 0,0.0336767 0.0287657,0.0534866 Q 0.2321364,0.8125 0.249991,0.8125 q 0.0138869,0 0.0277738,-0.006933 L 0.7786846,0.55596275 q 0.0148788,-0.007924 0.024798,-0.0227813 0.009919,-0.0148574 0.008927,-0.0336767 -9.9174e-4,-0.0188193 -0.008927,-0.0326862 -0.007935,-0.0138669 -0.024798,-0.0227813 L 0.27776475,0.19443344 Q 0.26387787,0.1875 0.24999098,0.1875 q -0.0168626,0 -0.0337253,0.008914 Q 0.1875,0.21523375 0.1875,0.24990095 Z"/>
    </symbol>

    <symbol id="pause" viewBox="0 0 1 1">
        <path d="m 0.1875496,0.75010399 q 0,0.0257507 0.0178543,0.0435782 0.0178543,0.0178274 0.0446358,0.0188178 h 0.12498011 q 0.0257896,0 0.0446358,-0.0188178 0.0188462,-0.0188179 0.0178543,-0.0435782 V 0.24994553 q 0,-0.0257507 -0.0178543,-0.0445686 -0.0178543,-0.0188178 -0.0446358,-0.0178274 h -0.1249801 q -0.0257896,0 -0.0446358,0.0178274 -0.0188462,0.0178274 -0.0178543,0.0445686 z m 0.37494033,0 q 0,0.0257507 0.0188462,0.0435782 0.0188462,0.0178274 0.0436439,0.0188178 h 0.12498014 q 0.0257896,0 0.0446358,-0.0188178 0.0188462,-0.0188179 0.0178545,-0.0435782 V 0.24994553 q 0,-0.0257507 -0.0178545,-0.0445686 -0.0178545,-0.0188178 -0.0446358,-0.0178274 H 0.62497998 q -0.0257895,0 -0.0436438,0.0178274 -0.0178543,0.0178274 -0.0188462,0.0445686 z"/>
    </symbol>

    <symbol id="replay" viewBox="0 0 1 1">
        <path d="m 0.97230347,0.30857986 c -0.0258653,-0.0142087 -0.058439,-0.004847 -0.07269,0.0209148 l -0.0172881,0.0311066 C 0.82318557,0.18053486 0.65290814,0.05 0.45239329,0.05 0.2029512,0.05 0,0.25187753 0,0.5 c 0,0.24812247 0.2029512,0.45 0.45239329,0.45 0.0295699,0 0.0535329,-0.0238362 0.0535329,-0.0532165 0,-0.0293803 -0.023963,-0.0532165 -0.0535329,-0.0532165 -0.19043572,0 -0.34539418,-0.15413869 -0.34539418,-0.34360015 0,-0.18946146 0.15495846,-0.34353375 0.34539418,-0.34353375 0.15102026,0 0.27941251,0.0970712 0.32623713,0.23165621 l -0.0292362,-0.0160347 c -0.0258653,-0.0142087 -0.058439,-0.00488 -0.07269,0.0208816 -0.0142843,0.0257617 -0.004906,0.0581299 0.0209927,0.0723055 L 0.80346117,0.523272 c 0.008711,0.0176281 0.0267331,0.0299115 0.0478592,0.0299115 0.00534,0 0.0103795,-0.00103 0.0152188,-0.002457 3.0037e-4,0 5.3399e-4,9.959e-5 8.3437e-4,9.959e-5 0.0188567,0 0.0371126,-0.009893 0.0469247,-0.0275212 l 0.0790313,-0.142486 c 0.0142843,-0.0256621 0.004873,-0.0580303 -0.0210261,-0.072239 z"/>
    </symbol>

    <symbol id="next" viewBox="0 0 1 1">
        <path d="M 0.97402187,0.56069988 0.60080225,0.83467308 C 0.5477829,0.87221203 0.5001822,0.83651065 0.5001822,0.7740332 V 0.5998139 L 0.14838711,0.83467308 C 0.09545112,0.87221203 -4e-7,0.83651065 -4e-7,0.7740332 V 0.2259993 c 0,-0.0624774 0.09545152,-0.0981788 0.14838751,-0.0607274 L 0.5001822,0.4002186 V 0.2259993 c 0,-0.0624774 0.0476007,-0.0981788 0.10062005,-0.0607274 L 0.9600167,0.43933265 c 0.042849,0.0303637 0.0568541,0.0910036 0.0140052,0.12136723"/>
    </symbol>

    <symbol id="volume_full" viewBox="0 0 1 1">
        <path d="m 0.75,0.5 c 0,0.0694301 -0.0559625,0.12571429 -0.125,0.12571429 V 0.37428571 c 0.0690375,0 0.125,0.0562842 0.125,0.12571429 z m 0.125,0 C 0.875,0.36113977 0.76306875,0.24857143 0.625,0.24857143 V 0.12285714 C 0.83210625,0.12285714 1,0.29170965 1,0.5 1,0.70828971 0.83210625,0.87714286 0.625,0.87714286 V 0.75142857 c 0.13806875,0 0.25,-0.11257086 0.25,-0.25142857 z M 0.375,0.06 H 0.5 V 0.94 H 0.375 L 0.125,0.68857143 H 0 V 0.31142857 h 0.125 z"/>
    </symbol>

    <symbol id="volume_medium" viewBox="0 0 1 1">
        <path d="m 0.76,0.49999998 c 0,0.0694302 -0.0567087,0.12571429 -0.12666667,0.12571429 V 0.3742857 C 0.70329129,0.3742857 0.76,0.4305699 0.76,0.49999998 Z M 0.50666666,0.06 H 0.38000001 L 0.12666665,0.31142857 H 0 V 0.68857141 H 0.12666665 L 0.38000001,0.94 h 0.12666665 z"/>
    </symbol>

    <symbol id="volume_low" viewBox="0 0 1 1">
        <path d="M 0.375,0.06 H 0.5 V 0.94 H 0.375 L 0.125,0.68857143 H 0 V 0.31142857 h 0.125 z"/>
    </symbol>

    <symbol id="volume_muted" viewBox="0 0 1 1">
        <path d="M 0.59163626,0.38730406 0.70578273,0.5 0.59163626,0.61269594 0.68167261,0.70158914 0.79581845,0.5888932 0.90996429,0.70158914 1,0.61269594 0.88585417,0.5 1,0.38730406 0.90996429,0.29841023 0.79581845,0.4111068 0.68167261,0.29841023 Z M 0.50932381,0.06 H 0.38199286 L 0.12733096,0.31142857 H 0 V 0.68857143 H 0.12733096 L 0.38199286,0.94 h 0.12733095 z"/>
    </symbol>

    <symbol id="download" viewBox="0 0 1 1">
        <path d="m 0.55954091,0.80400455 c -0.0341727,0.0296136 -0.0849091,0.0296136 -0.11908182,0 l -0.21905545,-0.18985 c -0.063595,-0.0551182 -0.0246159,-0.1596091 0.0595391,-0.1596091 h 0.0826941 V 0.09090909 C 0.36363682,0.04070136 0.40433818,0 0.45454545,0 h 0.0909091 c 0.0502091,0 0.0909091,0.04070136 0.0909091,0.09090909 v 0.36363636 h 0.0826955 c 0.0841545,0 0.12313182,0.10449091 0.0595364,0.1596091 z m -0.0893091,-0.0945 c 0.0170818,0.0148045 0.0424545,0.0148045 0.0595364,0 l 0.18929091,-0.16405 H 0.61363636 c -0.0376545,0 -0.0681818,-0.0305273 -0.0681818,-0.0681818 V 0.09090909 h -0.0909091 v 0.38636364 c 0,0.0376545 -0.0305273,0.0681818 -0.0681814,0.0681818 H 0.28094273 Z M 1,0.95454545 C 1,0.97965 0.97965,1 0.95454545,1 H 0.04545455 C 0.02035091,1 0,0.97965 0,0.95454545 0,0.92944091 0.02035091,0.90909091 0.04545455,0.90909091 h 0.9090909 C 0.97965,0.90909091 1,0.92944091 1,0.95454545 Z"/>
    </symbol>

    <symbol id="subs" viewBox="0 0 1 1">
        <path d="M 0.89344264,0.15 H 0.10655738 C 0.04773771,0.15006231 6.5573625e-5,0.19535826 0,0.25124611 v 0.4975078 C 6.5573625e-5,0.80464176 0.04773771,0.8499377 0.10655738,0.85 H 0.89344264 C 0.9522623,0.84996884 0.99996721,0.80464176 1,0.74875391 V 0.25124611 C 0.99993442,0.19535826 0.9522623,0.15006231 0.89344264,0.15 Z m 0.0245902,0.59872275 c 0,0.0128972 -0.0110164,0.0233644 -0.0245902,0.0233644 H 0.10655738 c -0.01357377,0 -0.02459017,-0.0104673 -0.02459017,-0.0233644 v -0.4975078 c 1.9672e-4,-0.0128349 0.01108197,-0.0231776 0.02455738,-0.0233645 h 0.78691805 c 0.0135082,1.8693e-4 0.0243934,0.0105296 0.0245902,0.0233333 v 3.115e-5 z m -0.4372787,-0.20928349 -0.0130164,-0.005482 c -0.003902,-0.001683 -0.008459,-0.002648 -0.0132459,-0.002648 -0.0134098,0 -0.0249181,0.007633 -0.0300328,0.018567 l -9.836e-5,1.8691e-4 c -0.009672,0.0213395 -0.0252131,0.0388473 -0.0446885,0.0510904 l -4.5903e-4,2.8038e-4 c -0.0186558,0.0121184 -0.0417049,0.0193458 -0.0665574,0.0193458 -5.9015e-4,0 -0.001148,0 -0.001738,0 h 9.836e-5 c -7.213e-4,0 -0.001541,3.112e-5 -0.002393,3.112e-5 -0.0338361,0 -0.0643935,-0.0133644 -0.0861312,-0.0348598 l -3.279e-5,-3.116e-5 c -0.0226229,-0.0210902 -0.0366557,-0.0504672 -0.0366557,-0.0829283 0,-0.001059 0,-0.002088 3.279e-5,-0.003146 v 1.5577e-4 c -3.279e-5,-9.0346e-4 -3.279e-5,-0.001963 -3.279e-5,-0.003022 0,-0.03243 0.0140328,-0.0617757 0.036623,-0.0828349 l 3.279e-5,-3.116e-5 c 0.0217377,-0.0215264 0.0522623,-0.0348909 0.0860656,-0.0348909 8.8524e-4,0 0.00177,0 0.002623,3.115e-5 h -1.3115e-4 c 5.2457e-4,0 0.001115,0 0.001738,0 0.0247869,0 0.0478033,0.007196 0.0668524,0.0195327 l -4.2624e-4,-2.4924e-4 c 0.0199672,0.0125545 0.0355082,0.0300312 0.0448852,0.0506542 l 2.9509e-4,7.4766e-4 c 0.005148,0.0111526 0.0166885,0.0188162 0.0300984,0.0188162 0.00482,0 0.00941,-9.9671e-4 0.013541,-0.002773 l -1.9672e-4,9.346e-5 0.0130164,-0.005514 c 0.0115738,-0.004985 0.0194426,-0.0158255 0.0194426,-0.0284735 0,-0.00458 -0.001049,-0.00891 -0.002885,-0.0128037 l 9.836e-5,1.8692e-4 c -0.0161975,-0.0346434 -0.0416073,-0.0630235 -0.073345,-0.0830858 l -7.5412e-4,-4.3612e-4 c -0.0310491,-0.0199689 -0.0693442,-0.0318692 -0.11055736,-0.0318692 -6.2294e-4,0 -0.001279,0 -0.001902,0 h 9.836e-5 c -0.001016,-3.115e-5 -0.002197,-3.115e-5 -0.003377,-3.115e-5 -0.0556066,0 -0.10583607,0.0218068 -0.1417705,0.0569159 l -3.278e-5,3.115e-5 c -0.0367869,0.0345172 -0.0595738,0.0824611 -0.0595738,0.13545171 0,0.001247 0,0.002461 3.279e-5,0.003707 v -1.8691e-4 c -3.279e-5,0.001028 -3.279e-5,0.002243 -3.279e-5,0.003458 0,0.0530218 0.0227869,0.10099689 0.0595738,0.13554516 l 3.278e-5,3.115e-5 c 0.036,0.0351402 0.0862623,0.0569158 0.14186886,0.0569158 0.00118,0 0.002361,0 0.003508,-3.116e-5 h -1.6394e-4 c 5.5737e-4,0 0.001213,0 0.001902,0 0.0411803,0 0.0794099,-0.0119003 0.11111476,-0.0323053 l -6.8854e-4,4.3615e-4 c 0.0324918,-0.0205295 0.0579344,-0.0489096 0.0736065,-0.0823052 l 5.2461e-4,-0.001215 c 0.001771,-0.003708 0.00282,-0.008037 0.00282,-0.0126168 0,-0.012648 -0.007934,-0.0235203 -0.0193115,-0.0283801 l -1.9673e-4,-9.347e-5 z M 0.70445903,0.3792835 c 5.2461e-4,0 0.001115,0 0.001705,0 0.0247869,0 0.0478361,0.007196 0.0668852,0.0195327 L 0.772623,0.39856698 c 0.0199344,0.0125545 0.0354754,0.0300312 0.0448525,0.0506542 l 2.9509e-4,7.4766e-4 c 0.005148,0.0111526 0.0166886,0.0187851 0.0300656,0.0187851 0.00482,0 0.00941,-9.9672e-4 0.013541,-0.002773 l -1.9673e-4,9.346e-5 0.0129836,-0.005514 c 0.0115737,-0.004953 0.0194426,-0.0158255 0.0194426,-0.0284424 0,-0.004548 -0.001049,-0.008878 -0.002885,-0.0128037 l 9.837e-5,1.8693e-4 c -0.0161639,-0.0346409 -0.0415738,-0.063021 -0.0732787,-0.0831145 L 0.81678721,0.33595064 C 0.78508231,0.31579489 0.74606591,0.3037699 0.70409872,0.3037699 c -0.11291803,0 -0.20445903,0.0869782 -0.20445903,0.19426792 0,6.8539e-4 0,0.001371 0,0.002025 v -9.346e-5 c -3.279e-5,0.001028 -3.279e-5,0.002243 -3.279e-5,0.003458 0,0.0530218 0.0227869,0.10099689 0.0595738,0.13554515 l 3.279e-5,3.116e-5 c 0.0371803,0.0351713 0.0884262,0.0568848 0.1450164,0.0568848 0.0418688,0 0.0808524,-0.0119003 0.11331145,-0.0323365 l -7.5412e-4,4.673e-4 c 0.032459,-0.0205295 0.0578688,-0.0489097 0.0735082,-0.0823053 l 5.2461e-4,-0.001215 c 0.001771,-0.003707 0.00282,-0.008037 0.00282,-0.0126168 0,-0.0126168 -0.007902,-0.0234891 -0.0192459,-0.0283801 l -1.9672e-4,-9.345e-5 -0.0129836,-0.005482 c -0.003902,-0.001683 -0.008492,-0.002679 -0.0133115,-0.002679 -0.0134098,0 -0.0249508,0.007633 -0.0300328,0.0185982 l -9.837e-5,1.8692e-4 c -0.009672,0.0213395 -0.0251803,0.0388162 -0.0446229,0.0510904 l -4.5903e-4,2.8038e-4 c -0.0192787,0.0121184 -0.0429508,0.0193458 -0.0683606,0.0193458 -0.0345574,0 -0.0658361,-0.0133333 -0.088459,-0.0348598 v 0 c -0.0226229,-0.0210903 -0.0366557,-0.0504362 -0.0366557,-0.0829284 0,-0.001059 0,-0.002119 3.279e-5,-0.003146 v 1.5577e-4 c -3.279e-5,-9.0345e-4 -3.279e-5,-0.001963 -3.279e-5,-0.003021 0,-0.032461 0.0140328,-0.0617757 0.0366557,-0.0828037 l 3.278e-5,-3.116e-5 c 0.0217377,-0.0215264 0.0522623,-0.034891 0.0860656,-0.034891 8.8528e-4,0 0.001738,0 0.002623,3.116e-5 H 0.7044592 Z"/>
    </symbol>

    <svg id="settings" viewBox="0 0 1 1">
        <path d="m 0.37339214,0.11595833 a 0.04254296,0.04166667 0 0 1 0.0415219,-0.032625 H 0.5850859 a 0.04254296,0.04166667 0 0 1 0.0415219,0.032625 L 0.6453267,0.1985 c 0.0170172,0.007917 0.033226,0.0170833 0.048499,0.0275 L 0.776274,0.20058333 A 0.04254296,0.04166667 0 0 1 0.8258791,0.2195 L 0.910965,0.36383333 A 0.04254296,0.04166667 0 0 1 0.902882,0.415375 L 0.8391952,0.4725833 a 0.34459801,0.3375 0 0 1 0,0.0548333 L 0.902882,0.5846249 A 0.04254296,0.04166667 0 0 1 0.910965,0.6361666 L 0.8258791,0.78049999 A 0.04254296,0.04166667 0 0 1 0.776274,0.79941665 L 0.6938683,0.77399999 c -0.0153155,0.0104167 -0.0315243,0.0195833 -0.048499,0.0275 l -0.0187189,0.0825 A 0.04254296,0.04166667 0 0 1 0.5850859,0.91666666 H 0.41491407 a 0.04254296,0.04166667 0 0 1 -0.0415219,-0.032625 l -0.0187189,-0.0825417 c -0.0170172,-0.007917 -0.0332261,-0.0170833 -0.048499,-0.0275 l -0.0824483,0.0254167 A 0.04254296,0.04166667 0 0 1 0.17412087,0.78049999 L 0.08903494,0.63616665 a 0.04254296,0.04166667 0 0 1 0.0080832,-0.0515417 l 0.06368681,-0.0572083 a 0.34447038,0.337375 0 0 1 0,-0.0548333 L 0.09711814,0.41541666 A 0.04254296,0.04166667 0 0 1 0.08903494,0.363875 L 0.17412087,0.21954166 A 0.04254296,0.04166667 0 0 1 0.22372597,0.200625 l 0.0824057,0.0254167 c 0.0153155,-0.0104167 0.0315243,-0.0195833 0.048499,-0.0275 l 0.0187189,-0.0825 z M 0.5,0.62499999 A 0.12762889,0.125 0 1 0 0.5,0.375 a 0.12762889,0.125 0 0 0 0,0.24999999 z"/>
    </svg>

    <symbol id="fullscreen_enter" viewBox="0 0 1 1">
        <path d="M 0,0.88095237 C 0,0.9467 0.05329952,1 0.11904762,1 h 0.2142857 c 0.0262991,0 0.0476191,-0.0213191 0.0476191,-0.047619 V 0.904762 c 0,-0.0263 -0.02132,-0.047619 -0.0476191,-0.047619 H 0.14285714 V 0.66666667 c 0,-0.0263 -0.02132,-0.047619 -0.04761905,-0.047619 H 0.04761905 C 0.02132,0.61904762 0,0.64036667 0,0.66666667 Z M 0.88095237,1 C 0.9467,1 1,0.9467 1,0.88095237 v -0.2142857 c 0,-0.0263 -0.0213191,-0.047619 -0.047619,-0.047619 H 0.904762 c -0.0263,0 -0.047619,0.0213191 -0.047619,0.047619 V 0.85714285 H 0.66666667 c -0.0263,0 -0.047619,0.0213191 -0.047619,0.047619 v 0.047619 c 0,0.0263 0.0213191,0.047619 0.047619,0.047619 z m 0,-1 C 0.9467,0 1,0.05329952 1,0.11904762 v 0.2142857 c 0,0.0262991 -0.0213191,0.0476191 -0.047619,0.0476191 H 0.904762 c -0.0263,0 -0.047619,-0.02132 -0.047619,-0.0476191 V 0.14285714 H 0.66666667 c -0.0263,0 -0.047619,-0.02132 -0.047619,-0.04761905 V 0.04761905 C 0.61904762,0.02132 0.64036667,0 0.66666667,0 Z M 0.11904762,0 C 0.05329952,0 0,0.05329952 0,0.11904762 v 0.2142857 c 0,0.0262991 0.02132,0.0476191 0.04761905,0.0476191 H 0.0952381 c 0.02629904,0 0.04761904,-0.02132 0.04761904,-0.0476191 V 0.14285714 h 0.19047618 c 0.0262991,0 0.0476191,-0.02132 0.0476191,-0.04761905 V 0.04761905 C 0.38095238,0.02132 0.35963238,0 0.33333332,0 Z"/>
    </symbol>

    <symbol id="fullscreen_exit" viewBox="0 0 1 1">
        <path d="m 0.38095238,0.73809524 c 0,-0.0657476 -0.0532995,-0.11904762 -0.11904762,-0.11904762 H 0.04761905 C 0.02132,0.61904762 0,0.64036667 0,0.66666667 v 0.047619 c 0,0.0263 0.02132,0.047619 0.04761905,0.047619 h 0.19047619 v 0.19047619 c 0,0.0263 0.02132,0.047619 0.047619,0.047619 h 0.047619 c 0.026299,0 0.047619,-0.0213191 0.047619,-0.047619 z M 0.73809524,0.61904762 c -0.0657476,0 -0.11904762,0.0533 -0.11904762,0.11904762 v 0.21428571 c 0,0.0263 0.0213191,0.047619 0.047619,0.047619 h 0.047619 c 0.0263,0 0.047619,-0.0213191 0.047619,-0.047619 V 0.76190476 h 0.19047633 c 0.0263,0 0.047619,-0.0213191 0.047619,-0.047619 v -0.047619 c 0,-0.0263 -0.0213191,-0.047619 -0.047619,-0.047619 z m 0,-0.23809524 c -0.0657476,0 -0.11904762,-0.0532995 -0.11904762,-0.11904762 V 0.04761905 C 0.61904762,0.02132 0.64036672,0 0.66666662,0 h 0.047619 c 0.0263,0 0.047619,0.02132 0.047619,0.04761905 v 0.19047619 h 0.19047633 c 0.0263,0 0.047619,0.02132 0.047619,0.047619 v 0.047619 c 0,0.026299 -0.0213191,0.047619 -0.047619,0.047619 z m -0.47619048,0 c 0.0657481,0 0.11904762,-0.0532995 0.11904762,-0.11904762 V 0.04761905 C 0.38095238,0.02132 0.35963238,0 0.33333338,0 h -0.047619 c -0.026299,0 -0.047619,0.02132 -0.047619,0.04761905 V 0.23809524 H 0.04761905 C 0.02132,0.23809524 0,0.25941524 0,0.28571429 v 0.047619 c 0,0.026299 0.02132,0.047619 0.04761905,0.047619 z"/>
    </symbol>

    <symbol id="arrow_left" viewBox="0 0 24 24">
        <path d="M14.2893 5.70708C13.8988 5.31655 13.2657 5.31655 12.8751 5.70708L7.98768 10.5993C7.20729 11.3805 7.2076 12.6463 7.98837 13.427L12.8787 18.3174C13.2693 18.7079 13.9024 18.7079 14.293 18.3174C14.6835 17.9269 14.6835 17.2937 14.293 16.9032L10.1073 12.7175C9.71678 12.327 9.71678 11.6939 10.1073 11.3033L14.2893 7.12129C14.6799 6.73077 14.6799 6.0976 14.2893 5.70708Z" />
    </symbol>

    <symbol id="arrow_right" viewBox="0 0 24 24">
        <path d="M9.71069 18.2929C10.1012 18.6834 10.7344 18.6834 11.1249 18.2929L16.0123 13.4006C16.7927 12.6195 16.7924 11.3537 16.0117 10.5729L11.1213 5.68254C10.7308 5.29202 10.0976 5.29202 9.70708 5.68254C9.31655 6.07307 9.31655 6.70623 9.70708 7.09676L13.8927 11.2824C14.2833 11.6729 14.2833 12.3061 13.8927 12.6966L9.71069 16.8787C9.32016 17.2692 9.32016 17.9023 9.71069 18.2929Z" />
    </symbol>

    <symbol id="seek_forward" viewBox="0 0 48 48">
        <path d="M24 4C12.97 4 4 12.97 4 24C4 35.03 12.97 44 24 44C35.03 44 44 35.03 44 24C44 23.83 43.998 23.66 43.994 23.49A1.5 1.5 0 0 0 40.994 23.56C40.998 23.71 41 23.85 41 24C41 33.41 33.41 41 24 41C14.59 41 7 33.41 7 24C7 14.59 14.59 7 24 7C29.38 7 34.16 9.5 37.27 13.38L35.96 13.15A1.5 1.5 0 0 0 35.44 16.11L40.37 16.98A1.5 1.5 0 0 0 42.11 15.76L42.97 10.84A1.5 1.5 0 0 0 41.44 9.06A1.5 1.5 0 0 0 40.02 10.32L39.77 11.72C36.11 7.03 30.4 4 24 4z"/>
        <text x="24" y="24" text-anchor="middle" font-weight="bold" font-size="18" dy=".35em">10s</text>
    </symbol>

    <symbol id="seek_backward" viewBox="0 0 48 48">
        <path transform="scale(-1, 1) translate(-48, 0)" d="M24 4C12.97 4 4 12.97 4 24C4 35.03 12.97 44 24 44C35.03 44 44 35.03 44 24C44 23.83 43.998 23.66 43.994 23.49A1.5 1.5 0 0 0 40.994 23.56C40.998 23.71 41 23.85 41 24C41 33.41 33.41 41 24 41C14.59 41 7 33.41 7 24C7 14.59 14.59 7 24 7C29.38 7 34.16 9.5 37.27 13.38L35.96 13.15A1.5 1.5 0 0 0 35.44 16.11L40.37 16.98A1.5 1.5 0 0 0 42.11 15.76L42.97 10.84A1.5 1.5 0 0 0 41.44 9.06A1.5 1.5 0 0 0 40.02 10.32L39.77 11.72C36.11 7.03 30.4 4 24 4z"/>
        <text x="24" y="24" text-anchor="middle" font-weight="bold" font-size="18" dy=".35em">10s</text>
    </symbol>

    <symbol id="pause_popup" viewBox="0 0 24 24" fill="none">
        <circle cx="12" cy="12" r="10" stroke-width="1.5"/>
        <path d="M8 9.5C8 9.03406 8 8.80109 8.07612 8.61732C8.17761 8.37229 8.37229 8.17761 8.61732 8.07612C8.80109 8 9.03406 8 9.5 8C9.96594 8 10.1989 8 10.3827 8.07612C10.6277 8.17761 10.8224 8.37229 10.9239 8.61732C11 8.80109 11 9.03406 11 9.5V14.5C11 14.9659 11 15.1989 10.9239 15.3827C10.8224 15.6277 10.6277 15.8224 10.3827 15.9239C10.1989 16 9.96594 16 9.5 16C9.03406 16 8.80109 16 8.61732 15.9239C8.37229 15.8224 8.17761 15.6277 8.07612 15.3827C8 15.1989 8 14.9659 8 14.5V9.5Z" stroke-width="1.5"/>
        <path d="M13 9.5C13 9.03406 13 8.80109 13.0761 8.61732C13.1776 8.37229 13.3723 8.17761 13.6173 8.07612C13.8011 8 14.0341 8 14.5 8C14.9659 8 15.1989 8 15.3827 8.07612C15.6277 8.17761 15.8224 8.37229 15.9239 8.61732C16 8.80109 16 9.03406 16 9.5V14.5C16 14.9659 16 15.1989 15.9239 15.3827C15.8224 15.6277 15.6277 15.8224 15.3827 15.9239C15.1989 16 14.9659 16 14.5 16C14.0341 16 13.8011 16 13.6173 15.9239C13.3723 15.8224 13.1776 15.6277 13.0761 15.3827C13 15.1989 13 14.9659 13 14.5V9.5Z" stroke-width="1.5"/>
    </symbol>

    <symbol id="play_popup" viewBox="0 0 24 24" fill="none">
        <circle cx="12" cy="12" r="10" stroke-width="1.5"/>
        <path d="M15.4137 10.941C16.1954 11.4026 16.1954 12.5974 15.4137 13.059L10.6935 15.8458C9.93371 16.2944 9 15.7105 9 14.7868L9 9.21316C9 8.28947 9.93371 7.70561 10.6935 8.15419L15.4137 10.941Z" stroke-width="1.5"/>
    </symbol>

    <symbol id="buffering" viewBox="0 0 400 400">
        <path opacity=".2" d="m 200,37.5 a 162.5,162.5 0 1 0 0,325 162.5,162.5 0 0 0 0,-325 z M 0,200 a 200,200 0 1 1 400,0 200,200 0 0 1 -400,0 z"/>
        <path d="M 181.25,18.75 A 18.75,18.75 0 0 1 200,0 200,200 0 0 1 400,200 18.75,18.75 0 0 1 362.5,200 162.5,162.5 0 0 0 200,37.5 18.75,18.75 0 0 1 181.25,18.75 Z"/>
    </symbol>

    <symbol id="speed" viewBox="0 0 16 16">
        <path d="M8 4a.5.5 0 0 1 .5.5V6a.5.5 0 0 1-1 0V4.5A.5.5 0 0 1 8 4zM3.732 5.732a.5.5 0 0 1 .707 0l.915.914a.5.5 0 1 1-.708.708l-.914-.915a.5.5 0 0 1 0-.707zM2 10a.5.5 0 0 1 .5-.5h1.586a.5.5 0 0 1 0 1H2.5A.5.5 0 0 1 2 10zm9.5 0a.5.5 0 0 1 .5-.5h1.5a.5.5 0 0 1 0 1H12a.5.5 0 0 1-.5-.5zm.754-4.246a.389.389 0 0 0-.527-.02L7.547 9.31a.91.91 0 1 0 1.302 1.258l3.434-4.297a.389.389 0 0 0-.029-.518z"/>
        <path d="M0 10a8 8 0 1 1 15.547 2.661c-.442 1.253-1.845 1.602-2.932 1.25C11.309 13.488 9.475 13 8 13c-1.474 0-3.31.488-4.615.911-1.087.352-2.49.003-2.932-1.25A7.988 7.988 0 0 1 0 10zm8-7a7 7 0 0 0-6.603 9.329c.203.575.923.876 1.68.63C4.397 12.533 6.358 12 8 12s3.604.532 4.923.96c.757.245 1.477-.056 1.68-.631A7 7 0 0 0 8 3z"/>
    </symbol>
</svg>

